G04 #@! TF.GenerationSoftware,KiCad,Pcbnew,9.0.6*
G04 #@! TF.CreationDate,2026-01-16T17:25:07+01:00*
G04 #@! TF.ProjectId,enclosure-front,656e636c-6f73-4757-9265-2d66726f6e74,rev?*
G04 #@! TF.SameCoordinates,Original*
G04 #@! TF.FileFunction,Soldermask,Top*
G04 #@! TF.FilePolarity,Negative*
%FSLAX46Y46*%
G04 Gerber Fmt 4.6, Leading zero omitted, Abs format (unit mm)*
G04 Created by KiCad (PCBNEW 9.0.6) date 2026-01-16 17:25:07*
%MOMM*%
%LPD*%
G01*
G04 APERTURE LIST*
%ADD10C,0.247226*%
%ADD11C,0.246640*%
%ADD12C,0.218603*%
%ADD13C,0.000000*%
%ADD14C,0.233130*%
%ADD15C,0.237840*%
%ADD16C,0.233131*%
%ADD17C,0.182279*%
%ADD18C,0.247265*%
%ADD19C,0.246297*%
%ADD20C,0.246294*%
%ADD21C,0.211666*%
%ADD22C,0.246424*%
%ADD23C,0.245492*%
%ADD24C,0.245918*%
%ADD25C,0.245147*%
%ADD26C,0.218557*%
%ADD27C,0.246184*%
%ADD28C,0.234315*%
%ADD29C,0.245483*%
%ADD30C,0.244475*%
%ADD31C,0.246814*%
%ADD32C,0.247116*%
%ADD33C,0.246551*%
%ADD34C,0.182262*%
%ADD35C,0.205740*%
%ADD36C,3.600000*%
G04 APERTURE END LIST*
D10*
X89999542Y-36000038D02*
X90983593Y-35015986D01*
X91751361Y-34248179D01*
X92641663Y-33357833D01*
X93532013Y-32467487D01*
X193971878Y-116027832D02*
X186109117Y-123890544D01*
X178534995Y-131464672D01*
X171267291Y-138732382D01*
X163999542Y-146000092D01*
X73999481Y-94000015D02*
X73334456Y-94665047D01*
X72666987Y-95332525D01*
X72333279Y-95666266D01*
X71999603Y-96000008D01*
X-517Y-58000084D02*
X7187033Y-50812530D01*
X10390982Y-47608595D01*
X15195280Y-42804317D01*
X19999554Y-38000038D01*
X95999565Y-94000015D02*
X95554442Y-94445122D01*
X95123014Y-94876534D01*
X94907274Y-95092240D01*
X94691505Y-95307945D01*
X103999458Y-58000084D02*
X112699360Y-49300079D01*
X115072037Y-46927372D01*
X53999413Y-92000023D02*
X73816314Y-72183277D01*
X98911148Y-47088541D01*
X106646317Y-39353394D01*
X107414886Y-38584827D01*
X43999508Y-32000046D02*
X-517Y-76000046D01*
X128009109Y-244000076D02*
X116210536Y-255796871D01*
X104236076Y-267769584D01*
X97999565Y-274005188D01*
X189963196Y-108036308D02*
X176696948Y-121302616D01*
X156473782Y-141525758D01*
X140042603Y-157956909D01*
X63999580Y-32000046D02*
X56262580Y-39737013D01*
X53499537Y-42500032D01*
X43999508Y-52000004D01*
X63999580Y-270000153D02*
X75999461Y-258000057D01*
X79999374Y-254000076D01*
X157999390Y-150000092D02*
X154386773Y-153612712D01*
X150488155Y-157511337D01*
X148538874Y-159460648D01*
X146589630Y-161409958D01*
X173999451Y-150000092D02*
X161999664Y-162000061D01*
X170457672Y-93542137D02*
X125559387Y-138440552D01*
X81999512Y-274000122D02*
X84293327Y-271706331D01*
X86149925Y-269849714D01*
X88702072Y-267297546D01*
X143999954Y-232000122D02*
X143999954Y-224000046D01*
X83999390Y-96000008D02*
X95827279Y-84172138D01*
X107799409Y-72200027D01*
X113785500Y-66213972D01*
X119771622Y-60227917D01*
X107999474Y-52000004D02*
X114266792Y-45732899D01*
X63999580Y-284000122D02*
X65584490Y-282415211D01*
X76792055Y-271207625D01*
X87999535Y-260000061D01*
D11*
X95999931Y-208000061D02*
X107939598Y-208000061D01*
D12*
X191999969Y-32000038D02*
X191999969Y-111520576D01*
D10*
X63999580Y-262000061D02*
X72543794Y-253455835D01*
X76840128Y-249159476D01*
X82588995Y-243410578D01*
X88337883Y-237661682D01*
X63999580Y-264000061D02*
X67231178Y-260768429D01*
X69931039Y-258068499D01*
X72965175Y-255034285D01*
X75999359Y-252000076D01*
X-82Y-32000046D02*
X255999908Y-32000046D01*
X63999580Y-280000122D02*
X87999535Y-256000061D01*
X9999647Y-38000038D02*
X7311649Y-40687927D01*
X3167047Y-44832480D01*
X-517Y-48000015D01*
X-517Y-92000023D02*
X13299484Y-78700016D01*
X37999489Y-54000004D01*
X77999496Y-250000076D02*
X81421798Y-246577808D01*
X83243814Y-244755791D01*
X85621663Y-242377941D01*
X87999535Y-240000092D01*
X128009109Y-290000122D02*
X97999565Y-320000122D01*
X101999451Y-58000084D02*
X102136444Y-57863093D01*
X104068002Y-55931551D01*
X105033751Y-54965779D01*
X105999466Y-54000004D01*
X73999481Y-96000008D02*
X74703353Y-95296123D01*
X75351398Y-94648069D01*
X75675394Y-94324042D01*
X75999359Y-94000015D01*
X128009109Y-282000122D02*
X119935647Y-290071486D01*
X109845767Y-300158840D01*
X105568479Y-304435072D01*
X97784027Y-312217599D01*
X89999542Y-320000122D01*
X87999535Y-320000122D02*
X102134692Y-305865033D01*
X110205493Y-297794247D01*
X127999672Y-280000122D01*
X17999416Y-38000038D02*
X13075699Y-42923808D01*
X9035023Y-46964487D01*
X4517229Y-51482286D01*
X-517Y-56000084D01*
X63999580Y-266000061D02*
X67231178Y-262768429D01*
X69931039Y-260068499D01*
X72965175Y-257034285D01*
X75999359Y-254000076D01*
X143999466Y-150000092D02*
X141683187Y-152316379D01*
X140866395Y-153133186D01*
X139299871Y-154699733D01*
X137733322Y-156266281D01*
X159999664Y-92000023D02*
X157639777Y-94359925D01*
X140825447Y-111174350D01*
X132418255Y-119581566D01*
X124011032Y-127988785D01*
X38523872Y-292379761D02*
X37196693Y-292379761D01*
X37196693Y-292203369D01*
X38523872Y-292203369D01*
X38523872Y-292379761D01*
G36*
X38523872Y-292379761D02*
G01*
X37196693Y-292379761D01*
X37196693Y-292203369D01*
X38523872Y-292203369D01*
X38523872Y-292379761D01*
G37*
D13*
G36*
X175292816Y-277291809D02*
G01*
X174396194Y-277291809D01*
X174396194Y-275964172D01*
X175292816Y-275964172D01*
X175292816Y-277291809D01*
G37*
D10*
X85999527Y-90000015D02*
X105999466Y-70000061D01*
X53999413Y-90000015D02*
X74134945Y-69864533D01*
X79426781Y-64572718D01*
X92841230Y-51158317D01*
X106255653Y-37743916D01*
X223999893Y-104000076D02*
X223999893Y-96000008D01*
X79999374Y-32017231D02*
X79462837Y-32549245D01*
X78657574Y-33347607D01*
X77999496Y-34000038D01*
X63999580Y-304000061D02*
X70934977Y-297064605D01*
X81486834Y-286512772D01*
X89999542Y-278000092D01*
X127999672Y-316000153D02*
X126077214Y-317922466D01*
X125038296Y-318961297D01*
X123999405Y-320000122D01*
X65999458Y-96000008D02*
X79421411Y-82578131D01*
X82791351Y-79208202D01*
X91395451Y-70604137D01*
X99999573Y-62000072D01*
X150809387Y-93190430D02*
X143012206Y-100987620D01*
X125190025Y-118809814D01*
D14*
X127999962Y-164000061D02*
X127999962Y-288000031D01*
D15*
X191999969Y-144478531D02*
X191999969Y-288000061D01*
D10*
X111999489Y-320000122D02*
X115280597Y-316720903D01*
X119342211Y-312661726D01*
X121445198Y-310560019D01*
X124727169Y-307280045D01*
X128009109Y-304000061D01*
X128009109Y-258000061D02*
X112006592Y-274000122D01*
D16*
X-70Y-160000076D02*
X124000015Y-160000076D01*
D10*
X104687401Y-91312103D02*
X108640865Y-87358628D01*
X114292318Y-81707265D01*
X115343987Y-80655617D01*
X11999525Y-94000015D02*
X11334500Y-94665047D01*
X10667031Y-95332525D01*
X10333323Y-95666266D01*
X9999647Y-96000008D01*
X29999460Y-32000046D02*
X28493308Y-33506181D01*
X27976640Y-34022854D01*
X26988054Y-35011446D01*
X25999445Y-36000038D01*
D17*
X131999954Y-160000076D02*
X143545975Y-160000076D01*
D10*
X39999493Y-62000072D02*
X28853719Y-73145841D01*
X26058088Y-75941465D01*
X19028795Y-82970740D01*
X11999525Y-90000015D01*
X-517Y-42000027D02*
X3999497Y-38000038D01*
X41999500Y-70000061D02*
X21999432Y-90000015D01*
X-517Y-54000004D02*
X6238836Y-47760692D01*
X7872527Y-46127004D01*
X11936021Y-42063521D01*
X15999539Y-38000038D01*
X47999523Y-96000008D02*
X48042576Y-96000031D01*
X83999390Y-274000122D02*
X85315397Y-272684157D01*
X86589164Y-271410377D01*
X88009072Y-269990456D01*
X88719042Y-269280503D01*
X89429031Y-268570557D01*
X95999565Y-232000122D02*
X98374210Y-229625388D01*
X101186787Y-226812710D01*
X102593105Y-225406376D01*
X103999458Y-224000046D01*
X128009109Y-310000153D02*
X122484282Y-315522299D01*
X118004288Y-320000122D01*
X103804771Y-238194748D02*
X105116489Y-236883042D01*
X110773205Y-231226366D01*
X113601537Y-228398028D01*
X116429840Y-225569687D01*
X39999493Y-66000061D02*
X50238977Y-55760617D01*
X54355908Y-51643688D01*
X61177740Y-44821864D01*
X67999596Y-38000038D01*
X97792992Y-232206619D02*
X100764674Y-229234928D01*
X103382112Y-226617485D01*
X104690804Y-225308765D01*
X105999466Y-224000046D01*
X32411615Y-232010531D02*
X32817887Y-232041424D01*
X33218252Y-232092298D01*
X33612207Y-232162651D01*
X33999251Y-232251979D01*
X34378880Y-232359780D01*
X34750592Y-232485552D01*
X35113883Y-232628791D01*
X35468252Y-232788996D01*
X35813195Y-232965663D01*
X36148210Y-233158291D01*
X36472795Y-233366376D01*
X36786446Y-233589415D01*
X37088661Y-233826907D01*
X37378938Y-234078349D01*
X37656773Y-234343237D01*
X37921664Y-234621070D01*
X38173108Y-234911344D01*
X38410602Y-235213557D01*
X38633645Y-235527207D01*
X38841733Y-235851790D01*
X39034363Y-236186805D01*
X39211034Y-236531748D01*
X39371242Y-236886118D01*
X39514484Y-237249410D01*
X39640258Y-237621124D01*
X39748061Y-238000755D01*
X39837391Y-238387802D01*
X39907745Y-238781762D01*
X39958620Y-239182132D01*
X39989514Y-239588409D01*
X39999924Y-240000092D01*
X39999924Y-264000153D01*
X39989514Y-264411828D01*
X39958620Y-264818100D01*
X39907745Y-265218465D01*
X39837391Y-265612420D01*
X39748061Y-265999464D01*
X39640258Y-266379092D01*
X39514484Y-266750803D01*
X39371242Y-267114094D01*
X39211034Y-267468462D01*
X39034363Y-267813405D01*
X38841733Y-268148420D01*
X38633645Y-268473004D01*
X38410602Y-268786654D01*
X38173108Y-269088869D01*
X37921664Y-269379144D01*
X37656773Y-269656979D01*
X37378938Y-269921869D01*
X37088661Y-270173312D01*
X36786446Y-270410806D01*
X36472795Y-270633848D01*
X36148210Y-270841936D01*
X35813195Y-271034565D01*
X35468252Y-271211235D01*
X35113883Y-271371442D01*
X34750592Y-271514684D01*
X34378880Y-271640458D01*
X33999251Y-271748261D01*
X33612207Y-271837590D01*
X33218252Y-271907944D01*
X32817887Y-271958819D01*
X32411615Y-271989713D01*
X31999939Y-272000122D01*
X31588255Y-271989713D01*
X31181977Y-271958819D01*
X30781606Y-271907944D01*
X30387645Y-271837590D01*
X30000598Y-271748261D01*
X29620965Y-271640458D01*
X29249251Y-271514684D01*
X28885958Y-271371442D01*
X28531588Y-271211235D01*
X28186644Y-271034565D01*
X27851629Y-270841936D01*
X27527044Y-270633848D01*
X27213394Y-270410806D01*
X26911180Y-270173312D01*
X26620905Y-269921869D01*
X26343072Y-269656979D01*
X26078184Y-269379144D01*
X25826742Y-269088869D01*
X25589250Y-268786654D01*
X25366210Y-268473004D01*
X25158125Y-268148420D01*
X24965497Y-267813405D01*
X24788829Y-267468462D01*
X24628624Y-267114094D01*
X24485384Y-266750803D01*
X24359612Y-266379092D01*
X24251811Y-265999464D01*
X24162483Y-265612420D01*
X24092131Y-265218465D01*
X24041257Y-264818100D01*
X24010364Y-264411828D01*
X23999954Y-264000153D01*
X23999954Y-240000092D01*
X24010364Y-239588409D01*
X24041257Y-239182132D01*
X24092131Y-238781762D01*
X24162483Y-238387802D01*
X24251811Y-238000755D01*
X24359612Y-237621124D01*
X24485384Y-237249410D01*
X24628624Y-236886118D01*
X24788829Y-236531748D01*
X24965497Y-236186805D01*
X25158125Y-235851790D01*
X25366210Y-235527207D01*
X25589250Y-235213557D01*
X25826742Y-234911344D01*
X26078184Y-234621070D01*
X26343072Y-234343237D01*
X26620905Y-234078349D01*
X26911180Y-233826907D01*
X27213394Y-233589415D01*
X27527044Y-233366376D01*
X27851629Y-233158291D01*
X28186644Y-232965663D01*
X28531588Y-232788996D01*
X28885958Y-232628791D01*
X29249251Y-232485552D01*
X29620965Y-232359780D01*
X30000598Y-232251979D01*
X30387645Y-232162651D01*
X30781606Y-232092298D01*
X31181977Y-232041424D01*
X31588255Y-232010531D01*
X31999939Y-232000122D01*
X32411615Y-232010531D01*
X168878952Y-93120750D02*
X157070616Y-104929071D01*
X146654044Y-115345675D01*
X135884853Y-126114901D01*
X125115616Y-136884125D01*
X15999539Y-96000008D02*
X16527957Y-95471501D01*
X17336062Y-94663377D01*
X17999416Y-94000015D01*
X41999500Y-58000084D02*
X49216990Y-50782610D01*
X67982407Y-32017231D01*
X63999580Y-246000092D02*
X76047169Y-233952445D01*
X85999527Y-224000046D01*
X167279190Y-92720703D02*
X153279707Y-106720173D01*
X139013064Y-120986804D01*
X131879771Y-128120119D01*
X124746513Y-135253433D01*
X3999497Y-96000008D02*
X17049188Y-82950331D01*
X21201075Y-78798457D01*
X29600294Y-70399264D01*
X37999489Y-62000072D01*
X93999557Y-94000015D02*
X93380043Y-94619523D01*
X93113380Y-94886198D01*
X92694581Y-95305014D01*
X92275757Y-95723831D01*
X195274887Y-120724548D02*
X152736404Y-163263123D01*
X103999458Y-248000092D02*
X104822976Y-247176575D01*
X113607188Y-238392387D01*
X117999321Y-234000294D01*
X122391487Y-229608200D01*
X125999535Y-320000122D02*
X126680978Y-319321907D01*
X127345000Y-318661030D01*
X127677038Y-318330591D01*
X128009109Y-318000153D01*
X171999573Y-148000107D02*
X167731769Y-152267891D01*
X162865667Y-157133974D01*
X160432641Y-159567017D01*
X157999649Y-162000061D01*
X-517Y-70000061D02*
X22166151Y-47833388D01*
X37999489Y-32000046D01*
X155787903Y-92211861D02*
X124251198Y-123748672D01*
X139787064Y-98212524D02*
X135272612Y-102727026D01*
X130193848Y-107805847D01*
X171999573Y-150000092D02*
X159999786Y-162000061D01*
X195381470Y-134618271D02*
X166607910Y-163391830D01*
X77999496Y-274000122D02*
X81411214Y-270588408D01*
X83014995Y-268984612D01*
X85507253Y-266492334D01*
X87999535Y-264000061D01*
D18*
X224256868Y-299014461D02*
X224510395Y-299033739D01*
X224760235Y-299065486D01*
X225006076Y-299109389D01*
X225247604Y-299165132D01*
X225484504Y-299232404D01*
X225716463Y-299310890D01*
X225943168Y-299400276D01*
X226164305Y-299500249D01*
X226379561Y-299610495D01*
X226588620Y-299730700D01*
X226791171Y-299860552D01*
X226986899Y-299999735D01*
X227175490Y-300147938D01*
X227356631Y-300304844D01*
X227530008Y-300470142D01*
X227695308Y-300643518D01*
X227852217Y-300824657D01*
X228000420Y-301013247D01*
X228139605Y-301208972D01*
X228269458Y-301411521D01*
X228389665Y-301620579D01*
X228499913Y-301835832D01*
X228599887Y-302056967D01*
X228689274Y-302283670D01*
X228767761Y-302515628D01*
X228835034Y-302752527D01*
X228890778Y-302994052D01*
X228934681Y-303239891D01*
X228966428Y-303489730D01*
X228985707Y-303743255D01*
X228992203Y-304000153D01*
X228985707Y-304257056D01*
X228966428Y-304510586D01*
X228934681Y-304760430D01*
X228890778Y-305006274D01*
X228835034Y-305247805D01*
X228767761Y-305484708D01*
X228689274Y-305716670D01*
X228599887Y-305943378D01*
X228499913Y-306164517D01*
X228389665Y-306379775D01*
X228269458Y-306588836D01*
X228139605Y-306791389D01*
X228000420Y-306987118D01*
X227852217Y-307175711D01*
X227695308Y-307356853D01*
X227530008Y-307530231D01*
X227356631Y-307695532D01*
X227175490Y-307852442D01*
X226986899Y-308000646D01*
X226791171Y-308139832D01*
X226588620Y-308269685D01*
X226379561Y-308389893D01*
X226164305Y-308500141D01*
X225943168Y-308600115D01*
X225716463Y-308689503D01*
X225484504Y-308767990D01*
X225247604Y-308835262D01*
X225006076Y-308891007D01*
X224760235Y-308934910D01*
X224510395Y-308966657D01*
X224256868Y-308985936D01*
X223999969Y-308992432D01*
X223743069Y-308985936D01*
X223489541Y-308966657D01*
X223239700Y-308934910D01*
X222993858Y-308891007D01*
X222752329Y-308835262D01*
X222515428Y-308767990D01*
X222283468Y-308689503D01*
X222056762Y-308600115D01*
X221835624Y-308500141D01*
X221620368Y-308389893D01*
X221411308Y-308269685D01*
X221208757Y-308139832D01*
X221013028Y-308000646D01*
X220824437Y-307852442D01*
X220643295Y-307695532D01*
X220469917Y-307530231D01*
X220304617Y-307356853D01*
X220147708Y-307175711D01*
X219999504Y-306987118D01*
X219860319Y-306791389D01*
X219730466Y-306588836D01*
X219610259Y-306379775D01*
X219500011Y-306164517D01*
X219400037Y-305943378D01*
X219310649Y-305716670D01*
X219232163Y-305484708D01*
X219164890Y-305247805D01*
X219109146Y-305006274D01*
X219065243Y-304760430D01*
X219033495Y-304510586D01*
X219014217Y-304257056D01*
X219007721Y-304000153D01*
X219014217Y-303743255D01*
X219033495Y-303489730D01*
X219065243Y-303239891D01*
X219109146Y-302994052D01*
X219164890Y-302752527D01*
X219232163Y-302515628D01*
X219310649Y-302283670D01*
X219400037Y-302056967D01*
X219500011Y-301835832D01*
X219610259Y-301620579D01*
X219730466Y-301411521D01*
X219860319Y-301208972D01*
X219999504Y-301013247D01*
X220147708Y-300824657D01*
X220304617Y-300643518D01*
X220469917Y-300470142D01*
X220643295Y-300304844D01*
X220824437Y-300147938D01*
X221013028Y-299999735D01*
X221208757Y-299860552D01*
X221411308Y-299730700D01*
X221620368Y-299610495D01*
X221835624Y-299500249D01*
X222056762Y-299400276D01*
X222283468Y-299310890D01*
X222515428Y-299232404D01*
X222752329Y-299165132D01*
X222993858Y-299109389D01*
X223239700Y-299065486D01*
X223489541Y-299033739D01*
X223743069Y-299014461D01*
X223999969Y-299007965D01*
X224256868Y-299014461D01*
D10*
X105999466Y-66000061D02*
X118303238Y-53696220D01*
X51999897Y-208000061D02*
X55999973Y-208000061D01*
D19*
X113636403Y-145511451D02*
X113762944Y-145521074D01*
X113887646Y-145536920D01*
X114010351Y-145558833D01*
X114130904Y-145586656D01*
X114249147Y-145620234D01*
X114364925Y-145659408D01*
X114478080Y-145704024D01*
X114588455Y-145753923D01*
X114695896Y-145808950D01*
X114800244Y-145868948D01*
X114901343Y-145933761D01*
X114999037Y-146003231D01*
X115093169Y-146077203D01*
X115183582Y-146155519D01*
X115270121Y-146238024D01*
X115352627Y-146324560D01*
X115430946Y-146414971D01*
X115504919Y-146509101D01*
X115574391Y-146606792D01*
X115639206Y-146707889D01*
X115699205Y-146812234D01*
X115754234Y-146919672D01*
X115804135Y-147030045D01*
X115848751Y-147143198D01*
X115887927Y-147258972D01*
X115921505Y-147377213D01*
X115949329Y-147497763D01*
X115971243Y-147620465D01*
X115987089Y-147745164D01*
X115996712Y-147871702D01*
X115999954Y-147999924D01*
X115999954Y-148000275D01*
X115996712Y-148128496D01*
X115987089Y-148255034D01*
X115971243Y-148379733D01*
X115949329Y-148502436D01*
X115921505Y-148622986D01*
X115887927Y-148741226D01*
X115848751Y-148857001D01*
X115804135Y-148970153D01*
X115754234Y-149080526D01*
X115699205Y-149187964D01*
X115639206Y-149292309D01*
X115574391Y-149393406D01*
X115504919Y-149491098D01*
X115430946Y-149585227D01*
X115352627Y-149675638D01*
X115270121Y-149762175D01*
X115183582Y-149844679D01*
X115093169Y-149922996D01*
X114999037Y-149996967D01*
X114901343Y-150066438D01*
X114800244Y-150131250D01*
X114695896Y-150191248D01*
X114588455Y-150246275D01*
X114478080Y-150296175D01*
X114364925Y-150340790D01*
X114249147Y-150379965D01*
X114130904Y-150413542D01*
X114010351Y-150441365D01*
X113887646Y-150463278D01*
X113762944Y-150479124D01*
X113636403Y-150488747D01*
X113508179Y-150491989D01*
X110491470Y-150491989D01*
X110363247Y-150488747D01*
X110236706Y-150479124D01*
X110112005Y-150463278D01*
X109989300Y-150441365D01*
X109868748Y-150413542D01*
X109750505Y-150379965D01*
X109634728Y-150340790D01*
X109521574Y-150296175D01*
X109411198Y-150246275D01*
X109303758Y-150191248D01*
X109199411Y-150131250D01*
X109098312Y-150066438D01*
X109000618Y-149996967D01*
X108906486Y-149922996D01*
X108816073Y-149844679D01*
X108729535Y-149762175D01*
X108647029Y-149675638D01*
X108568710Y-149585227D01*
X108494737Y-149491098D01*
X108425265Y-149393406D01*
X108360451Y-149292309D01*
X108300451Y-149187964D01*
X108245423Y-149080526D01*
X108195522Y-148970153D01*
X108150905Y-148857001D01*
X108111730Y-148741226D01*
X108078152Y-148622986D01*
X108050327Y-148502436D01*
X108028414Y-148379733D01*
X108012567Y-148255034D01*
X108002945Y-148128496D01*
X107999702Y-148000275D01*
X107999702Y-147999924D01*
X108002945Y-147871702D01*
X108012567Y-147745164D01*
X108028414Y-147620465D01*
X108050327Y-147497763D01*
X108078152Y-147377213D01*
X108111730Y-147258972D01*
X108150905Y-147143198D01*
X108195522Y-147030045D01*
X108245423Y-146919672D01*
X108300451Y-146812234D01*
X108360451Y-146707889D01*
X108425265Y-146606792D01*
X108494737Y-146509101D01*
X108568710Y-146414971D01*
X108647029Y-146324560D01*
X108729535Y-146238024D01*
X108816073Y-146155519D01*
X108906486Y-146077203D01*
X109000618Y-146003231D01*
X109098312Y-145933761D01*
X109199411Y-145868948D01*
X109303758Y-145808950D01*
X109411198Y-145753923D01*
X109521574Y-145704024D01*
X109634728Y-145659408D01*
X109750505Y-145620234D01*
X109868748Y-145586656D01*
X109989300Y-145558833D01*
X110112005Y-145536920D01*
X110236706Y-145521074D01*
X110363247Y-145511451D01*
X110491470Y-145508209D01*
X113508179Y-145508209D01*
X113636403Y-145511451D01*
D10*
X39999493Y-58000084D02*
X48575426Y-49424155D01*
X57287485Y-40712101D01*
X61643488Y-36356073D01*
X65999458Y-32000046D01*
D11*
X95999931Y-216000046D02*
X95999931Y-208000061D01*
D10*
X189761536Y-148238266D02*
X180179565Y-157820160D01*
X31999466Y-96000008D02*
X32720679Y-95278788D01*
X33027841Y-94971639D01*
X33513669Y-94485827D01*
X33999474Y-94000015D01*
X85999527Y-32017231D02*
X85227043Y-32783017D01*
X85011268Y-32996928D01*
X84505341Y-33498483D01*
X83999390Y-34000038D01*
X81999512Y-250000076D02*
X84999523Y-247000077D01*
X87999535Y-244000076D01*
X71999603Y-320000122D02*
X94289204Y-297714220D01*
X114006599Y-278000092D01*
X63999580Y-96000008D02*
X63999954Y-96000092D01*
X63999580Y-296000061D02*
X71538802Y-288460839D01*
X76769184Y-283230467D01*
X81999512Y-278000092D01*
X190745575Y-109254074D02*
X141264374Y-158735306D01*
X65021225Y-236978348D02*
X69078705Y-232920834D01*
X76954987Y-225044495D01*
X186438736Y-103560822D02*
X172292313Y-117707248D01*
X143999466Y-146000092D01*
X108006065Y-278000092D02*
X85988677Y-300014031D01*
X65999458Y-320000122D01*
X195809357Y-124190125D02*
X173999451Y-146000092D01*
X63999580Y-256000061D02*
X83691873Y-236307751D01*
X95999565Y-224000046D01*
X49999401Y-94000015D02*
X49468024Y-94531478D01*
X48703395Y-95296123D01*
X47999523Y-96000008D01*
X195952499Y-126047203D02*
X188323990Y-133675694D01*
X185656799Y-136342890D01*
X180828206Y-141171489D01*
X175999588Y-146000092D01*
X31999466Y-94000015D02*
X29999460Y-96000008D01*
X177999466Y-150000092D02*
X174041771Y-153957856D01*
X168604836Y-159394790D01*
X164237122Y-163762497D01*
X26588072Y-292955109D02*
X26411726Y-292955109D01*
X26411726Y-291627930D01*
X26588072Y-291627930D01*
X26588072Y-292955109D01*
G36*
X26588072Y-292955109D02*
G01*
X26411726Y-292955109D01*
X26411726Y-291627930D01*
X26588072Y-291627930D01*
X26588072Y-292955109D01*
G37*
X47999908Y-104000008D02*
X48019898Y-100252166D01*
X48042576Y-96000031D01*
D20*
X145636528Y-273511482D02*
X145763071Y-273521104D01*
X145887774Y-273536950D01*
X146010481Y-273558862D01*
X146131035Y-273586685D01*
X146249279Y-273620261D01*
X146365057Y-273659435D01*
X146478212Y-273704050D01*
X146588588Y-273753948D01*
X146696028Y-273808974D01*
X146800375Y-273868971D01*
X146901474Y-273933782D01*
X146999167Y-274003252D01*
X147093297Y-274077222D01*
X147183710Y-274155537D01*
X147270247Y-274238041D01*
X147352752Y-274324576D01*
X147431069Y-274414986D01*
X147505041Y-274509115D01*
X147574511Y-274606806D01*
X147639324Y-274707902D01*
X147699322Y-274812246D01*
X147754349Y-274919684D01*
X147804248Y-275030056D01*
X147848863Y-275143209D01*
X147888038Y-275258983D01*
X147921615Y-275377224D01*
X147949438Y-275497774D01*
X147971351Y-275620477D01*
X147987197Y-275745177D01*
X147996819Y-275871716D01*
X148000061Y-275999939D01*
X148000061Y-276000275D01*
X147996819Y-276128497D01*
X147987197Y-276255037D01*
X147971351Y-276379738D01*
X147949438Y-276502442D01*
X147921615Y-276622994D01*
X147888038Y-276741236D01*
X147848863Y-276857013D01*
X147804248Y-276970167D01*
X147754349Y-277080542D01*
X147699322Y-277187981D01*
X147639324Y-277292329D01*
X147574511Y-277393427D01*
X147505041Y-277491121D01*
X147431069Y-277585252D01*
X147352752Y-277675665D01*
X147270247Y-277762203D01*
X147183710Y-277844710D01*
X147093297Y-277923028D01*
X146999167Y-277997001D01*
X146901474Y-278066473D01*
X146800375Y-278131287D01*
X146696028Y-278191286D01*
X146588588Y-278246315D01*
X146478212Y-278296216D01*
X146365057Y-278340832D01*
X146249279Y-278380008D01*
X146131035Y-278413586D01*
X146010481Y-278441410D01*
X145887774Y-278463323D01*
X145763071Y-278479170D01*
X145636528Y-278488793D01*
X145508301Y-278492035D01*
X142491806Y-278492035D01*
X142363582Y-278488793D01*
X142237040Y-278479170D01*
X142112338Y-278463323D01*
X141989632Y-278441410D01*
X141869079Y-278413586D01*
X141750835Y-278380008D01*
X141635056Y-278340832D01*
X141521900Y-278296216D01*
X141411523Y-278246315D01*
X141304082Y-278191286D01*
X141199733Y-278131287D01*
X141098632Y-278066473D01*
X141000937Y-277997001D01*
X140906803Y-277923028D01*
X140816389Y-277844710D01*
X140729849Y-277762203D01*
X140647341Y-277675665D01*
X140569021Y-277585252D01*
X140495046Y-277491121D01*
X140425572Y-277393427D01*
X140360757Y-277292329D01*
X140300756Y-277187981D01*
X140245726Y-277080542D01*
X140195824Y-276970167D01*
X140151207Y-276857013D01*
X140112030Y-276741236D01*
X140078451Y-276622994D01*
X140050626Y-276502442D01*
X140028712Y-276379738D01*
X140012865Y-276255037D01*
X140003242Y-276128497D01*
X140000000Y-276000275D01*
X140000000Y-275999939D01*
X140003242Y-275871716D01*
X140012865Y-275745177D01*
X140028712Y-275620477D01*
X140050626Y-275497774D01*
X140078451Y-275377224D01*
X140112030Y-275258983D01*
X140151207Y-275143209D01*
X140195824Y-275030056D01*
X140245726Y-274919684D01*
X140300756Y-274812246D01*
X140360757Y-274707902D01*
X140425572Y-274606806D01*
X140495046Y-274509115D01*
X140569021Y-274414986D01*
X140647341Y-274324576D01*
X140729849Y-274238041D01*
X140816389Y-274155537D01*
X140906803Y-274077222D01*
X141000937Y-274003252D01*
X141098632Y-273933782D01*
X141199733Y-273868971D01*
X141304082Y-273808974D01*
X141411523Y-273753948D01*
X141521900Y-273704050D01*
X141635056Y-273659435D01*
X141750835Y-273620261D01*
X141869079Y-273586685D01*
X141989632Y-273558862D01*
X142112338Y-273536950D01*
X142237040Y-273521104D01*
X142363582Y-273511482D01*
X142491806Y-273508240D01*
X145508301Y-273508240D01*
X145636528Y-273511482D01*
D10*
X13999533Y-90000015D02*
X19879116Y-84120438D01*
X22839726Y-81159851D01*
X29419655Y-74579957D01*
X32709588Y-71290009D01*
X35999481Y-68000061D01*
X87999535Y-38000038D02*
X85150229Y-40849347D01*
X60574900Y-65424682D01*
X48287206Y-77712350D01*
X35999481Y-90000015D01*
D21*
X-69Y-288000092D02*
X63999931Y-288000092D01*
D10*
X83999390Y-250000076D02*
X85476550Y-248523002D01*
X86738083Y-247261547D01*
X87368824Y-246630820D01*
X87999535Y-246000092D01*
X103999458Y-240000092D02*
X107425486Y-236574062D01*
X111257683Y-232741794D01*
X114517922Y-229481492D01*
X117778206Y-226221191D01*
X183376266Y-100623405D02*
X163977923Y-120021713D01*
X155642443Y-128357194D01*
X132638412Y-151361206D01*
X103999458Y-54000004D02*
X92774811Y-65224675D01*
X82552639Y-75446820D01*
X72276016Y-85723416D01*
X61999443Y-96000008D01*
X13999533Y-34000038D02*
X14779430Y-33220139D01*
X15015931Y-32983646D01*
X15507747Y-32491845D01*
X15999539Y-32000046D01*
X101999451Y-62000072D02*
X92912928Y-71086672D01*
X79671217Y-84328387D01*
X67999596Y-96000008D01*
X189135605Y-106864105D02*
X147999741Y-148000107D01*
X39999493Y-54000004D02*
X-517Y-94000015D01*
X-517Y-68000061D02*
X2768730Y-65230821D01*
X19384150Y-48615432D01*
X27691831Y-40307739D01*
X35999481Y-32000046D01*
X103999458Y-246000092D02*
X113780133Y-236219437D01*
X121352280Y-228647308D01*
X141999588Y-150000092D02*
X140481339Y-151518365D01*
X138558222Y-153441517D01*
X137596691Y-154403094D01*
X136635193Y-155364670D01*
X63999580Y-254000076D02*
X93999557Y-224000046D01*
X163817764Y-92182045D02*
X150177297Y-105822523D01*
X143032467Y-112967338D01*
X133620244Y-122379543D01*
X124208046Y-131791748D01*
X95999565Y-274000122D02*
X96810320Y-273189391D01*
X97930320Y-272069326D01*
X98308853Y-271690765D01*
X35999481Y-92000023D02*
X56543764Y-71455764D01*
X75861522Y-52138030D01*
X85520376Y-42479163D01*
X95179199Y-32820297D01*
X69999474Y-32017231D02*
X69320812Y-32690072D01*
X68660161Y-33345056D01*
X68329862Y-33672547D01*
X67999596Y-34000038D01*
X127999672Y-270000153D02*
X115862292Y-282137448D01*
X102109617Y-295890095D01*
X90054581Y-307945110D01*
X77999496Y-320000122D01*
D22*
X98606930Y-145511451D02*
X98733471Y-145521074D01*
X98858172Y-145536920D01*
X98980877Y-145558833D01*
X99101429Y-145586656D01*
X99219671Y-145620234D01*
X99335448Y-145659408D01*
X99448601Y-145704024D01*
X99558976Y-145753923D01*
X99666415Y-145808950D01*
X99770761Y-145868948D01*
X99871859Y-145933761D01*
X99969551Y-146003231D01*
X100063681Y-146077203D01*
X100154093Y-146155519D01*
X100240629Y-146238024D01*
X100323134Y-146324560D01*
X100401451Y-146414971D01*
X100475423Y-146509101D01*
X100544893Y-146606792D01*
X100609706Y-146707889D01*
X100669704Y-146812234D01*
X100724731Y-146919672D01*
X100774630Y-147030045D01*
X100819245Y-147143198D01*
X100858420Y-147258972D01*
X100891997Y-147377213D01*
X100919820Y-147497763D01*
X100941733Y-147620465D01*
X100957579Y-147745164D01*
X100967201Y-147871702D01*
X100970444Y-147999924D01*
X100970444Y-148000275D01*
X100967201Y-148128496D01*
X100957579Y-148255034D01*
X100941733Y-148379733D01*
X100919820Y-148502436D01*
X100891997Y-148622986D01*
X100858420Y-148741226D01*
X100819245Y-148857001D01*
X100774630Y-148970153D01*
X100724731Y-149080526D01*
X100669704Y-149187964D01*
X100609706Y-149292309D01*
X100544893Y-149393406D01*
X100475423Y-149491098D01*
X100401451Y-149585227D01*
X100323134Y-149675638D01*
X100240629Y-149762175D01*
X100154093Y-149844679D01*
X100063681Y-149922996D01*
X99969551Y-149996967D01*
X99871859Y-150066438D01*
X99770761Y-150131250D01*
X99666415Y-150191248D01*
X99558976Y-150246275D01*
X99448601Y-150296175D01*
X99335448Y-150340790D01*
X99219671Y-150379965D01*
X99101429Y-150413542D01*
X98980877Y-150441365D01*
X98858172Y-150463278D01*
X98733471Y-150479124D01*
X98606930Y-150488747D01*
X98478706Y-150491989D01*
X93521156Y-150491989D01*
X93392936Y-150488747D01*
X93266398Y-150479124D01*
X93141699Y-150463278D01*
X93018996Y-150441365D01*
X92898446Y-150413542D01*
X92780206Y-150379965D01*
X92664430Y-150340790D01*
X92551278Y-150296175D01*
X92440904Y-150246275D01*
X92333465Y-150191248D01*
X92229119Y-150131250D01*
X92128021Y-150066438D01*
X92030328Y-149996967D01*
X91936198Y-149922996D01*
X91845785Y-149844679D01*
X91759248Y-149762175D01*
X91676742Y-149675638D01*
X91598424Y-149585227D01*
X91524451Y-149491098D01*
X91454980Y-149393406D01*
X91390166Y-149292309D01*
X91330167Y-149187964D01*
X91275139Y-149080526D01*
X91225238Y-148970153D01*
X91180622Y-148857001D01*
X91141446Y-148741226D01*
X91107868Y-148622986D01*
X91080044Y-148502436D01*
X91058130Y-148379733D01*
X91042284Y-148255034D01*
X91032661Y-148128496D01*
X91029419Y-148000275D01*
X91029419Y-147999924D01*
X91032661Y-147871702D01*
X91042284Y-147745164D01*
X91058130Y-147620465D01*
X91080044Y-147497763D01*
X91107868Y-147377213D01*
X91141446Y-147258972D01*
X91180622Y-147143198D01*
X91225238Y-147030045D01*
X91275139Y-146919672D01*
X91330167Y-146812234D01*
X91390166Y-146707889D01*
X91454980Y-146606792D01*
X91524451Y-146509101D01*
X91598424Y-146414971D01*
X91676742Y-146324560D01*
X91759248Y-146238024D01*
X91845785Y-146155519D01*
X91936198Y-146077203D01*
X92030328Y-146003231D01*
X92128021Y-145933761D01*
X92229119Y-145868948D01*
X92333465Y-145808950D01*
X92440904Y-145753923D01*
X92551278Y-145704024D01*
X92664430Y-145659408D01*
X92780206Y-145620234D01*
X92898446Y-145586656D01*
X93018996Y-145558833D01*
X93141699Y-145536920D01*
X93266398Y-145521074D01*
X93392936Y-145511451D01*
X93521156Y-145508209D01*
X98478706Y-145508209D01*
X98606930Y-145511451D01*
D23*
X174844818Y-276000031D02*
X174844818Y-274708344D01*
D10*
X-517Y-38000038D02*
X953904Y-37045679D01*
X1476749Y-36522858D01*
X1999619Y-36000038D01*
X93999557Y-90000015D02*
X120000290Y-63999306D01*
X63999580Y-288000092D02*
X63999931Y-288000092D01*
X-517Y-86000031D02*
X19888446Y-66111037D01*
X27696865Y-58302619D01*
X40848151Y-45151332D01*
X53999413Y-32000046D01*
X194896622Y-119103004D02*
X183303940Y-130695719D01*
X172673185Y-141326454D01*
X161891905Y-152107716D01*
X151110672Y-162888977D01*
X21999432Y-96000008D02*
X42285158Y-75714300D01*
X61142309Y-56857168D01*
X70570857Y-47428603D01*
X79999374Y-38000038D01*
X97999565Y-90000015D02*
X105899814Y-82099699D01*
X112800345Y-75199105D01*
X116250637Y-71748809D01*
X119700958Y-68298515D01*
X195735580Y-132264023D02*
X189549171Y-138450480D01*
X187899706Y-140099950D01*
X183949643Y-144050028D01*
X179999603Y-148000107D01*
X139999710Y-148000107D02*
X134550949Y-153448807D01*
X185460510Y-102539154D02*
X173756460Y-114243260D01*
X157628423Y-130371277D01*
X141999588Y-146000092D01*
X128009109Y-278000092D02*
X85999527Y-320000122D01*
X69999474Y-96000008D02*
X71494426Y-94505071D01*
X71992098Y-94007395D01*
X72995777Y-93003709D01*
X73999481Y-92000023D01*
X63999580Y-314000122D02*
X78094976Y-299904728D01*
X84594913Y-293404775D01*
X99999573Y-278000092D01*
X21999432Y-32000046D02*
X21353941Y-32645544D01*
X20676704Y-33322791D01*
X20338112Y-33661415D01*
X19999554Y-34000038D01*
X43999508Y-50000015D02*
X48678927Y-45320560D01*
X53130386Y-40869118D01*
X57564938Y-36434583D01*
X61999443Y-32000046D01*
X65999458Y-36000038D02*
X55142340Y-46857203D01*
X49570912Y-52428644D01*
X43999508Y-58000084D01*
X-517Y-52000004D02*
X5331499Y-46668068D01*
X13481018Y-38518554D01*
X13999533Y-38000038D01*
X195580429Y-122419151D02*
X154437729Y-163561996D01*
X103999458Y-262000061D02*
X110124873Y-255874678D01*
X115738097Y-250261434D01*
X121586126Y-244413384D01*
X127434204Y-238565338D01*
D24*
X226908656Y-273511482D02*
X227035201Y-273521104D01*
X227159906Y-273536950D01*
X227282615Y-273558862D01*
X227403170Y-273586685D01*
X227521414Y-273620261D01*
X227637193Y-273659435D01*
X227750348Y-273704050D01*
X227860723Y-273753948D01*
X227968163Y-273808974D01*
X228072510Y-273868971D01*
X228173607Y-273933782D01*
X228271299Y-274003252D01*
X228365429Y-274077222D01*
X228455840Y-274155537D01*
X228542376Y-274238041D01*
X228624879Y-274324576D01*
X228703195Y-274414986D01*
X228777165Y-274509115D01*
X228846634Y-274606806D01*
X228911445Y-274707902D01*
X228971441Y-274812246D01*
X229026467Y-274919684D01*
X229076365Y-275030056D01*
X229120978Y-275143209D01*
X229160152Y-275258983D01*
X229193728Y-275377224D01*
X229221550Y-275497774D01*
X229243462Y-275620477D01*
X229259307Y-275745177D01*
X229268929Y-275871716D01*
X229272171Y-275999939D01*
X229272171Y-276000275D01*
X229268929Y-276128497D01*
X229259307Y-276255037D01*
X229243462Y-276379738D01*
X229221550Y-276502442D01*
X229193728Y-276622994D01*
X229160152Y-276741236D01*
X229120978Y-276857013D01*
X229076365Y-276970167D01*
X229026467Y-277080542D01*
X228971441Y-277187981D01*
X228911445Y-277292329D01*
X228846634Y-277393427D01*
X228777165Y-277491121D01*
X228703195Y-277585252D01*
X228624879Y-277675665D01*
X228542376Y-277762203D01*
X228455840Y-277844710D01*
X228365429Y-277923028D01*
X228271299Y-277997001D01*
X228173607Y-278066473D01*
X228072510Y-278131287D01*
X227968163Y-278191286D01*
X227860723Y-278246315D01*
X227750348Y-278296216D01*
X227637193Y-278340832D01*
X227521414Y-278380008D01*
X227403170Y-278413586D01*
X227282615Y-278441410D01*
X227159906Y-278463323D01*
X227035201Y-278479170D01*
X226908656Y-278488793D01*
X226780426Y-278492035D01*
X221219620Y-278492035D01*
X221091402Y-278488793D01*
X220964867Y-278479170D01*
X220840171Y-278463323D01*
X220717470Y-278441410D01*
X220596921Y-278413586D01*
X220478681Y-278380008D01*
X220362906Y-278340832D01*
X220249753Y-278296216D01*
X220139379Y-278246315D01*
X220031940Y-278191286D01*
X219927593Y-278131287D01*
X219826494Y-278066473D01*
X219728800Y-277997001D01*
X219634667Y-277923028D01*
X219544253Y-277844710D01*
X219457714Y-277762203D01*
X219375206Y-277675665D01*
X219296886Y-277585252D01*
X219222911Y-277491121D01*
X219153438Y-277393427D01*
X219088622Y-277292329D01*
X219028620Y-277187981D01*
X218973590Y-277080542D01*
X218923687Y-276970167D01*
X218879069Y-276857013D01*
X218839892Y-276741236D01*
X218806312Y-276622994D01*
X218778487Y-276502442D01*
X218756572Y-276379738D01*
X218740725Y-276255037D01*
X218731102Y-276128497D01*
X218727859Y-276000275D01*
X218727859Y-275999939D01*
X218731102Y-275871716D01*
X218740725Y-275745177D01*
X218756572Y-275620477D01*
X218778487Y-275497774D01*
X218806312Y-275377224D01*
X218839892Y-275258983D01*
X218879069Y-275143209D01*
X218923687Y-275030056D01*
X218973590Y-274919684D01*
X219028620Y-274812246D01*
X219088622Y-274707902D01*
X219153438Y-274606806D01*
X219222911Y-274509115D01*
X219296886Y-274414986D01*
X219375206Y-274324576D01*
X219457714Y-274238041D01*
X219544253Y-274155537D01*
X219634667Y-274077222D01*
X219728800Y-274003252D01*
X219826494Y-273933782D01*
X219927593Y-273868971D01*
X220031940Y-273808974D01*
X220139379Y-273753948D01*
X220249753Y-273704050D01*
X220362906Y-273659435D01*
X220478681Y-273620261D01*
X220596921Y-273586685D01*
X220717470Y-273558862D01*
X220840171Y-273536950D01*
X220964867Y-273521104D01*
X221091402Y-273511482D01*
X221219620Y-273508240D01*
X226780426Y-273508240D01*
X226908656Y-273511482D01*
D25*
X243280510Y-273511302D02*
X243403231Y-273520431D01*
X243524912Y-273535543D01*
X243645347Y-273556554D01*
X243764331Y-273583379D01*
X243881661Y-273615934D01*
X243997132Y-273654134D01*
X244110538Y-273697895D01*
X244221677Y-273747132D01*
X244330342Y-273801761D01*
X244436330Y-273861698D01*
X244539435Y-273926857D01*
X244639454Y-273997156D01*
X244736182Y-274072508D01*
X244829414Y-274152830D01*
X244918945Y-274238037D01*
X245004148Y-274327570D01*
X245084466Y-274420802D01*
X245159817Y-274517527D01*
X245230114Y-274617541D01*
X245295275Y-274720641D01*
X245355213Y-274826622D01*
X245409844Y-274935280D01*
X245459084Y-275046410D01*
X245502847Y-275159808D01*
X245541051Y-275275269D01*
X245573609Y-275392591D01*
X245600437Y-275511567D01*
X245621450Y-275631994D01*
X245636565Y-275753668D01*
X245645696Y-275876385D01*
X245648758Y-275999939D01*
X245648758Y-276000275D01*
X245645696Y-276123835D01*
X245636565Y-276246557D01*
X245621450Y-276368236D01*
X245600437Y-276488669D01*
X245573609Y-276607651D01*
X245541051Y-276724977D01*
X245502847Y-276840444D01*
X245459084Y-276953846D01*
X245409844Y-277064980D01*
X245355213Y-277173641D01*
X245295275Y-277279625D01*
X245230114Y-277382728D01*
X245159817Y-277482745D01*
X245084466Y-277579472D01*
X245004148Y-277672704D01*
X244918945Y-277762238D01*
X244829414Y-277847440D01*
X244736182Y-277927758D01*
X244639454Y-278003108D01*
X244539435Y-278073404D01*
X244436330Y-278138563D01*
X244330342Y-278198500D01*
X244221677Y-278253130D01*
X244110538Y-278302368D01*
X243997132Y-278346131D01*
X243881661Y-278384332D01*
X243764331Y-278416889D01*
X243645347Y-278443716D01*
X243524912Y-278464729D01*
X243403231Y-278479842D01*
X243280510Y-278488973D01*
X243156952Y-278492035D01*
X236842957Y-278492035D01*
X236719399Y-278488973D01*
X236596679Y-278479842D01*
X236475000Y-278464729D01*
X236354568Y-278443716D01*
X236235586Y-278416889D01*
X236118259Y-278384332D01*
X236002790Y-278346131D01*
X235889385Y-278302368D01*
X235778248Y-278253130D01*
X235669583Y-278198500D01*
X235563594Y-278138563D01*
X235460486Y-278073404D01*
X235360463Y-278003108D01*
X235263729Y-277927758D01*
X235170490Y-277847440D01*
X235080948Y-277762238D01*
X234995758Y-277672704D01*
X234915449Y-277579472D01*
X234840106Y-277482745D01*
X234769813Y-277382728D01*
X234704656Y-277279625D01*
X234644719Y-277173641D01*
X234590087Y-277064980D01*
X234540846Y-276953846D01*
X234497079Y-276840444D01*
X234458873Y-276724977D01*
X234426312Y-276607651D01*
X234399480Y-276488669D01*
X234378463Y-276368236D01*
X234363346Y-276246557D01*
X234354214Y-276123835D01*
X234351151Y-276000275D01*
X234351151Y-275999939D01*
X234354214Y-275876385D01*
X234363346Y-275753668D01*
X234378463Y-275631994D01*
X234399480Y-275511567D01*
X234426312Y-275392591D01*
X234458873Y-275275269D01*
X234497079Y-275159808D01*
X234540846Y-275046410D01*
X234590087Y-274935280D01*
X234644719Y-274826622D01*
X234704656Y-274720641D01*
X234769813Y-274617541D01*
X234840106Y-274517527D01*
X234915449Y-274420802D01*
X234995758Y-274327570D01*
X235080948Y-274238037D01*
X235170490Y-274152830D01*
X235263729Y-274072508D01*
X235360463Y-273997156D01*
X235460486Y-273926857D01*
X235563594Y-273861698D01*
X235669583Y-273801761D01*
X235778248Y-273747132D01*
X235889385Y-273697895D01*
X236002790Y-273654134D01*
X236118259Y-273615934D01*
X236235586Y-273583379D01*
X236354568Y-273556554D01*
X236475000Y-273535543D01*
X236596679Y-273520431D01*
X236719399Y-273511302D01*
X236842957Y-273508240D01*
X243156952Y-273508240D01*
X243280510Y-273511302D01*
D10*
X127999672Y-262000061D02*
X124723590Y-265276112D01*
X122973071Y-267026593D01*
X119486238Y-270513363D01*
X117742853Y-272256744D01*
X115999504Y-274000122D01*
X51999535Y-90000015D02*
X105071487Y-36928066D01*
X181142807Y-98856674D02*
X164341984Y-115657558D01*
X147602033Y-132397570D01*
X139232084Y-140767579D01*
X130862167Y-149137589D01*
X85999527Y-96000008D02*
X95276522Y-86722978D01*
X103023929Y-78975582D01*
X111502509Y-70497015D01*
X119981041Y-62018448D01*
X43999508Y-90000015D02*
X58867802Y-75131760D01*
X81583989Y-52415516D01*
X99737961Y-34261490D01*
X63999580Y-276000122D02*
X68956116Y-271043585D01*
X78477861Y-261521829D01*
X83238710Y-256760953D01*
X87999535Y-252000076D01*
X1999619Y-38000038D02*
X-517Y-40000027D01*
X89999542Y-274000122D02*
X92695755Y-271303741D01*
X107999474Y-320000122D02*
X113388677Y-314613441D01*
X120149750Y-307855627D01*
X122779931Y-305226728D01*
X128009109Y-300000092D01*
X101670143Y-234329468D02*
X111786064Y-224213486D01*
X27999582Y-96000008D02*
X28525088Y-95474413D01*
X29334435Y-94665047D01*
X29999460Y-94000015D01*
X83999390Y-276000122D02*
X90335693Y-269664032D01*
X19999554Y-96000008D02*
X35500214Y-80499283D01*
X58862433Y-57137081D01*
X77999496Y-38000038D01*
X77999496Y-94000015D02*
X77213126Y-94786319D01*
X76969889Y-95029546D01*
X75999359Y-96000008D01*
X128009109Y-274000122D02*
X114776678Y-287229739D01*
X95928664Y-306073849D01*
X81999512Y-320000122D01*
X187374344Y-104625427D02*
X145999603Y-146000092D01*
X47999523Y-32000046D02*
X29128774Y-50870770D01*
X23900738Y-56098807D01*
X11950122Y-68049422D01*
X-517Y-80000038D01*
X83999390Y-32017231D02*
X81999512Y-34000038D01*
X-517Y-88000023D02*
X1958678Y-86040833D01*
X18979125Y-69020420D01*
X27489319Y-60510213D01*
X35999481Y-52000004D01*
X63999580Y-300000092D02*
X68605662Y-295394026D01*
X78302635Y-285697077D01*
X83151097Y-280848602D01*
X87999535Y-276000122D01*
X63999580Y-290000122D02*
X67684154Y-286315490D01*
X70137575Y-283862001D01*
X73068444Y-280931052D01*
X75999359Y-278000092D01*
X63999580Y-302000061D02*
X87999535Y-278000092D01*
X63999580Y-292000092D02*
X67626095Y-288373491D01*
X72197311Y-283802262D01*
X73785567Y-282214012D01*
X77999496Y-278000092D01*
X63999580Y-272000122D02*
X69257299Y-266742355D01*
X72666212Y-263333439D01*
X77332886Y-258666757D01*
X81999512Y-254000076D01*
X103999458Y-258000061D02*
X111519441Y-250480091D01*
X118974033Y-243025512D01*
X122701356Y-239298220D01*
X126428711Y-235570923D01*
X159999954Y-232000122D02*
X159999954Y-224000046D01*
X115999908Y-208000061D02*
X119999985Y-208000061D01*
X103999458Y-70000061D02*
X96811906Y-77187586D01*
X93419710Y-80579752D01*
X88709539Y-85289884D01*
X83999390Y-90000015D01*
X93999557Y-278004639D02*
X89955686Y-282047876D01*
X76977589Y-295023956D01*
X70488570Y-301512003D01*
X63999580Y-308000061D01*
X11999525Y-32000046D02*
X11354204Y-32645375D01*
X10676882Y-33322706D01*
X10338248Y-33661372D01*
X9999647Y-34000038D01*
D26*
X176550613Y-160000076D02*
X255999893Y-160000076D01*
D10*
X45999645Y-90000015D02*
X67596541Y-68403084D01*
X73579224Y-62420400D01*
X87369027Y-48630590D01*
X101158806Y-34840782D01*
D13*
G36*
X177603531Y-277291809D02*
G01*
X176706909Y-277291809D01*
X176706909Y-275964172D01*
X177603531Y-275964172D01*
X177603531Y-277291809D01*
G37*
D10*
X175999588Y-150000092D02*
X163999802Y-162000061D01*
X103999458Y-66000061D02*
X107838462Y-62161034D01*
X110657361Y-59342151D01*
X114219228Y-55780302D01*
X117781044Y-52218452D01*
X19999554Y-32000046D02*
X19260177Y-32739359D01*
X18984778Y-33014747D01*
X18492109Y-33507393D01*
X17999416Y-34000038D01*
X103999458Y-50000015D02*
X106036297Y-47963146D01*
X109042310Y-44957198D01*
X111621086Y-42378483D01*
X194461639Y-117537865D02*
X175791333Y-136208256D01*
X163999542Y-148000107D01*
X37999489Y-66000061D02*
X41999500Y-62000072D01*
X81999512Y-96000008D02*
X83999390Y-94000015D01*
D27*
X33643551Y-292291779D02*
X33643511Y-292280200D01*
X33643391Y-292268631D01*
X33643192Y-292257071D01*
X33642912Y-292245520D01*
X33642553Y-292233980D01*
X33642114Y-292222450D01*
X33641596Y-292210930D01*
X33640998Y-292199421D01*
X33640321Y-292187923D01*
X33639565Y-292176437D01*
X33638729Y-292164962D01*
X33637814Y-292153499D01*
X33636819Y-292142049D01*
X33635746Y-292130611D01*
X33634593Y-292119185D01*
X33633362Y-292107773D01*
X33632051Y-292096375D01*
X33630662Y-292084990D01*
X33629194Y-292073620D01*
X33627647Y-292062264D01*
X33626022Y-292050922D01*
X33624318Y-292039596D01*
X33622535Y-292028285D01*
X33620674Y-292016990D01*
X33618735Y-292005711D01*
X33616718Y-291994449D01*
X33614622Y-291983204D01*
X33612448Y-291971975D01*
X33610196Y-291960764D01*
X33607867Y-291949572D01*
X33605459Y-291938397D01*
X33602974Y-291927241D01*
X33600411Y-291916104D01*
X33597770Y-291904987D01*
X33595052Y-291893889D01*
X33592257Y-291882811D01*
X33589385Y-291871754D01*
X33586435Y-291860718D01*
X33583408Y-291849704D01*
X33580305Y-291838711D01*
X33577124Y-291827740D01*
X33573867Y-291816792D01*
X33570534Y-291805867D01*
X33567123Y-291794965D01*
X33563637Y-291784087D01*
X33560074Y-291773233D01*
X33556436Y-291762404D01*
X33552721Y-291751600D01*
X33548931Y-291740822D01*
X33545065Y-291730069D01*
X33541124Y-291719343D01*
X33537107Y-291708644D01*
X33533015Y-291697972D01*
X33528849Y-291687327D01*
X33524607Y-291676711D01*
X33520291Y-291666124D01*
X33515900Y-291655565D01*
X33511435Y-291645037D01*
X33506896Y-291634538D01*
X33502283Y-291624070D01*
X33497596Y-291613632D01*
X33492836Y-291603226D01*
X33488002Y-291592852D01*
X33483095Y-291582511D01*
X33478116Y-291572202D01*
X33473063Y-291561926D01*
X33467938Y-291551684D01*
X33462741Y-291541477D01*
X33457472Y-291531304D01*
X33452131Y-291521167D01*
X33446719Y-291511065D01*
X33441235Y-291501000D01*
X33435680Y-291490971D01*
X33430055Y-291480980D01*
X33424358Y-291471026D01*
X33418592Y-291461110D01*
X33412756Y-291451233D01*
X33406849Y-291441396D01*
X33400874Y-291431598D01*
X33394829Y-291421840D01*
X33388715Y-291412123D01*
X33382533Y-291402447D01*
X33376283Y-291392812D01*
X33369964Y-291383220D01*
X33363578Y-291373671D01*
X33357125Y-291364165D01*
X33350605Y-291354702D01*
X33344018Y-291345284D01*
X33337364Y-291335910D01*
X33330645Y-291326582D01*
X33323860Y-291317299D01*
X33317009Y-291308062D01*
X33310094Y-291298872D01*
X33303114Y-291289729D01*
X33296070Y-291280634D01*
X33288961Y-291271587D01*
X33281790Y-291262589D01*
X33274555Y-291253639D01*
X33267258Y-291244740D01*
X33259898Y-291235890D01*
X33252476Y-291227091D01*
X33244992Y-291218343D01*
X33237448Y-291209646D01*
X33229842Y-291201002D01*
X33222177Y-291192410D01*
X33214451Y-291183871D01*
X33206666Y-291175386D01*
X33198822Y-291166954D01*
X33190919Y-291158577D01*
X33182957Y-291150254D01*
X33174938Y-291141987D01*
X33166862Y-291133776D01*
X33158728Y-291125621D01*
X33154641Y-291121564D01*
X33150539Y-291117522D01*
X33146423Y-291113494D01*
X33142293Y-291109480D01*
X33138149Y-291105481D01*
X33133991Y-291101496D01*
X33129820Y-291097526D01*
X33125634Y-291093570D01*
X33121436Y-291089629D01*
X33117223Y-291085703D01*
X33112997Y-291081791D01*
X33108757Y-291077894D01*
X33104504Y-291074012D01*
X33100238Y-291070144D01*
X33095958Y-291066292D01*
X33091665Y-291062455D01*
X33087359Y-291058632D01*
X33083040Y-291054825D01*
X33078708Y-291051033D01*
X33074362Y-291047255D01*
X33070004Y-291043494D01*
X33065632Y-291039747D01*
X33061248Y-291036016D01*
X33056851Y-291032300D01*
X33052442Y-291028600D01*
X33048019Y-291024915D01*
X33043584Y-291021246D01*
X33039137Y-291017592D01*
X33034677Y-291013954D01*
X33030204Y-291010331D01*
X33025720Y-291006724D01*
X33021222Y-291003133D01*
X33016713Y-290999558D01*
X33012191Y-290995999D01*
X33007658Y-290992455D01*
X33003112Y-290988928D01*
X32998554Y-290985416D01*
X32993984Y-290981921D01*
X32989403Y-290978442D01*
X32984809Y-290974978D01*
X32980205Y-290971532D01*
X32975587Y-290968101D01*
X32970959Y-290964687D01*
X32966319Y-290961288D01*
X32961668Y-290957907D01*
X32957004Y-290954541D01*
X32952330Y-290951193D01*
X32947644Y-290947860D01*
X32942948Y-290944544D01*
X32938239Y-290941245D01*
X32933520Y-290937962D01*
X32928789Y-290934696D01*
X32924049Y-290931447D01*
X32919296Y-290928214D01*
X32914533Y-290924999D01*
X32909759Y-290921800D01*
X32904974Y-290918618D01*
X32900178Y-290915453D01*
X32895373Y-290912305D01*
X32890555Y-290909174D01*
X32885729Y-290906060D01*
X32880890Y-290902962D01*
X32876043Y-290899883D01*
X32871184Y-290896820D01*
X32866316Y-290893774D01*
X32861437Y-290890746D01*
X32856548Y-290887735D01*
X32851648Y-290884741D01*
X32846740Y-290881765D01*
X32841820Y-290878805D01*
X32836892Y-290875864D01*
X32831953Y-290872939D01*
X32827005Y-290870033D01*
X32822046Y-290867143D01*
X32817079Y-290864272D01*
X32812101Y-290861417D01*
X32807114Y-290858581D01*
X32802117Y-290855761D01*
X32797112Y-290852961D01*
X32792097Y-290850177D01*
X32787073Y-290847411D01*
X32782039Y-290844663D01*
X32776997Y-290841933D01*
X32771944Y-290839220D01*
X32766884Y-290836526D01*
X32761813Y-290833849D01*
X32756735Y-290831191D01*
X32751647Y-290828550D01*
X32746552Y-290825927D01*
X32741446Y-290823322D01*
X32736333Y-290820736D01*
X32731210Y-290818167D01*
X32726080Y-290815617D01*
X32720940Y-290813084D01*
X32715793Y-290810570D01*
X32710636Y-290808074D01*
X32705472Y-290805596D01*
X32700299Y-290803136D01*
X32695119Y-290800696D01*
X32689929Y-290798272D01*
X32684733Y-290795868D01*
X32679527Y-290793481D01*
X32674315Y-290791114D01*
X32669094Y-290788764D01*
X32663866Y-290786433D01*
X32658629Y-290784120D01*
X32653386Y-290781826D01*
X32648133Y-290779550D01*
X32642875Y-290777294D01*
X32637607Y-290775055D01*
X32632334Y-290772835D01*
X32627051Y-290770633D01*
X32621763Y-290768451D01*
X32616466Y-290766286D01*
X32611164Y-290764141D01*
X32605852Y-290762014D01*
X32600535Y-290759906D01*
X32595209Y-290757816D01*
X32589878Y-290755746D01*
X32584538Y-290753694D01*
X32579194Y-290751661D01*
X32573840Y-290749647D01*
X32568482Y-290747652D01*
X32563115Y-290745675D01*
X32557743Y-290743717D01*
X32552363Y-290741778D01*
X32546978Y-290739859D01*
X32541584Y-290737957D01*
X32536186Y-290736076D01*
X32530780Y-290734212D01*
X32525369Y-290732369D01*
X32519951Y-290730543D01*
X32514527Y-290728738D01*
X32509096Y-290726950D01*
X32503661Y-290725183D01*
X32498217Y-290723434D01*
X32492770Y-290721704D01*
X32487314Y-290719993D01*
X32481855Y-290718302D01*
X32476387Y-290716629D01*
X32470916Y-290714976D01*
X32465437Y-290713342D01*
X32459955Y-290711727D01*
X32454465Y-290710131D01*
X32448971Y-290708555D01*
X32443470Y-290706998D01*
X32437965Y-290705460D01*
X32432452Y-290703941D01*
X32426937Y-290702442D01*
X32421414Y-290700961D01*
X32415887Y-290699501D01*
X32410354Y-290698059D01*
X32404817Y-290696637D01*
X32399273Y-290695234D01*
X32393726Y-290693851D01*
X32388172Y-290692486D01*
X32382615Y-290691142D01*
X32377051Y-290689816D01*
X32371484Y-290688510D01*
X32365910Y-290687224D01*
X32360334Y-290685957D01*
X32354750Y-290684709D01*
X32349164Y-290683481D01*
X32343571Y-290682272D01*
X32337976Y-290681083D01*
X32332374Y-290679913D01*
X32326770Y-290678763D01*
X32321159Y-290677632D01*
X32315545Y-290676521D01*
X32309925Y-290675429D01*
X32304304Y-290674357D01*
X32298675Y-290673305D01*
X32293044Y-290672272D01*
X32287407Y-290671258D01*
X32281769Y-290670265D01*
X32276123Y-290669290D01*
X32270476Y-290668336D01*
X32264823Y-290667401D01*
X32259168Y-290666485D01*
X32253506Y-290665589D01*
X32247843Y-290664714D01*
X32242174Y-290663857D01*
X32236504Y-290663020D01*
X32230827Y-290662203D01*
X32225149Y-290661406D01*
X32219465Y-290660628D01*
X32213779Y-290659870D01*
X32208088Y-290659132D01*
X32202395Y-290658414D01*
X32196696Y-290657715D01*
X32190997Y-290657036D01*
X32185291Y-290656376D01*
X32179585Y-290655737D01*
X32173873Y-290655117D01*
X32168160Y-290654517D01*
X32162441Y-290653937D01*
X32156721Y-290653377D01*
X32150996Y-290652836D01*
X32145270Y-290652315D01*
X32139538Y-290651814D01*
X32133806Y-290651333D01*
X32128068Y-290650872D01*
X32122329Y-290650430D01*
X32116586Y-290650008D01*
X32110841Y-290649607D01*
X32105092Y-290649225D01*
X32099342Y-290648863D01*
X32093586Y-290648521D01*
X32087831Y-290648198D01*
X32082070Y-290647896D01*
X32076309Y-290647614D01*
X32070542Y-290647351D01*
X32064776Y-290647108D01*
X32059004Y-290646886D01*
X32053233Y-290646683D01*
X32047456Y-290646500D01*
X32041679Y-290646337D01*
X32035897Y-290646194D01*
X32030116Y-290646071D01*
X32024329Y-290645968D01*
X32018543Y-290645885D01*
X32012751Y-290645822D01*
X32006960Y-290645779D01*
X32001164Y-290645756D01*
X31997398Y-290645752D01*
D24*
X210754665Y-273511482D02*
X210881212Y-273521104D01*
X211005918Y-273536950D01*
X211128627Y-273558862D01*
X211249183Y-273586685D01*
X211367428Y-273620261D01*
X211483207Y-273659435D01*
X211596363Y-273704050D01*
X211706738Y-273753948D01*
X211814178Y-273808974D01*
X211918525Y-273868971D01*
X212019623Y-273933782D01*
X212117314Y-274003252D01*
X212211444Y-274077222D01*
X212301854Y-274155537D01*
X212388390Y-274238041D01*
X212470893Y-274324576D01*
X212549208Y-274414986D01*
X212623178Y-274509115D01*
X212692646Y-274606806D01*
X212757457Y-274707902D01*
X212817453Y-274812246D01*
X212872478Y-274919684D01*
X212922375Y-275030056D01*
X212966989Y-275143209D01*
X213006161Y-275258983D01*
X213039737Y-275377224D01*
X213067559Y-275497774D01*
X213089470Y-275620477D01*
X213105315Y-275745177D01*
X213114937Y-275871716D01*
X213118179Y-275999939D01*
X213118179Y-276000275D01*
X213114937Y-276128497D01*
X213105315Y-276255037D01*
X213089470Y-276379738D01*
X213067559Y-276502442D01*
X213039737Y-276622994D01*
X213006161Y-276741236D01*
X212966989Y-276857013D01*
X212922375Y-276970167D01*
X212872478Y-277080542D01*
X212817453Y-277187981D01*
X212757457Y-277292329D01*
X212692646Y-277393427D01*
X212623178Y-277491121D01*
X212549208Y-277585252D01*
X212470893Y-277675665D01*
X212388390Y-277762203D01*
X212301854Y-277844710D01*
X212211444Y-277923028D01*
X212117314Y-277997001D01*
X212019623Y-278066473D01*
X211918525Y-278131287D01*
X211814178Y-278191286D01*
X211706738Y-278246315D01*
X211596363Y-278296216D01*
X211483207Y-278340832D01*
X211367428Y-278380008D01*
X211249183Y-278413586D01*
X211128627Y-278441410D01*
X211005918Y-278463323D01*
X210881212Y-278479170D01*
X210754665Y-278488793D01*
X210626434Y-278492035D01*
X205065643Y-278492035D01*
X204937424Y-278488793D01*
X204810888Y-278479170D01*
X204686190Y-278463323D01*
X204563488Y-278441410D01*
X204442939Y-278413586D01*
X204324698Y-278380008D01*
X204208922Y-278340832D01*
X204095768Y-278296216D01*
X203985393Y-278246315D01*
X203877953Y-278191286D01*
X203773605Y-278131287D01*
X203672506Y-278066473D01*
X203574811Y-277997001D01*
X203480679Y-277923028D01*
X203390264Y-277844710D01*
X203303724Y-277762203D01*
X203221216Y-277675665D01*
X203142896Y-277585252D01*
X203068921Y-277491121D01*
X202999447Y-277393427D01*
X202934631Y-277292329D01*
X202874629Y-277187981D01*
X202819599Y-277080542D01*
X202769696Y-276970167D01*
X202725078Y-276857013D01*
X202685900Y-276741236D01*
X202652321Y-276622994D01*
X202624495Y-276502442D01*
X202602581Y-276379738D01*
X202586734Y-276255037D01*
X202577110Y-276128497D01*
X202573868Y-276000275D01*
X202573868Y-275999939D01*
X202577110Y-275871716D01*
X202586734Y-275745177D01*
X202602581Y-275620477D01*
X202624495Y-275497774D01*
X202652321Y-275377224D01*
X202685900Y-275258983D01*
X202725078Y-275143209D01*
X202769696Y-275030056D01*
X202819599Y-274919684D01*
X202874629Y-274812246D01*
X202934631Y-274707902D01*
X202999447Y-274606806D01*
X203068921Y-274509115D01*
X203142896Y-274414986D01*
X203221216Y-274324576D01*
X203303724Y-274238041D01*
X203390264Y-274155537D01*
X203480679Y-274077222D01*
X203574811Y-274003252D01*
X203672506Y-273933782D01*
X203773605Y-273868971D01*
X203877953Y-273808974D01*
X203985393Y-273753948D01*
X204095768Y-273704050D01*
X204208922Y-273659435D01*
X204324698Y-273620261D01*
X204442939Y-273586685D01*
X204563488Y-273558862D01*
X204686190Y-273536950D01*
X204810888Y-273521104D01*
X204937424Y-273511482D01*
X205065643Y-273508240D01*
X210626434Y-273508240D01*
X210754665Y-273511482D01*
D10*
X9999647Y-92000023D02*
X5999633Y-96000008D01*
X99299873Y-232699631D02*
X102437146Y-229562416D01*
X106431045Y-225568495D01*
X107491074Y-224508452D01*
X107999474Y-224000046D01*
X89999542Y-34000038D02*
X90656142Y-33343368D01*
X91633915Y-32365603D01*
X91776047Y-32223476D01*
X89999542Y-32017231D02*
X89242083Y-32768185D01*
X88984020Y-33024020D01*
X88491766Y-33512029D01*
X87999535Y-34000038D01*
D28*
X127999939Y-288000092D02*
X255999924Y-288000092D01*
D10*
X27999582Y-32000046D02*
X27257513Y-32742052D01*
X26988443Y-33011111D01*
X26493956Y-33505575D01*
X25999445Y-34000038D01*
X128009109Y-286000092D02*
X118249051Y-295757380D01*
X108040094Y-305963500D01*
X93999557Y-320000122D01*
X33999474Y-90000015D02*
X39298827Y-84700659D01*
X62649135Y-61350348D01*
X74324316Y-49675192D01*
X85999527Y-38000038D01*
X33999474Y-96000008D02*
X58138725Y-71860757D01*
X96761528Y-33237953D01*
X144478378Y-95521393D02*
X136263040Y-103736677D01*
X131903130Y-108096549D01*
X127543243Y-112456421D01*
X93673737Y-232325912D02*
X97968053Y-228031519D01*
X101999451Y-224000046D01*
X127999672Y-266000061D02*
X114911708Y-279087936D01*
X94664906Y-299334718D01*
X84332200Y-309667424D01*
X73999481Y-320000122D01*
X184433182Y-101566589D02*
X165566896Y-120432927D01*
X158339888Y-127659968D01*
X145959867Y-140040041D01*
X133579819Y-152420120D01*
X91999550Y-274000122D02*
X92560864Y-273438834D01*
X93271535Y-272728101D01*
X93490918Y-272508689D01*
X94200577Y-271798950D01*
X79677559Y-224322021D02*
X75723802Y-228275791D01*
X72202821Y-231796737D01*
X68268026Y-235731495D01*
X64333282Y-239666260D01*
X128009109Y-306000031D02*
X124048159Y-309958241D01*
X118975829Y-315027147D01*
X113999496Y-320000122D01*
X107999474Y-66000061D02*
X114729929Y-59269643D01*
X118768196Y-55231396D01*
X103622093Y-266377441D02*
X127999672Y-242000107D01*
X63999580Y-318000153D02*
X82407551Y-299594833D01*
X105163158Y-276842600D01*
X117262161Y-264745412D01*
X128009109Y-254000076D01*
X103999458Y-260000061D02*
X112349263Y-251650249D01*
X119672455Y-244327048D01*
X126995728Y-237003830D01*
X7999511Y-38000038D02*
X4854396Y-41145139D01*
X3983036Y-42016488D01*
X1991247Y-44008252D01*
X-517Y-46000015D01*
X103999458Y-264000061D02*
X112207699Y-255791855D01*
X122617657Y-245382037D01*
X125699703Y-242300041D01*
X127759895Y-240239883D01*
X75999359Y-32017231D02*
X75462822Y-32549245D01*
X74657559Y-33347607D01*
X73999481Y-34000038D01*
X85999527Y-92000023D02*
X119523575Y-58476078D01*
X71999603Y-38000038D02*
X58666225Y-51333385D01*
X51332879Y-58666724D01*
X43999508Y-66000061D01*
X-517Y-96000008D02*
X35999481Y-60000080D01*
X113999496Y-274000122D02*
X119858263Y-268141396D01*
X123928953Y-264070729D01*
X127999672Y-260000061D01*
X115999504Y-276007568D02*
X128009109Y-264000061D01*
X63999580Y-306000031D02*
X91999550Y-278000092D01*
X37999489Y-58000084D02*
X39522820Y-56476680D01*
X41767604Y-54231897D01*
X41999500Y-54000004D01*
X175999954Y-232000122D02*
X175999954Y-224000046D01*
X43999508Y-68000061D02*
X51942228Y-60057304D01*
X58971667Y-53027877D01*
X66485599Y-45513958D01*
X73999481Y-38000038D01*
X195935837Y-130063965D02*
X192182516Y-133817236D01*
X186091012Y-139908669D01*
X183045288Y-142954383D01*
X179999603Y-146000092D01*
X128009109Y-294000092D02*
X122736941Y-299270262D01*
X114889955Y-307114387D01*
X108444739Y-313557260D01*
X105222108Y-316778693D01*
X101999451Y-320000122D01*
X49999401Y-96000008D02*
X50982373Y-95017104D01*
X51490942Y-94508560D01*
X51999535Y-94000015D01*
X63999580Y-260000061D02*
X80903930Y-243095698D01*
X90451739Y-233547871D01*
X99999573Y-224000046D01*
D29*
X177257012Y-273511482D02*
X177383557Y-273521104D01*
X177508261Y-273536950D01*
X177630968Y-273558862D01*
X177751523Y-273586685D01*
X177869767Y-273620261D01*
X177985545Y-273659435D01*
X178098700Y-273704050D01*
X178209075Y-273753948D01*
X178316514Y-273808974D01*
X178420861Y-273868971D01*
X178521959Y-273933782D01*
X178619651Y-274003252D01*
X178713781Y-274077222D01*
X178804192Y-274155537D01*
X178890728Y-274238041D01*
X178973232Y-274324576D01*
X179051548Y-274414986D01*
X179125519Y-274509115D01*
X179194988Y-274606806D01*
X179259800Y-274707902D01*
X179319797Y-274812246D01*
X179374822Y-274919684D01*
X179424721Y-275030056D01*
X179469335Y-275143209D01*
X179508508Y-275258983D01*
X179542085Y-275377224D01*
X179569907Y-275497774D01*
X179591820Y-275620477D01*
X179607665Y-275745177D01*
X179617287Y-275871716D01*
X179620529Y-275999939D01*
X179620529Y-276000275D01*
X179617287Y-276128497D01*
X179607665Y-276255037D01*
X179591820Y-276379738D01*
X179569907Y-276502442D01*
X179542085Y-276622994D01*
X179508508Y-276741236D01*
X179469335Y-276857013D01*
X179424721Y-276970167D01*
X179374822Y-277080542D01*
X179319797Y-277187981D01*
X179259800Y-277292329D01*
X179194988Y-277393427D01*
X179125519Y-277491121D01*
X179051548Y-277585252D01*
X178973232Y-277675665D01*
X178890728Y-277762203D01*
X178804192Y-277844710D01*
X178713781Y-277923028D01*
X178619651Y-277997001D01*
X178521959Y-278066473D01*
X178420861Y-278131287D01*
X178316514Y-278191286D01*
X178209075Y-278246315D01*
X178098700Y-278296216D01*
X177985545Y-278340832D01*
X177869767Y-278380008D01*
X177751523Y-278413586D01*
X177630968Y-278441410D01*
X177508261Y-278463323D01*
X177383557Y-278479170D01*
X177257012Y-278488793D01*
X177128784Y-278492035D01*
X174949905Y-278492035D01*
X174821684Y-278488793D01*
X174695145Y-278479170D01*
X174570446Y-278463323D01*
X174447742Y-278441410D01*
X174327191Y-278413586D01*
X174208950Y-278380008D01*
X174093174Y-278340832D01*
X173980020Y-278296216D01*
X173869645Y-278246315D01*
X173762205Y-278191286D01*
X173657858Y-278131287D01*
X173556759Y-278066473D01*
X173459066Y-277997001D01*
X173364934Y-277923028D01*
X173274521Y-277844710D01*
X173187983Y-277762203D01*
X173105476Y-277675665D01*
X173027157Y-277585252D01*
X172953184Y-277491121D01*
X172883711Y-277393427D01*
X172818897Y-277292329D01*
X172758897Y-277187981D01*
X172703868Y-277080542D01*
X172653967Y-276970167D01*
X172609350Y-276857013D01*
X172570174Y-276741236D01*
X172536595Y-276622994D01*
X172508771Y-276502442D01*
X172486857Y-276379738D01*
X172471010Y-276255037D01*
X172461388Y-276128497D01*
X172458145Y-276000275D01*
X172458145Y-275999939D01*
X172461388Y-275871716D01*
X172471010Y-275745177D01*
X172486857Y-275620477D01*
X172508771Y-275497774D01*
X172536595Y-275377224D01*
X172570174Y-275258983D01*
X172609350Y-275143209D01*
X172653967Y-275030056D01*
X172703868Y-274919684D01*
X172758897Y-274812246D01*
X172818897Y-274707902D01*
X172883711Y-274606806D01*
X172953184Y-274509115D01*
X173027157Y-274414986D01*
X173105476Y-274324576D01*
X173187983Y-274238041D01*
X173274521Y-274155537D01*
X173364934Y-274077222D01*
X173459066Y-274003252D01*
X173556759Y-273933782D01*
X173657858Y-273868971D01*
X173762205Y-273808974D01*
X173869645Y-273753948D01*
X173980020Y-273704050D01*
X174093174Y-273659435D01*
X174208950Y-273620261D01*
X174327191Y-273586685D01*
X174447742Y-273558862D01*
X174570446Y-273536950D01*
X174695145Y-273521104D01*
X174821684Y-273511482D01*
X174949905Y-273508240D01*
X177128784Y-273508240D01*
X177257012Y-273511482D01*
D10*
X79999374Y-250000076D02*
X87999535Y-242000107D01*
X-517Y-34000038D02*
X752628Y-33246953D01*
X984735Y-33014856D01*
X1492165Y-32507450D01*
X1999619Y-32000046D01*
X161999405Y-150000092D02*
X157262305Y-154737223D01*
X151244028Y-160755623D01*
X149999619Y-162000061D01*
D30*
X63999954Y-288000336D02*
X63999580Y-288000092D01*
D10*
X194821945Y-137177673D02*
X169999695Y-162000061D01*
X127999672Y-302000061D02*
X121839464Y-308160225D01*
X119971885Y-310027800D01*
X114985710Y-315013957D01*
X109999481Y-320000122D01*
X7999511Y-32000046D02*
X7354190Y-32645375D01*
X6676868Y-33322706D01*
X6338234Y-33661372D01*
X5999633Y-34000038D01*
X171956680Y-94043030D02*
X126041328Y-139958481D01*
X126041267Y-139958542D01*
X102568542Y-235431061D02*
X105349401Y-232650240D01*
X109686695Y-228312885D01*
X113455086Y-224544434D01*
X111999809Y-104000008D02*
X112020782Y-100067991D01*
X112042480Y-96000031D01*
X63999580Y-274000122D02*
X87999535Y-250000076D01*
X63999580Y-288000092D02*
X67059470Y-284940189D01*
X70431984Y-281567595D01*
X73215650Y-278783860D01*
X75999359Y-276000122D01*
X71999603Y-32017231D02*
X71043862Y-32964697D01*
X70521681Y-33482368D01*
X69999474Y-34000038D01*
X100543602Y-93455940D02*
X105233113Y-88766424D01*
X108859010Y-85140561D01*
X113136019Y-80863588D01*
X117412979Y-76586617D01*
X32042093Y-291471771D02*
X32083778Y-291474941D01*
X32124857Y-291480160D01*
X32165279Y-291487378D01*
X32204991Y-291496543D01*
X32243942Y-291507603D01*
X32282081Y-291520507D01*
X32319356Y-291535203D01*
X32355715Y-291551640D01*
X32391107Y-291569766D01*
X32425481Y-291589529D01*
X32458784Y-291610879D01*
X32490965Y-291633762D01*
X32521973Y-291658129D01*
X32551756Y-291683927D01*
X32580262Y-291711105D01*
X32607440Y-291739611D01*
X32633239Y-291769394D01*
X32657606Y-291800402D01*
X32680490Y-291832584D01*
X32701840Y-291865887D01*
X32721604Y-291900261D01*
X32739731Y-291935654D01*
X32756168Y-291972014D01*
X32770865Y-292009290D01*
X32783769Y-292047431D01*
X32794830Y-292086384D01*
X32803995Y-292126098D01*
X32811214Y-292166521D01*
X32816433Y-292207603D01*
X32819603Y-292249291D01*
X32820671Y-292291534D01*
X32819603Y-292333775D01*
X32816433Y-292375461D01*
X32811214Y-292416541D01*
X32803995Y-292456964D01*
X32794830Y-292496677D01*
X32783769Y-292535630D01*
X32770865Y-292573770D01*
X32756168Y-292611046D01*
X32739731Y-292647407D01*
X32721604Y-292682801D01*
X32701840Y-292717176D01*
X32680490Y-292750481D01*
X32657606Y-292782664D01*
X32633239Y-292813674D01*
X32607440Y-292843459D01*
X32580262Y-292871967D01*
X32551756Y-292899147D01*
X32521973Y-292924948D01*
X32490965Y-292949317D01*
X32458784Y-292972203D01*
X32425481Y-292993555D01*
X32391107Y-293013320D01*
X32355715Y-293031449D01*
X32319356Y-293047887D01*
X32282081Y-293062585D01*
X32243942Y-293075491D01*
X32204991Y-293086553D01*
X32165279Y-293095719D01*
X32124857Y-293102938D01*
X32083778Y-293108158D01*
X32042093Y-293111328D01*
X31999853Y-293112396D01*
X31957608Y-293111328D01*
X31915917Y-293108158D01*
X31874833Y-293102938D01*
X31834407Y-293095719D01*
X31794690Y-293086553D01*
X31755735Y-293075491D01*
X31717593Y-293062585D01*
X31680314Y-293047887D01*
X31643952Y-293031449D01*
X31608557Y-293013320D01*
X31574181Y-292993555D01*
X31540876Y-292972203D01*
X31508692Y-292949317D01*
X31477683Y-292924948D01*
X31447898Y-292899147D01*
X31419390Y-292871967D01*
X31392211Y-292843459D01*
X31366411Y-292813674D01*
X31342043Y-292782664D01*
X31319158Y-292750481D01*
X31297807Y-292717176D01*
X31278042Y-292682801D01*
X31259915Y-292647407D01*
X31243478Y-292611046D01*
X31228781Y-292573770D01*
X31215876Y-292535630D01*
X31204815Y-292496677D01*
X31195650Y-292456964D01*
X31188432Y-292416541D01*
X31183212Y-292375461D01*
X31180042Y-292333775D01*
X31178974Y-292291534D01*
X31180042Y-292249291D01*
X31183212Y-292207603D01*
X31188432Y-292166521D01*
X31195650Y-292126098D01*
X31204815Y-292086384D01*
X31215876Y-292047431D01*
X31228781Y-292009290D01*
X31243478Y-291972014D01*
X31259915Y-291935654D01*
X31278042Y-291900261D01*
X31297807Y-291865887D01*
X31319158Y-291832584D01*
X31342043Y-291800402D01*
X31366411Y-291769394D01*
X31392211Y-291739611D01*
X31419390Y-291711105D01*
X31447898Y-291683927D01*
X31477683Y-291658129D01*
X31508692Y-291633762D01*
X31540876Y-291610879D01*
X31574181Y-291589529D01*
X31608557Y-291569766D01*
X31643952Y-291551640D01*
X31680314Y-291535203D01*
X31717593Y-291520507D01*
X31755735Y-291507603D01*
X31794690Y-291496543D01*
X31834407Y-291487378D01*
X31874833Y-291480160D01*
X31915917Y-291474941D01*
X31957608Y-291471771D01*
X31999853Y-291470703D01*
X32042093Y-291471771D01*
X63999580Y-242000107D02*
X68782993Y-237216632D01*
X73259663Y-232739954D01*
X77629610Y-228369999D01*
X81999512Y-224000046D01*
X87999535Y-96000008D02*
X88060144Y-95939401D01*
X90029895Y-93969712D01*
X91014740Y-92984867D01*
X91999550Y-92000023D01*
X97999565Y-278000092D02*
X86642626Y-289357078D01*
X79282958Y-296716749D01*
X63999580Y-312000153D01*
X75999359Y-320000122D02*
X98513657Y-297490052D01*
X113261397Y-282745089D01*
X128009109Y-268000122D01*
X105999466Y-50000015D02*
X108218470Y-47781059D01*
X110373152Y-45626423D01*
X111450466Y-44549105D01*
X112527748Y-43471786D01*
X41999500Y-94000015D02*
X41254804Y-94744711D01*
X41028070Y-94971436D01*
X40513769Y-95485720D01*
X39999493Y-96000008D01*
X155999512Y-150000092D02*
X151763918Y-154235727D01*
X150189081Y-155810593D01*
X145181702Y-160818039D01*
X11999525Y-96000008D02*
X13999533Y-94000015D01*
X77999496Y-90000015D02*
X89007383Y-78992134D01*
X91718360Y-76281166D01*
X98858926Y-69140618D01*
X105999466Y-62000072D01*
X155999771Y-148000107D02*
X151486740Y-152513062D01*
X149540259Y-154459526D01*
X143835144Y-160164566D01*
D27*
X31997398Y-293937988D02*
X32008977Y-293937948D01*
X32020547Y-293937828D01*
X32032108Y-293937629D01*
X32043659Y-293937349D01*
X32055200Y-293936990D01*
X32066731Y-293936551D01*
X32078251Y-293936033D01*
X32089761Y-293935435D01*
X32101259Y-293934758D01*
X32112746Y-293934002D01*
X32124221Y-293933166D01*
X32135685Y-293932251D01*
X32147136Y-293931256D01*
X32158574Y-293930183D01*
X32170000Y-293929030D01*
X32181413Y-293927799D01*
X32192812Y-293926488D01*
X32204197Y-293925099D01*
X32215568Y-293923631D01*
X32226925Y-293922084D01*
X32238266Y-293920459D01*
X32249593Y-293918755D01*
X32260904Y-293916972D01*
X32272200Y-293915111D01*
X32283479Y-293913172D01*
X32294742Y-293911155D01*
X32305988Y-293909059D01*
X32317217Y-293906885D01*
X32328428Y-293904634D01*
X32339621Y-293902304D01*
X32350796Y-293899896D01*
X32361953Y-293897411D01*
X32373090Y-293894848D01*
X32384208Y-293892208D01*
X32395306Y-293889490D01*
X32406384Y-293886694D01*
X32417442Y-293883822D01*
X32428478Y-293880872D01*
X32439493Y-293877846D01*
X32450487Y-293874742D01*
X32461458Y-293871562D01*
X32472407Y-293868305D01*
X32483332Y-293864971D01*
X32494234Y-293861561D01*
X32505113Y-293858074D01*
X32515967Y-293854512D01*
X32526797Y-293850873D01*
X32537601Y-293847159D01*
X32548380Y-293843369D01*
X32559133Y-293839503D01*
X32569860Y-293835561D01*
X32580559Y-293831545D01*
X32591232Y-293827453D01*
X32601876Y-293823286D01*
X32612493Y-293819045D01*
X32623081Y-293814728D01*
X32633640Y-293810338D01*
X32644169Y-293805873D01*
X32654668Y-293801334D01*
X32665137Y-293796721D01*
X32675575Y-293792034D01*
X32685981Y-293787274D01*
X32696356Y-293782440D01*
X32706698Y-293777533D01*
X32717007Y-293772553D01*
X32727283Y-293767501D01*
X32737525Y-293762376D01*
X32747733Y-293757179D01*
X32757907Y-293751910D01*
X32768044Y-293746569D01*
X32778147Y-293741157D01*
X32788213Y-293735673D01*
X32798242Y-293730118D01*
X32808234Y-293724492D01*
X32818188Y-293718796D01*
X32828104Y-293713030D01*
X32837982Y-293707193D01*
X32847820Y-293701287D01*
X32857618Y-293695311D01*
X32867377Y-293689267D01*
X32877094Y-293683153D01*
X32886771Y-293676971D01*
X32896406Y-293670720D01*
X32905998Y-293664402D01*
X32915548Y-293658016D01*
X32925055Y-293651562D01*
X32934518Y-293645042D01*
X32943937Y-293638455D01*
X32953311Y-293631801D01*
X32962640Y-293625082D01*
X32971924Y-293618297D01*
X32981161Y-293611446D01*
X32990352Y-293604531D01*
X32999495Y-293597551D01*
X33008591Y-293590507D01*
X33017639Y-293583398D01*
X33026638Y-293576227D01*
X33035588Y-293568992D01*
X33044488Y-293561694D01*
X33053338Y-293554334D01*
X33062138Y-293546912D01*
X33070886Y-293539429D01*
X33079583Y-293531884D01*
X33088228Y-293524279D01*
X33096821Y-293516613D01*
X33105361Y-293508887D01*
X33113847Y-293501102D01*
X33122279Y-293493258D01*
X33130657Y-293485354D01*
X33138980Y-293477393D01*
X33147248Y-293469374D01*
X33155460Y-293461297D01*
X33163616Y-293453164D01*
X33167672Y-293449076D01*
X33171715Y-293444974D01*
X33175743Y-293440858D01*
X33179757Y-293436728D01*
X33183757Y-293432584D01*
X33187742Y-293428426D01*
X33191712Y-293424255D01*
X33195668Y-293420069D01*
X33199610Y-293415870D01*
X33203537Y-293411658D01*
X33207449Y-293407432D01*
X33211346Y-293403192D01*
X33215229Y-293398939D01*
X33219096Y-293394673D01*
X33222949Y-293390393D01*
X33226787Y-293386100D01*
X33230610Y-293381794D01*
X33234417Y-293377474D01*
X33238210Y-293373142D01*
X33241987Y-293368796D01*
X33245749Y-293364438D01*
X33249496Y-293360066D01*
X33253228Y-293355682D01*
X33256944Y-293351285D01*
X33260645Y-293346876D01*
X33264330Y-293342453D01*
X33268000Y-293338018D01*
X33271654Y-293333570D01*
X33275292Y-293329110D01*
X33278915Y-293324638D01*
X33282522Y-293320153D01*
X33286114Y-293315656D01*
X33289689Y-293311146D01*
X33293249Y-293306624D01*
X33296793Y-293302091D01*
X33300321Y-293297545D01*
X33303832Y-293292987D01*
X33307328Y-293288417D01*
X33310807Y-293283836D01*
X33314271Y-293279242D01*
X33317718Y-293274637D01*
X33321150Y-293270020D01*
X33324564Y-293265392D01*
X33327963Y-293260751D01*
X33331345Y-293256100D01*
X33334711Y-293251437D01*
X33338059Y-293246763D01*
X33341392Y-293242077D01*
X33344708Y-293237380D01*
X33348008Y-293232671D01*
X33351291Y-293227952D01*
X33354558Y-293223221D01*
X33357807Y-293218480D01*
X33361040Y-293213728D01*
X33364256Y-293208965D01*
X33367455Y-293204190D01*
X33370637Y-293199406D01*
X33373803Y-293194610D01*
X33376951Y-293189804D01*
X33380083Y-293184987D01*
X33383197Y-293180160D01*
X33386295Y-293175322D01*
X33389375Y-293170474D01*
X33392438Y-293165615D01*
X33395484Y-293160747D01*
X33398513Y-293155868D01*
X33401524Y-293150979D01*
X33404518Y-293146079D01*
X33407495Y-293141171D01*
X33410455Y-293136251D01*
X33413396Y-293131323D01*
X33416321Y-293126383D01*
X33419228Y-293121435D01*
X33422118Y-293116477D01*
X33424990Y-293111509D01*
X33427845Y-293106531D01*
X33430681Y-293101545D01*
X33433501Y-293096548D01*
X33436302Y-293091543D01*
X33439086Y-293086527D01*
X33441852Y-293081503D01*
X33444601Y-293076469D01*
X33447331Y-293071427D01*
X33450044Y-293066374D01*
X33452739Y-293061314D01*
X33455416Y-293056243D01*
X33458075Y-293051165D01*
X33460716Y-293046077D01*
X33463339Y-293040981D01*
X33465944Y-293035875D01*
X33468531Y-293030762D01*
X33471100Y-293025639D01*
X33473651Y-293020509D01*
X33476184Y-293015369D01*
X33478698Y-293010222D01*
X33481195Y-293005065D01*
X33483672Y-292999902D01*
X33486133Y-292994728D01*
X33488574Y-292989548D01*
X33490997Y-292984359D01*
X33493402Y-292979162D01*
X33495789Y-292973957D01*
X33498157Y-292968745D01*
X33500507Y-292963523D01*
X33502838Y-292958295D01*
X33505151Y-292953058D01*
X33507446Y-292947815D01*
X33509722Y-292942562D01*
X33511979Y-292937304D01*
X33514218Y-292932036D01*
X33516438Y-292926763D01*
X33518640Y-292921480D01*
X33520823Y-292916192D01*
X33522988Y-292910895D01*
X33525133Y-292905593D01*
X33527261Y-292900281D01*
X33529369Y-292894964D01*
X33531459Y-292889638D01*
X33533529Y-292884307D01*
X33535582Y-292878967D01*
X33537615Y-292873623D01*
X33539630Y-292868269D01*
X33541625Y-292862911D01*
X33543602Y-292857544D01*
X33545560Y-292852172D01*
X33547499Y-292846792D01*
X33549419Y-292841407D01*
X33551321Y-292836013D01*
X33553203Y-292830616D01*
X33555066Y-292825209D01*
X33556910Y-292819799D01*
X33558736Y-292814380D01*
X33560542Y-292808957D01*
X33562330Y-292803525D01*
X33564097Y-292798090D01*
X33565847Y-292792647D01*
X33567577Y-292787199D01*
X33569288Y-292781744D01*
X33570979Y-292776284D01*
X33572652Y-292770817D01*
X33574306Y-292765346D01*
X33575940Y-292759867D01*
X33577555Y-292754385D01*
X33579151Y-292748895D01*
X33580728Y-292743401D01*
X33582286Y-292737900D01*
X33583824Y-292732395D01*
X33585343Y-292726883D01*
X33586842Y-292721367D01*
X33588323Y-292715844D01*
X33589784Y-292710318D01*
X33591226Y-292704784D01*
X33592648Y-292699248D01*
X33594052Y-292693704D01*
X33595435Y-292688157D01*
X33596800Y-292682603D01*
X33598145Y-292677046D01*
X33599471Y-292671482D01*
X33600776Y-292665916D01*
X33602064Y-292660342D01*
X33603331Y-292654765D01*
X33604579Y-292649182D01*
X33605807Y-292643596D01*
X33607016Y-292638003D01*
X33608205Y-292632408D01*
X33609376Y-292626806D01*
X33610526Y-292621202D01*
X33611657Y-292615591D01*
X33612768Y-292609978D01*
X33613861Y-292604359D01*
X33614933Y-292598737D01*
X33615986Y-292593108D01*
X33617019Y-292587478D01*
X33618033Y-292581841D01*
X33619026Y-292576203D01*
X33620001Y-292570557D01*
X33620956Y-292564911D01*
X33621891Y-292559257D01*
X33622807Y-292553602D01*
X33623703Y-292547941D01*
X33624579Y-292542279D01*
X33625436Y-292536610D01*
X33626273Y-292530939D01*
X33627090Y-292525263D01*
X33627887Y-292519585D01*
X33628666Y-292513901D01*
X33629424Y-292508216D01*
X33630162Y-292502524D01*
X33630881Y-292496832D01*
X33631580Y-292491134D01*
X33632259Y-292485434D01*
X33632919Y-292479729D01*
X33633558Y-292474023D01*
X33634179Y-292468311D01*
X33634779Y-292462598D01*
X33635359Y-292456880D01*
X33635920Y-292451160D01*
X33636461Y-292445435D01*
X33636982Y-292439709D01*
X33637483Y-292433978D01*
X33637964Y-292428246D01*
X33638426Y-292422509D01*
X33638868Y-292416771D01*
X33639290Y-292411027D01*
X33639692Y-292405283D01*
X33640074Y-292399534D01*
X33640436Y-292393784D01*
X33640778Y-292388029D01*
X33641101Y-292382274D01*
X33641404Y-292376513D01*
X33641686Y-292370752D01*
X33641949Y-292364986D01*
X33642192Y-292359220D01*
X33642415Y-292353449D01*
X33642618Y-292347678D01*
X33642801Y-292341901D01*
X33642964Y-292336125D01*
X33643107Y-292330344D01*
X33643230Y-292324563D01*
X33643334Y-292318776D01*
X33643417Y-292312990D01*
X33643480Y-292307199D01*
X33643523Y-292301409D01*
X33643547Y-292295613D01*
X33643551Y-292291779D01*
D10*
X63999580Y-310000153D02*
X72290350Y-301710517D01*
X83381410Y-290621067D01*
X89692816Y-284310584D01*
X96004211Y-278000092D01*
X103999458Y-320000122D02*
X128009109Y-296000061D01*
X37999489Y-96000008D02*
X41999500Y-92000023D01*
D12*
X127999962Y-32000038D02*
X127999962Y-111520576D01*
D11*
X32060314Y-208000061D02*
X43999977Y-208000061D01*
D10*
X103999458Y-250000076D02*
X123347893Y-230651627D01*
D31*
X161636433Y-249511482D02*
X161762974Y-249521104D01*
X161887675Y-249536950D01*
X162010380Y-249558863D01*
X162130931Y-249586687D01*
X162249173Y-249620264D01*
X162364950Y-249659439D01*
X162478103Y-249704054D01*
X162588477Y-249753954D01*
X162695916Y-249808981D01*
X162800262Y-249868979D01*
X162901359Y-249933791D01*
X162999051Y-250003262D01*
X163093181Y-250077233D01*
X163183592Y-250155550D01*
X163270128Y-250238054D01*
X163352633Y-250324590D01*
X163430949Y-250415002D01*
X163504921Y-250509131D01*
X163574391Y-250606823D01*
X163639203Y-250707919D01*
X163699201Y-250812265D01*
X163754227Y-250919703D01*
X163804126Y-251030076D01*
X163848741Y-251143228D01*
X163887916Y-251259003D01*
X163921493Y-251377243D01*
X163949316Y-251497793D01*
X163971229Y-251620496D01*
X163987074Y-251745195D01*
X163996697Y-251871733D01*
X163999939Y-251999954D01*
X163999939Y-252000305D01*
X163996697Y-252128526D01*
X163987074Y-252255065D01*
X163971229Y-252379763D01*
X163949316Y-252502466D01*
X163921493Y-252623015D01*
X163887916Y-252741255D01*
X163848741Y-252857029D01*
X163804126Y-252970181D01*
X163754227Y-253080554D01*
X163699201Y-253187991D01*
X163639203Y-253292336D01*
X163574391Y-253393432D01*
X163504921Y-253491123D01*
X163430949Y-253585252D01*
X163352633Y-253675662D01*
X163270128Y-253762197D01*
X163183592Y-253844701D01*
X163093181Y-253923017D01*
X162999051Y-253996988D01*
X162901359Y-254066458D01*
X162800262Y-254131270D01*
X162695916Y-254191267D01*
X162588477Y-254246293D01*
X162478103Y-254296192D01*
X162364950Y-254340807D01*
X162249173Y-254379981D01*
X162130931Y-254413558D01*
X162010380Y-254441381D01*
X161887675Y-254463294D01*
X161762974Y-254479140D01*
X161636433Y-254488762D01*
X161508209Y-254492004D01*
X158455612Y-254492004D01*
X158327383Y-254488762D01*
X158200837Y-254479140D01*
X158076131Y-254463294D01*
X157953422Y-254441381D01*
X157832867Y-254413558D01*
X157714621Y-254379981D01*
X157598842Y-254340807D01*
X157485686Y-254296192D01*
X157375309Y-254246293D01*
X157267868Y-254191267D01*
X157163520Y-254131270D01*
X157062421Y-254066458D01*
X156964728Y-253996988D01*
X156870597Y-253923017D01*
X156780184Y-253844701D01*
X156693647Y-253762197D01*
X156611142Y-253675662D01*
X156532825Y-253585252D01*
X156458854Y-253491123D01*
X156389383Y-253393432D01*
X156324571Y-253292336D01*
X156264573Y-253187991D01*
X156209547Y-253080554D01*
X156159648Y-252970181D01*
X156115033Y-252857029D01*
X156075859Y-252741255D01*
X156042282Y-252623015D01*
X156014459Y-252502466D01*
X155992547Y-252379763D01*
X155976701Y-252255065D01*
X155967079Y-252128526D01*
X155963837Y-252000305D01*
X155963837Y-251999954D01*
X155967079Y-251871733D01*
X155976701Y-251745195D01*
X155992547Y-251620496D01*
X156014459Y-251497793D01*
X156042282Y-251377243D01*
X156075859Y-251259003D01*
X156115033Y-251143228D01*
X156159648Y-251030076D01*
X156209547Y-250919703D01*
X156264573Y-250812265D01*
X156324571Y-250707919D01*
X156389383Y-250606823D01*
X156458854Y-250509131D01*
X156532825Y-250415002D01*
X156611142Y-250324590D01*
X156693647Y-250238054D01*
X156780184Y-250155550D01*
X156870597Y-250077233D01*
X156964728Y-250003262D01*
X157062421Y-249933791D01*
X157163520Y-249868979D01*
X157267868Y-249808981D01*
X157375309Y-249753954D01*
X157485686Y-249704054D01*
X157598842Y-249659439D01*
X157714621Y-249620264D01*
X157832867Y-249586687D01*
X157953422Y-249558863D01*
X158076131Y-249536950D01*
X158200837Y-249521104D01*
X158327383Y-249511482D01*
X158455612Y-249508240D01*
X161508209Y-249508240D01*
X161636433Y-249511482D01*
D10*
X39999493Y-70000061D02*
X21666216Y-88333353D01*
X19999554Y-90000015D01*
X45999645Y-94000015D02*
X45213275Y-94786319D01*
X44970038Y-95029546D01*
X43999508Y-96000008D01*
X191476028Y-110523491D02*
X181090529Y-120908961D01*
X167428510Y-134571031D01*
X154974348Y-147025243D01*
X148747244Y-153252346D01*
X142520111Y-159479446D01*
X107999474Y-58000084D02*
X116525955Y-49473640D01*
X178742569Y-97257057D02*
X160388974Y-115610713D01*
X129267685Y-146732117D01*
X35999481Y-70000061D02*
X15999539Y-90000015D01*
X182287827Y-99711800D02*
X163029595Y-118970103D01*
X156201978Y-125797733D01*
X143961681Y-138038057D01*
X131721405Y-150278381D01*
X79999374Y-274000122D02*
X83686064Y-270313468D01*
X85943517Y-268056047D01*
X88200943Y-265798615D01*
X99999573Y-70000061D02*
X94781396Y-75218204D01*
X89702071Y-80297441D01*
X84850699Y-85148728D01*
X79999374Y-90000015D01*
X109999481Y-274000122D02*
X116858485Y-267141129D01*
X118768212Y-265231397D01*
X123388647Y-260610953D01*
X128009109Y-255990509D01*
X192482162Y-143517410D02*
X186233530Y-149766064D01*
X180872279Y-155127330D01*
X178191679Y-157807964D01*
X175511108Y-160488602D01*
X63999580Y-282000122D02*
X65584490Y-280415211D01*
X76792055Y-269207625D01*
X87999535Y-258000061D01*
X41999500Y-96000008D02*
X42766200Y-95271294D01*
X43744185Y-94341857D01*
X43989679Y-94108556D01*
X44103893Y-94000015D01*
X67999596Y-320000122D02*
X109999481Y-278000092D01*
X97999565Y-94000015D02*
X97781981Y-94217615D01*
X97704886Y-94294703D01*
X97549456Y-94450125D01*
X97394051Y-94605553D01*
X33643681Y-292291565D02*
X33643551Y-292291779D01*
X128009109Y-288000092D02*
X127999962Y-288000031D01*
X91999550Y-224000046D02*
X81252765Y-234746858D01*
X78423805Y-237575819D01*
X71211679Y-244787947D01*
X63999580Y-252000076D01*
X107999474Y-50000015D02*
X109811136Y-48188352D01*
X111616034Y-46383452D01*
X112518456Y-45481003D01*
X113420845Y-44578552D01*
X139999451Y-150000092D02*
X138805858Y-151193658D01*
X137717214Y-152282324D01*
X136646608Y-153352953D01*
X135575958Y-154423584D01*
X5999633Y-38000038D02*
X4410989Y-39588612D01*
X3005124Y-40994461D01*
X1502328Y-42497239D01*
X-517Y-44000015D01*
X159999527Y-150000092D02*
X154407277Y-155592416D01*
X151221516Y-158778210D01*
X148035782Y-161964005D01*
X188277390Y-105722290D02*
X147999481Y-146000092D01*
X107999474Y-68000061D02*
X119187035Y-56812630D01*
X53999413Y-96000008D02*
X74778690Y-75220798D01*
X81096612Y-68902905D01*
X95347750Y-54651830D01*
X109598862Y-40400753D01*
X192170425Y-111829376D02*
X182932477Y-121067256D01*
X170239896Y-133759841D01*
X157999649Y-146000092D01*
X63999580Y-286000092D02*
X69538057Y-280461613D01*
X78768830Y-271230832D01*
X87999535Y-262000061D01*
X87999535Y-224000046D02*
X78859206Y-233140457D01*
X65553542Y-246446132D01*
X63999580Y-248000092D01*
X33643681Y-292291565D02*
X36381046Y-292291565D01*
X51999535Y-32000046D02*
X31803070Y-52196490D01*
X27095300Y-56904249D01*
X13547379Y-70452143D01*
X-517Y-84000038D01*
X91999550Y-320000122D02*
X127999672Y-284000122D01*
X11999525Y-38000038D02*
X-517Y-50000015D01*
X179967178Y-98032608D02*
X161448100Y-116551603D01*
X150989714Y-127009966D01*
X130049805Y-147949814D01*
X3999497Y-34000038D02*
X4747044Y-33252552D01*
X4988575Y-33011030D01*
X5494092Y-32505537D01*
X5999633Y-32000046D01*
X35999481Y-96000008D02*
X59360968Y-72638569D01*
X66235263Y-65764279D01*
X82255703Y-49743855D01*
X98276169Y-33723434D01*
X95999565Y-90000015D02*
X102269557Y-83730045D01*
X110262628Y-75736909D01*
X112298285Y-73701228D01*
X119943832Y-66055603D01*
X100561554Y-233438080D02*
X103001188Y-230998459D01*
X105148648Y-228850964D01*
X107572297Y-226427277D01*
X109995995Y-224003601D01*
X128009109Y-252000076D02*
X123937422Y-256071117D01*
X113968399Y-266038571D01*
X108983915Y-271022301D01*
X103999458Y-276006042D01*
X73166328Y-226833160D02*
X70829376Y-229170208D01*
X67166438Y-232833173D01*
X66821114Y-233178497D01*
X-517Y-62000072D02*
X23999567Y-38000038D01*
X29999460Y-90000015D02*
X50964777Y-69034724D01*
X55777263Y-64222249D01*
X68888400Y-51111142D01*
X81999512Y-38000038D01*
X63999580Y-258000061D02*
X76014374Y-245985247D01*
X80943467Y-241056159D01*
X89471529Y-232528104D01*
X97999565Y-224000046D01*
D23*
X174844818Y-274708344D02*
X177155563Y-274708344D01*
D10*
X21999432Y-92000023D02*
X42565339Y-71434084D01*
X49746433Y-64252991D01*
X62872908Y-51126513D01*
X75999359Y-38000038D01*
D32*
X148000107Y-68000114D02*
X154018402Y-68000114D01*
D10*
X39999493Y-32000046D02*
X-517Y-72000061D01*
D30*
X63999954Y-96000092D02*
X63999954Y-288000336D01*
D10*
X27999582Y-94000015D02*
X27213212Y-94786319D01*
X26969975Y-95029546D01*
X25999445Y-96000008D01*
X43999508Y-60000080D02*
X54951025Y-49048518D01*
X60475253Y-43524277D01*
X65999458Y-38000038D01*
X102005135Y-278000092D02*
X90877971Y-289125620D01*
X81561803Y-298440461D01*
X72780713Y-307220300D01*
X63999580Y-316000153D01*
X17999416Y-90000015D02*
X25587328Y-82412142D01*
X27775567Y-80223924D01*
X32887540Y-75111994D01*
X37999489Y-70000061D01*
X103999458Y-254000076D02*
X111076108Y-246923393D01*
X114313342Y-243686161D01*
X119686454Y-238313048D01*
X125059540Y-232939926D01*
X11999525Y-34000038D02*
X12749849Y-33249768D01*
X13886869Y-32112716D01*
X13999533Y-32000046D01*
X63999580Y-250000076D02*
X71140002Y-242859578D01*
X81807746Y-232191834D01*
X89999542Y-224000046D01*
X35999481Y-62000072D02*
X26753994Y-71245634D01*
X13362526Y-84637104D01*
X1999619Y-96000008D01*
X127999672Y-248000092D02*
X115476008Y-260523666D01*
X101999451Y-274000122D01*
X103999458Y-274000122D02*
X114702245Y-263297416D01*
X121350973Y-256648746D01*
X127999672Y-250000076D01*
X95999565Y-320000122D02*
X107237340Y-308765703D01*
X112946264Y-303058464D01*
X120477674Y-295529279D01*
X128009109Y-288000092D01*
X193418671Y-114580879D02*
X185069085Y-122930479D01*
X177286090Y-130713436D01*
X169642725Y-138356765D01*
X161999405Y-146000092D01*
X17999416Y-32000046D02*
X17356185Y-32643285D01*
X16677819Y-33321661D01*
X16338663Y-33660850D01*
X15999539Y-34000038D01*
X7999511Y-96000008D02*
X8965678Y-95033908D01*
X9482650Y-94516962D01*
X9999647Y-94000015D01*
X63999580Y-298000092D02*
X76576765Y-285422888D01*
X83995357Y-278004296D01*
X91413925Y-270585693D01*
X103298470Y-236701141D02*
X107173677Y-232825924D01*
X111075985Y-228923607D01*
X113027165Y-226972452D01*
X114978378Y-225021301D01*
X23999567Y-96000008D02*
X25517080Y-94482456D01*
X27448010Y-92551574D01*
X27969278Y-92030326D01*
X27999582Y-92000023D01*
X99999573Y-90000015D02*
X106934821Y-83064757D01*
X110207887Y-79791669D01*
X114752678Y-75246849D01*
X119297493Y-70702026D01*
X83999390Y-224000046D02*
X77278993Y-230720509D01*
X74456616Y-233542929D01*
X69228112Y-238771508D01*
X63999580Y-244000076D01*
X99999573Y-320000122D02*
X100000761Y-319998935D01*
X128009109Y-292000092D01*
X25999445Y-32000046D02*
X25353954Y-32645544D01*
X24676717Y-33322791D01*
X24338125Y-33661415D01*
X23999567Y-34000038D01*
X19999554Y-94000015D02*
X19216386Y-94783117D01*
X18965869Y-95033623D01*
X17999416Y-96000008D01*
D33*
X27999969Y-292291565D02*
X31189180Y-292291565D01*
D10*
X33999474Y-32000046D02*
X-517Y-66000061D01*
X3999497Y-32000046D02*
X2493345Y-33506181D01*
X1968956Y-34030574D01*
X984232Y-35015306D01*
X-517Y-36000038D01*
X41999500Y-66000061D02*
X55540470Y-52459069D01*
X62769984Y-45229554D01*
X69999474Y-38000038D01*
X99999573Y-92000023D02*
X107314087Y-84685512D01*
X109576999Y-82422591D01*
X118604897Y-73394684D01*
X128009109Y-298000092D02*
X122731514Y-303275343D01*
X116346301Y-309657797D01*
X111172906Y-314828961D01*
X105999466Y-320000122D01*
X27163069Y-292379761D02*
X25835890Y-292379761D01*
X25835890Y-292203369D01*
X27163069Y-292203369D01*
X27163069Y-292379761D01*
G36*
X27163069Y-292379761D02*
G01*
X25835890Y-292379761D01*
X25835890Y-292203369D01*
X27163069Y-292203369D01*
X27163069Y-292379761D01*
G37*
X63999580Y-96000008D02*
X77710241Y-82289383D01*
X82870543Y-77129082D01*
X99999573Y-60000080D01*
X103999458Y-256000061D02*
X125799294Y-234200363D01*
D23*
X177155563Y-274708344D02*
X177155563Y-276000031D01*
D10*
X103999458Y-244000076D02*
X108587141Y-239412381D01*
X111962757Y-236036791D01*
X116096272Y-231903305D01*
X120229736Y-227769821D01*
X81999512Y-32000046D02*
X81260135Y-32739359D01*
X80984736Y-33014747D01*
X80492067Y-33507393D01*
X79999374Y-34000038D01*
D20*
X161636512Y-273511482D02*
X161763056Y-273521104D01*
X161887760Y-273536950D01*
X162010467Y-273558862D01*
X162131021Y-273586685D01*
X162249265Y-273620261D01*
X162365044Y-273659435D01*
X162478199Y-273704050D01*
X162588576Y-273753948D01*
X162696016Y-273808974D01*
X162800364Y-273868971D01*
X162901463Y-273933782D01*
X162999157Y-274003252D01*
X163093288Y-274077222D01*
X163183701Y-274155537D01*
X163270239Y-274238041D01*
X163352745Y-274324576D01*
X163431062Y-274414986D01*
X163505035Y-274509115D01*
X163574506Y-274606806D01*
X163639320Y-274707902D01*
X163699318Y-274812246D01*
X163754346Y-274919684D01*
X163804246Y-275030056D01*
X163848861Y-275143209D01*
X163888036Y-275258983D01*
X163921614Y-275377224D01*
X163949437Y-275497774D01*
X163971350Y-275620477D01*
X163987196Y-275745177D01*
X163996819Y-275871716D01*
X164000061Y-275999939D01*
X164000061Y-276000275D01*
X163996819Y-276128497D01*
X163987196Y-276255037D01*
X163971350Y-276379738D01*
X163949437Y-276502442D01*
X163921614Y-276622994D01*
X163888036Y-276741236D01*
X163848861Y-276857013D01*
X163804246Y-276970167D01*
X163754346Y-277080542D01*
X163699318Y-277187981D01*
X163639320Y-277292329D01*
X163574506Y-277393427D01*
X163505035Y-277491121D01*
X163431062Y-277585252D01*
X163352745Y-277675665D01*
X163270239Y-277762203D01*
X163183701Y-277844710D01*
X163093288Y-277923028D01*
X162999157Y-277997001D01*
X162901463Y-278066473D01*
X162800364Y-278131287D01*
X162696016Y-278191286D01*
X162588576Y-278246315D01*
X162478199Y-278296216D01*
X162365044Y-278340832D01*
X162249265Y-278380008D01*
X162131021Y-278413586D01*
X162010467Y-278441410D01*
X161887760Y-278463323D01*
X161763056Y-278479170D01*
X161636512Y-278488793D01*
X161508286Y-278492035D01*
X158491806Y-278492035D01*
X158363582Y-278488793D01*
X158237040Y-278479170D01*
X158112338Y-278463323D01*
X157989632Y-278441410D01*
X157869079Y-278413586D01*
X157750835Y-278380008D01*
X157635056Y-278340832D01*
X157521900Y-278296216D01*
X157411523Y-278246315D01*
X157304082Y-278191286D01*
X157199733Y-278131287D01*
X157098632Y-278066473D01*
X157000937Y-277997001D01*
X156906803Y-277923028D01*
X156816389Y-277844710D01*
X156729849Y-277762203D01*
X156647341Y-277675665D01*
X156569021Y-277585252D01*
X156495046Y-277491121D01*
X156425572Y-277393427D01*
X156360757Y-277292329D01*
X156300756Y-277187981D01*
X156245726Y-277080542D01*
X156195824Y-276970167D01*
X156151207Y-276857013D01*
X156112030Y-276741236D01*
X156078451Y-276622994D01*
X156050626Y-276502442D01*
X156028712Y-276379738D01*
X156012865Y-276255037D01*
X156003242Y-276128497D01*
X156000000Y-276000275D01*
X156000000Y-275999939D01*
X156003242Y-275871716D01*
X156012865Y-275745177D01*
X156028712Y-275620477D01*
X156050626Y-275497774D01*
X156078451Y-275377224D01*
X156112030Y-275258983D01*
X156151207Y-275143209D01*
X156195824Y-275030056D01*
X156245726Y-274919684D01*
X156300756Y-274812246D01*
X156360757Y-274707902D01*
X156425572Y-274606806D01*
X156495046Y-274509115D01*
X156569021Y-274414986D01*
X156647341Y-274324576D01*
X156729849Y-274238041D01*
X156816389Y-274155537D01*
X156906803Y-274077222D01*
X157000937Y-274003252D01*
X157098632Y-273933782D01*
X157199733Y-273868971D01*
X157304082Y-273808974D01*
X157411523Y-273753948D01*
X157521900Y-273704050D01*
X157635056Y-273659435D01*
X157750835Y-273620261D01*
X157869079Y-273586685D01*
X157989632Y-273558862D01*
X158112338Y-273536950D01*
X158237040Y-273521104D01*
X158363582Y-273511482D01*
X158491806Y-273508240D01*
X161508286Y-273508240D01*
X161636512Y-273511482D01*
D10*
X47999523Y-90000015D02*
X71764108Y-66235443D01*
X102518288Y-35481277D01*
X153366470Y-92633072D02*
X147031278Y-98968331D01*
X138866784Y-107132825D01*
X131747703Y-114251902D01*
X128188185Y-117811441D01*
X124628693Y-121370979D01*
X75999359Y-90000015D02*
X86425376Y-79574066D01*
X90261584Y-75737871D01*
X97130510Y-68868971D01*
X103999458Y-62000072D01*
X63999580Y-268000122D02*
X67619659Y-264379956D01*
X72753373Y-259246221D01*
X77999496Y-254000076D01*
D28*
X127999939Y-288000092D02*
X128009109Y-288000092D01*
D10*
X-517Y-78000038D02*
X18158590Y-59841006D01*
X23288268Y-54711340D01*
X34643944Y-43355694D01*
X45999645Y-32000046D01*
X23999567Y-32000046D02*
X23265491Y-32734059D01*
X22981316Y-33018223D01*
X22490386Y-33509131D01*
X21999432Y-34000038D01*
X83999390Y-38000038D02*
X66334377Y-55665099D01*
X49166965Y-72832559D01*
X40583231Y-81416288D01*
X31999466Y-90000015D01*
X49999401Y-90000015D02*
X70500759Y-69498718D01*
X101079134Y-38920321D01*
X103829575Y-36169876D01*
X63999580Y-278000092D02*
X87999535Y-254000076D01*
D20*
X33634319Y-145511451D02*
X33760862Y-145521074D01*
X33885566Y-145536920D01*
X34008273Y-145558833D01*
X34128827Y-145586656D01*
X34247072Y-145620234D01*
X34362850Y-145659408D01*
X34476005Y-145704024D01*
X34586381Y-145753923D01*
X34693822Y-145808950D01*
X34798170Y-145868948D01*
X34899269Y-145933761D01*
X34996962Y-146003231D01*
X35091093Y-146077203D01*
X35181506Y-146155519D01*
X35268044Y-146238024D01*
X35350549Y-146324560D01*
X35428867Y-146414971D01*
X35502839Y-146509101D01*
X35572310Y-146606792D01*
X35637123Y-146707889D01*
X35697122Y-146812234D01*
X35752149Y-146919672D01*
X35802049Y-147030045D01*
X35846665Y-147143198D01*
X35885839Y-147258972D01*
X35919417Y-147377213D01*
X35947240Y-147497763D01*
X35969153Y-147620465D01*
X35984999Y-147745164D01*
X35994622Y-147871702D01*
X35997864Y-147999924D01*
X35997864Y-148000275D01*
X35994622Y-148128496D01*
X35984999Y-148255034D01*
X35969153Y-148379733D01*
X35947240Y-148502436D01*
X35919417Y-148622986D01*
X35885839Y-148741226D01*
X35846665Y-148857001D01*
X35802049Y-148970153D01*
X35752149Y-149080526D01*
X35697122Y-149187964D01*
X35637123Y-149292309D01*
X35572310Y-149393406D01*
X35502839Y-149491098D01*
X35428867Y-149585227D01*
X35350549Y-149675638D01*
X35268044Y-149762175D01*
X35181506Y-149844679D01*
X35091093Y-149922996D01*
X34996962Y-149996967D01*
X34899269Y-150066438D01*
X34798170Y-150131250D01*
X34693822Y-150191248D01*
X34586381Y-150246275D01*
X34476005Y-150296175D01*
X34362850Y-150340790D01*
X34247072Y-150379965D01*
X34128827Y-150413542D01*
X34008273Y-150441365D01*
X33885566Y-150463278D01*
X33760862Y-150479124D01*
X33634319Y-150488747D01*
X33506092Y-150491989D01*
X30489611Y-150491989D01*
X30361386Y-150488747D01*
X30234845Y-150479124D01*
X30110143Y-150463278D01*
X29987437Y-150441365D01*
X29866884Y-150413542D01*
X29748639Y-150379965D01*
X29632861Y-150340790D01*
X29519705Y-150296175D01*
X29409328Y-150246275D01*
X29301887Y-150191248D01*
X29197537Y-150131250D01*
X29096437Y-150066438D01*
X28998741Y-149996967D01*
X28904608Y-149922996D01*
X28814193Y-149844679D01*
X28727653Y-149762175D01*
X28645145Y-149675638D01*
X28566826Y-149585227D01*
X28492851Y-149491098D01*
X28423377Y-149393406D01*
X28358562Y-149292309D01*
X28298561Y-149187964D01*
X28243531Y-149080526D01*
X28193629Y-148970153D01*
X28149011Y-148857001D01*
X28109835Y-148741226D01*
X28076256Y-148622986D01*
X28048431Y-148502436D01*
X28026517Y-148379733D01*
X28010670Y-148255034D01*
X28001047Y-148128496D01*
X27997805Y-148000275D01*
X27997805Y-147999924D01*
X28001047Y-147871702D01*
X28010670Y-147745164D01*
X28026517Y-147620465D01*
X28048431Y-147497763D01*
X28076256Y-147377213D01*
X28109835Y-147258972D01*
X28149011Y-147143198D01*
X28193629Y-147030045D01*
X28243531Y-146919672D01*
X28298561Y-146812234D01*
X28358562Y-146707889D01*
X28423377Y-146606792D01*
X28492851Y-146509101D01*
X28566826Y-146414971D01*
X28645145Y-146324560D01*
X28727653Y-146238024D01*
X28814193Y-146155519D01*
X28904608Y-146077203D01*
X28998741Y-146003231D01*
X29096437Y-145933761D01*
X29197537Y-145868948D01*
X29301887Y-145808950D01*
X29409328Y-145753923D01*
X29519705Y-145704024D01*
X29632861Y-145659408D01*
X29748639Y-145620234D01*
X29866884Y-145586656D01*
X29987437Y-145558833D01*
X30110143Y-145536920D01*
X30234845Y-145521074D01*
X30361386Y-145511451D01*
X30489611Y-145508209D01*
X33506092Y-145508209D01*
X33634319Y-145511451D01*
D10*
X145999603Y-150000092D02*
X138866837Y-157132919D01*
D34*
X127999962Y-144478531D02*
X127999962Y-156000000D01*
D10*
X101999451Y-54000004D02*
X86302794Y-69696716D01*
X80107618Y-75891901D01*
X70053579Y-85945956D01*
X59999565Y-96000008D01*
X63999580Y-294000092D02*
X77060613Y-280938896D01*
X79999374Y-278000092D01*
X174816193Y-95183563D02*
X156169818Y-113829935D01*
X149236859Y-120762905D01*
X127192879Y-142806900D01*
X59999565Y-32000046D02*
X55026082Y-36973445D01*
X47545714Y-44453801D01*
X41999500Y-50000015D01*
X176178253Y-95821281D02*
X163746212Y-108253394D01*
X152263702Y-119735921D01*
X140054666Y-131944976D01*
X127845680Y-144154037D01*
D20*
X241636529Y-145511451D02*
X241763074Y-145521074D01*
X241887778Y-145536920D01*
X242010486Y-145558833D01*
X242131041Y-145586656D01*
X242249286Y-145620234D01*
X242365065Y-145659408D01*
X242478221Y-145704024D01*
X242588597Y-145753923D01*
X242696038Y-145808950D01*
X242800386Y-145868948D01*
X242901485Y-145933761D01*
X242999179Y-146003231D01*
X243093310Y-146077203D01*
X243183723Y-146155519D01*
X243270260Y-146238024D01*
X243352765Y-146324560D01*
X243431083Y-146414971D01*
X243505055Y-146509101D01*
X243574526Y-146606792D01*
X243639338Y-146707889D01*
X243699337Y-146812234D01*
X243754364Y-146919672D01*
X243804263Y-147030045D01*
X243848878Y-147143198D01*
X243888053Y-147258972D01*
X243921630Y-147377213D01*
X243949453Y-147497763D01*
X243971366Y-147620465D01*
X243987212Y-147745164D01*
X243996834Y-147871702D01*
X244000076Y-147999924D01*
X244000076Y-148000275D01*
X243996834Y-148128496D01*
X243987212Y-148255034D01*
X243971366Y-148379733D01*
X243949453Y-148502436D01*
X243921630Y-148622986D01*
X243888053Y-148741226D01*
X243848878Y-148857001D01*
X243804263Y-148970153D01*
X243754364Y-149080526D01*
X243699337Y-149187964D01*
X243639338Y-149292309D01*
X243574526Y-149393406D01*
X243505055Y-149491098D01*
X243431083Y-149585227D01*
X243352765Y-149675638D01*
X243270260Y-149762175D01*
X243183723Y-149844679D01*
X243093310Y-149922996D01*
X242999179Y-149996967D01*
X242901485Y-150066438D01*
X242800386Y-150131250D01*
X242696038Y-150191248D01*
X242588597Y-150246275D01*
X242478221Y-150296175D01*
X242365065Y-150340790D01*
X242249286Y-150379965D01*
X242131041Y-150413542D01*
X242010486Y-150441365D01*
X241887778Y-150463278D01*
X241763074Y-150479124D01*
X241636529Y-150488747D01*
X241508301Y-150491989D01*
X238491821Y-150491989D01*
X238363597Y-150488747D01*
X238237056Y-150479124D01*
X238112354Y-150463278D01*
X237989648Y-150441365D01*
X237869094Y-150413542D01*
X237750850Y-150379965D01*
X237635072Y-150340790D01*
X237521916Y-150296175D01*
X237411539Y-150246275D01*
X237304097Y-150191248D01*
X237199748Y-150131250D01*
X237098647Y-150066438D01*
X237000952Y-149996967D01*
X236906819Y-149922996D01*
X236816404Y-149844679D01*
X236729864Y-149762175D01*
X236647356Y-149675638D01*
X236569036Y-149585227D01*
X236495061Y-149491098D01*
X236425588Y-149393406D01*
X236360772Y-149292309D01*
X236300771Y-149187964D01*
X236245742Y-149080526D01*
X236195840Y-148970153D01*
X236151222Y-148857001D01*
X236112046Y-148741226D01*
X236078467Y-148622986D01*
X236050642Y-148502436D01*
X236028727Y-148379733D01*
X236012881Y-148255034D01*
X236003258Y-148128496D01*
X236000015Y-148000275D01*
X236000015Y-147999924D01*
X236003258Y-147871702D01*
X236012881Y-147745164D01*
X236028727Y-147620465D01*
X236050642Y-147497763D01*
X236078467Y-147377213D01*
X236112046Y-147258972D01*
X236151222Y-147143198D01*
X236195840Y-147030045D01*
X236245742Y-146919672D01*
X236300771Y-146812234D01*
X236360772Y-146707889D01*
X236425588Y-146606792D01*
X236495061Y-146509101D01*
X236569036Y-146414971D01*
X236647356Y-146324560D01*
X236729864Y-146238024D01*
X236816404Y-146155519D01*
X236906819Y-146077203D01*
X237000952Y-146003231D01*
X237098647Y-145933761D01*
X237199748Y-145868948D01*
X237304097Y-145808950D01*
X237411539Y-145753923D01*
X237521916Y-145704024D01*
X237635072Y-145659408D01*
X237750850Y-145620234D01*
X237869094Y-145586656D01*
X237989648Y-145558833D01*
X238112354Y-145536920D01*
X238237056Y-145521074D01*
X238363597Y-145511451D01*
X238491821Y-145508209D01*
X241508301Y-145508209D01*
X241636529Y-145511451D01*
D10*
X192829300Y-113170250D02*
X176779188Y-129220395D01*
X159999527Y-146000092D01*
X119999390Y-320000122D02*
X127999672Y-312000153D01*
X107999474Y-60000080D02*
X111722561Y-56276970D01*
X112658382Y-55341136D01*
X117153824Y-50845657D01*
X115999504Y-320000122D02*
X128009109Y-308000061D01*
X101999451Y-50000015D02*
X110628128Y-41371376D01*
X91999550Y-94000015D02*
X91453500Y-94546037D01*
X90983484Y-95016072D01*
X90491537Y-95508038D01*
X89999542Y-96000008D01*
D20*
X49636509Y-145511451D02*
X49763052Y-145521074D01*
X49887756Y-145536920D01*
X50010463Y-145558833D01*
X50131017Y-145586656D01*
X50249261Y-145620234D01*
X50365039Y-145659408D01*
X50478195Y-145704024D01*
X50588571Y-145753923D01*
X50696011Y-145808950D01*
X50800359Y-145868948D01*
X50901458Y-145933761D01*
X50999152Y-146003231D01*
X51093283Y-146077203D01*
X51183696Y-146155519D01*
X51270233Y-146238024D01*
X51352739Y-146324560D01*
X51431056Y-146414971D01*
X51505029Y-146509101D01*
X51574500Y-146606792D01*
X51639313Y-146707889D01*
X51699312Y-146812234D01*
X51754339Y-146919672D01*
X51804239Y-147030045D01*
X51848854Y-147143198D01*
X51888029Y-147258972D01*
X51921606Y-147377213D01*
X51949430Y-147497763D01*
X51971343Y-147620465D01*
X51987189Y-147745164D01*
X51996811Y-147871702D01*
X52000053Y-147999924D01*
X52000053Y-148000275D01*
X51996811Y-148128496D01*
X51987189Y-148255034D01*
X51971343Y-148379733D01*
X51949430Y-148502436D01*
X51921606Y-148622986D01*
X51888029Y-148741226D01*
X51848854Y-148857001D01*
X51804239Y-148970153D01*
X51754339Y-149080526D01*
X51699312Y-149187964D01*
X51639313Y-149292309D01*
X51574500Y-149393406D01*
X51505029Y-149491098D01*
X51431056Y-149585227D01*
X51352739Y-149675638D01*
X51270233Y-149762175D01*
X51183696Y-149844679D01*
X51093283Y-149922996D01*
X50999152Y-149996967D01*
X50901458Y-150066438D01*
X50800359Y-150131250D01*
X50696011Y-150191248D01*
X50588571Y-150246275D01*
X50478195Y-150296175D01*
X50365039Y-150340790D01*
X50249261Y-150379965D01*
X50131017Y-150413542D01*
X50010463Y-150441365D01*
X49887756Y-150463278D01*
X49763052Y-150479124D01*
X49636509Y-150488747D01*
X49508282Y-150491989D01*
X46491798Y-150491989D01*
X46363574Y-150488747D01*
X46237033Y-150479124D01*
X46112331Y-150463278D01*
X45989625Y-150441365D01*
X45869071Y-150413542D01*
X45750827Y-150379965D01*
X45635049Y-150340790D01*
X45521893Y-150296175D01*
X45411516Y-150246275D01*
X45304074Y-150191248D01*
X45199725Y-150131250D01*
X45098624Y-150066438D01*
X45000929Y-149996967D01*
X44906796Y-149922996D01*
X44816381Y-149844679D01*
X44729841Y-149762175D01*
X44647333Y-149675638D01*
X44569013Y-149585227D01*
X44495038Y-149491098D01*
X44425565Y-149393406D01*
X44360749Y-149292309D01*
X44300748Y-149187964D01*
X44245719Y-149080526D01*
X44195817Y-148970153D01*
X44151199Y-148857001D01*
X44112023Y-148741226D01*
X44078444Y-148622986D01*
X44050619Y-148502436D01*
X44028705Y-148379733D01*
X44012858Y-148255034D01*
X44003235Y-148128496D01*
X43999992Y-148000275D01*
X43999992Y-147999924D01*
X44003235Y-147871702D01*
X44012858Y-147745164D01*
X44028705Y-147620465D01*
X44050619Y-147497763D01*
X44078444Y-147377213D01*
X44112023Y-147258972D01*
X44151199Y-147143198D01*
X44195817Y-147030045D01*
X44245719Y-146919672D01*
X44300748Y-146812234D01*
X44360749Y-146707889D01*
X44425565Y-146606792D01*
X44495038Y-146509101D01*
X44569013Y-146414971D01*
X44647333Y-146324560D01*
X44729841Y-146238024D01*
X44816381Y-146155519D01*
X44906796Y-146077203D01*
X45000929Y-146003231D01*
X45098624Y-145933761D01*
X45199725Y-145868948D01*
X45304074Y-145808950D01*
X45411516Y-145753923D01*
X45521893Y-145704024D01*
X45635049Y-145659408D01*
X45750827Y-145620234D01*
X45869071Y-145586656D01*
X45989625Y-145558833D01*
X46112331Y-145536920D01*
X46237033Y-145521074D01*
X46363574Y-145511451D01*
X46491798Y-145508209D01*
X49508282Y-145508209D01*
X49636509Y-145511451D01*
D10*
X165579941Y-92419708D02*
X124437614Y-133562134D01*
X55999550Y-32000046D02*
X50964540Y-37034974D01*
X43389019Y-44610484D01*
X37999489Y-50000015D01*
D20*
X177636543Y-65511436D02*
X177763086Y-65521059D01*
X177887790Y-65536904D01*
X178010497Y-65558817D01*
X178131050Y-65586641D01*
X178249294Y-65620218D01*
X178365072Y-65659392D01*
X178478227Y-65704007D01*
X178588603Y-65753907D01*
X178696043Y-65808933D01*
X178800390Y-65868931D01*
X178901489Y-65933743D01*
X178999182Y-66003214D01*
X179093313Y-66077185D01*
X179183725Y-66155501D01*
X179270262Y-66238006D01*
X179352767Y-66324542D01*
X179431084Y-66414953D01*
X179505056Y-66509082D01*
X179574526Y-66606774D01*
X179639339Y-66707870D01*
X179699337Y-66812216D01*
X179754364Y-66919653D01*
X179804263Y-67030027D01*
X179848878Y-67143179D01*
X179888053Y-67258954D01*
X179921630Y-67377195D01*
X179949453Y-67497745D01*
X179971366Y-67620448D01*
X179987212Y-67745147D01*
X179996834Y-67871686D01*
X180000076Y-67999908D01*
X180000076Y-68000252D01*
X179996834Y-68128474D01*
X179987212Y-68255013D01*
X179971366Y-68379712D01*
X179949453Y-68502415D01*
X179921630Y-68622966D01*
X179888053Y-68741207D01*
X179848878Y-68856982D01*
X179804263Y-68970135D01*
X179754364Y-69080508D01*
X179699337Y-69187946D01*
X179639339Y-69292292D01*
X179574526Y-69393389D01*
X179505056Y-69491081D01*
X179431084Y-69585211D01*
X179352767Y-69675622D01*
X179270262Y-69762158D01*
X179183725Y-69844663D01*
X179093313Y-69922980D01*
X178999182Y-69996951D01*
X178901489Y-70066422D01*
X178800390Y-70131235D01*
X178696043Y-70191233D01*
X178588603Y-70246260D01*
X178478227Y-70296159D01*
X178365072Y-70340775D01*
X178249294Y-70379949D01*
X178131050Y-70413527D01*
X178010497Y-70441350D01*
X177887790Y-70463263D01*
X177763086Y-70479109D01*
X177636543Y-70488732D01*
X177508316Y-70491974D01*
X174491821Y-70491974D01*
X174363597Y-70488732D01*
X174237056Y-70479109D01*
X174112354Y-70463263D01*
X173989648Y-70441350D01*
X173869094Y-70413527D01*
X173750850Y-70379949D01*
X173635072Y-70340775D01*
X173521916Y-70296159D01*
X173411539Y-70246260D01*
X173304097Y-70191233D01*
X173199748Y-70131235D01*
X173098647Y-70066422D01*
X173000952Y-69996951D01*
X172906819Y-69922980D01*
X172816404Y-69844663D01*
X172729864Y-69762158D01*
X172647356Y-69675622D01*
X172569036Y-69585211D01*
X172495061Y-69491081D01*
X172425588Y-69393389D01*
X172360772Y-69292292D01*
X172300771Y-69187946D01*
X172245742Y-69080508D01*
X172195840Y-68970135D01*
X172151222Y-68856982D01*
X172112046Y-68741207D01*
X172078467Y-68622966D01*
X172050642Y-68502415D01*
X172028727Y-68379712D01*
X172012881Y-68255013D01*
X172003258Y-68128474D01*
X172000015Y-68000252D01*
X172000015Y-67999908D01*
X172003258Y-67871686D01*
X172012881Y-67745147D01*
X172028727Y-67620448D01*
X172050642Y-67497745D01*
X172078467Y-67377195D01*
X172112046Y-67258954D01*
X172151222Y-67143179D01*
X172195840Y-67030027D01*
X172245742Y-66919653D01*
X172300771Y-66812216D01*
X172360772Y-66707870D01*
X172425588Y-66606774D01*
X172495061Y-66509082D01*
X172569036Y-66414953D01*
X172647356Y-66324542D01*
X172729864Y-66238006D01*
X172816404Y-66155501D01*
X172906819Y-66077185D01*
X173000952Y-66003214D01*
X173098647Y-65933743D01*
X173199748Y-65868931D01*
X173304097Y-65808933D01*
X173411539Y-65753907D01*
X173521916Y-65704007D01*
X173635072Y-65659392D01*
X173750850Y-65620218D01*
X173869094Y-65586641D01*
X173989648Y-65558817D01*
X174112354Y-65536904D01*
X174237056Y-65521059D01*
X174363597Y-65511436D01*
X174491821Y-65508194D01*
X177508316Y-65508194D01*
X177636543Y-65511436D01*
D10*
X122004303Y-320000122D02*
X127999672Y-314000122D01*
X63999580Y-320000122D02*
X79446187Y-304553489D01*
X86071658Y-297927991D01*
X97035554Y-286964054D01*
X107999474Y-276000122D01*
X81999512Y-90000015D02*
X101999451Y-70000061D01*
X-517Y-90000015D02*
X35999481Y-54000004D01*
X77999496Y-32017231D02*
X77223953Y-32786050D01*
X77019021Y-32989212D01*
X76509202Y-33494625D01*
X75999359Y-34000038D01*
D20*
X49636509Y-273511482D02*
X49763052Y-273521104D01*
X49887756Y-273536950D01*
X50010463Y-273558862D01*
X50131017Y-273586685D01*
X50249261Y-273620261D01*
X50365039Y-273659435D01*
X50478195Y-273704050D01*
X50588571Y-273753948D01*
X50696011Y-273808974D01*
X50800359Y-273868971D01*
X50901458Y-273933782D01*
X50999152Y-274003252D01*
X51093283Y-274077222D01*
X51183696Y-274155537D01*
X51270233Y-274238041D01*
X51352739Y-274324576D01*
X51431056Y-274414986D01*
X51505029Y-274509115D01*
X51574500Y-274606806D01*
X51639313Y-274707902D01*
X51699312Y-274812246D01*
X51754339Y-274919684D01*
X51804239Y-275030056D01*
X51848854Y-275143209D01*
X51888029Y-275258983D01*
X51921606Y-275377224D01*
X51949430Y-275497774D01*
X51971343Y-275620477D01*
X51987189Y-275745177D01*
X51996811Y-275871716D01*
X52000053Y-275999939D01*
X52000053Y-276000275D01*
X51996811Y-276128497D01*
X51987189Y-276255037D01*
X51971343Y-276379738D01*
X51949430Y-276502442D01*
X51921606Y-276622994D01*
X51888029Y-276741236D01*
X51848854Y-276857013D01*
X51804239Y-276970167D01*
X51754339Y-277080542D01*
X51699312Y-277187981D01*
X51639313Y-277292329D01*
X51574500Y-277393427D01*
X51505029Y-277491121D01*
X51431056Y-277585252D01*
X51352739Y-277675665D01*
X51270233Y-277762203D01*
X51183696Y-277844710D01*
X51093283Y-277923028D01*
X50999152Y-277997001D01*
X50901458Y-278066473D01*
X50800359Y-278131287D01*
X50696011Y-278191286D01*
X50588571Y-278246315D01*
X50478195Y-278296216D01*
X50365039Y-278340832D01*
X50249261Y-278380008D01*
X50131017Y-278413586D01*
X50010463Y-278441410D01*
X49887756Y-278463323D01*
X49763052Y-278479170D01*
X49636509Y-278488793D01*
X49508282Y-278492035D01*
X46491798Y-278492035D01*
X46363574Y-278488793D01*
X46237033Y-278479170D01*
X46112331Y-278463323D01*
X45989625Y-278441410D01*
X45869071Y-278413586D01*
X45750827Y-278380008D01*
X45635049Y-278340832D01*
X45521893Y-278296216D01*
X45411516Y-278246315D01*
X45304074Y-278191286D01*
X45199725Y-278131287D01*
X45098624Y-278066473D01*
X45000929Y-277997001D01*
X44906796Y-277923028D01*
X44816381Y-277844710D01*
X44729841Y-277762203D01*
X44647333Y-277675665D01*
X44569013Y-277585252D01*
X44495038Y-277491121D01*
X44425565Y-277393427D01*
X44360749Y-277292329D01*
X44300748Y-277187981D01*
X44245719Y-277080542D01*
X44195817Y-276970167D01*
X44151199Y-276857013D01*
X44112023Y-276741236D01*
X44078444Y-276622994D01*
X44050619Y-276502442D01*
X44028705Y-276379738D01*
X44012858Y-276255037D01*
X44003235Y-276128497D01*
X43999992Y-276000275D01*
X43999992Y-275999939D01*
X44003235Y-275871716D01*
X44012858Y-275745177D01*
X44028705Y-275620477D01*
X44050619Y-275497774D01*
X44078444Y-275377224D01*
X44112023Y-275258983D01*
X44151199Y-275143209D01*
X44195817Y-275030056D01*
X44245719Y-274919684D01*
X44300748Y-274812246D01*
X44360749Y-274707902D01*
X44425565Y-274606806D01*
X44495038Y-274509115D01*
X44569013Y-274414986D01*
X44647333Y-274324576D01*
X44729841Y-274238041D01*
X44816381Y-274155537D01*
X44906796Y-274077222D01*
X45000929Y-274003252D01*
X45098624Y-273933782D01*
X45199725Y-273868971D01*
X45304074Y-273808974D01*
X45411516Y-273753948D01*
X45521893Y-273704050D01*
X45635049Y-273659435D01*
X45750827Y-273620261D01*
X45869071Y-273586685D01*
X45989625Y-273558862D01*
X46112331Y-273536950D01*
X46237033Y-273521104D01*
X46363574Y-273511482D01*
X46491798Y-273508240D01*
X49508282Y-273508240D01*
X49636509Y-273511482D01*
D10*
X77999496Y-96000008D02*
X78703368Y-95296123D01*
X79351413Y-94648069D01*
X79675409Y-94324042D01*
X79999374Y-94000015D01*
X93999557Y-274000122D02*
X94508707Y-273491002D01*
X95001282Y-272998401D01*
X95500399Y-272499259D01*
X95999565Y-272000122D01*
X173416016Y-94583542D02*
X126595627Y-141403976D01*
X45999645Y-96000008D02*
X46207285Y-95789208D01*
X47088460Y-94894610D01*
X47529020Y-94447313D01*
X47969551Y-94000015D01*
X39999493Y-50000015D02*
X42137010Y-47862507D01*
X50068261Y-39931276D01*
X54033859Y-35965662D01*
X57999428Y-32000046D01*
X196007660Y-127991997D02*
X186253222Y-137746380D01*
X177999466Y-146000092D01*
X193936218Y-140063599D02*
X172092072Y-161907791D01*
X79999374Y-320000122D02*
X101613118Y-298386502D01*
X107219106Y-292780554D01*
X127999672Y-272000122D01*
X7999511Y-34000038D02*
X8752656Y-33246953D01*
X8984763Y-33014856D01*
X9492193Y-32507450D01*
X9999647Y-32000046D01*
X111999489Y-278000092D02*
X101657723Y-288341889D01*
X91266146Y-298733441D01*
X80632785Y-309366776D01*
X69999474Y-320000122D01*
X147912155Y-94087471D02*
X140810624Y-101188998D01*
X126100304Y-115899300D01*
X103999458Y-252000076D02*
X113467626Y-242531916D01*
X118859204Y-237140333D01*
X124250809Y-231748749D01*
X81999512Y-94000015D02*
X81216344Y-94783117D01*
X80965827Y-95033623D01*
X79999374Y-96000008D01*
X57999428Y-96000008D02*
X69203041Y-84796491D01*
X86538016Y-67461547D01*
X99999573Y-54000004D01*
D35*
X176411645Y-48010512D02*
X176817917Y-48041404D01*
X177218282Y-48092277D01*
X177612237Y-48162628D01*
X177999281Y-48251954D01*
X178378909Y-48359753D01*
X178750620Y-48485522D01*
X179113911Y-48628759D01*
X179468279Y-48788961D01*
X179813222Y-48965625D01*
X180148237Y-49158249D01*
X180472821Y-49366331D01*
X180786471Y-49589367D01*
X181088686Y-49826855D01*
X181378961Y-50078293D01*
X181656796Y-50343178D01*
X181921686Y-50621007D01*
X182173129Y-50911278D01*
X182410623Y-51213488D01*
X182633665Y-51527134D01*
X182841752Y-51851715D01*
X183034382Y-52186727D01*
X183211052Y-52531667D01*
X183371259Y-52886034D01*
X183514501Y-53249325D01*
X183640275Y-53621037D01*
X183748078Y-54000667D01*
X183837407Y-54387713D01*
X183907761Y-54781672D01*
X183958636Y-55182042D01*
X183989529Y-55588320D01*
X183999939Y-56000004D01*
X183999939Y-80000084D01*
X183989529Y-80411768D01*
X183958636Y-80818047D01*
X183907761Y-81218417D01*
X183837407Y-81612378D01*
X183748078Y-81999426D01*
X183640275Y-82379058D01*
X183514501Y-82750771D01*
X183371259Y-83114064D01*
X183211052Y-83468434D01*
X183034382Y-83813377D01*
X182841752Y-84148392D01*
X182633665Y-84472975D01*
X182410623Y-84786625D01*
X182173129Y-85088838D01*
X181921686Y-85379112D01*
X181656796Y-85656944D01*
X181378961Y-85921832D01*
X181088686Y-86173273D01*
X180786471Y-86410765D01*
X180472821Y-86633804D01*
X180148237Y-86841888D01*
X179813222Y-87034515D01*
X179468279Y-87211182D01*
X179113911Y-87371387D01*
X178750620Y-87514626D01*
X178378909Y-87640397D01*
X177999281Y-87748198D01*
X177612237Y-87837525D01*
X177218282Y-87907878D01*
X176817917Y-87958751D01*
X176411645Y-87989644D01*
X175999969Y-88000053D01*
X175999908Y-88000053D01*
X175588230Y-87989644D01*
X175181956Y-87958751D01*
X174781589Y-87907878D01*
X174387632Y-87837525D01*
X174000587Y-87748198D01*
X173620957Y-87640397D01*
X173249246Y-87514626D01*
X172885954Y-87371387D01*
X172531585Y-87211182D01*
X172186642Y-87034515D01*
X171851628Y-86841888D01*
X171527044Y-86633804D01*
X171213394Y-86410765D01*
X170911180Y-86173273D01*
X170620905Y-85921832D01*
X170343071Y-85656944D01*
X170078182Y-85379112D01*
X169826739Y-85088838D01*
X169589246Y-84786625D01*
X169366205Y-84472975D01*
X169158118Y-84148392D01*
X168965489Y-83813377D01*
X168788821Y-83468434D01*
X168628614Y-83114064D01*
X168485374Y-82750771D01*
X168359601Y-82379058D01*
X168251798Y-81999426D01*
X168162469Y-81612378D01*
X168092116Y-81218417D01*
X168041242Y-80818047D01*
X168010348Y-80411768D01*
X167999939Y-80000084D01*
X167999939Y-56000004D01*
X168010348Y-55588320D01*
X168041242Y-55182042D01*
X168092116Y-54781672D01*
X168162469Y-54387713D01*
X168251798Y-54000667D01*
X168359601Y-53621037D01*
X168485374Y-53249325D01*
X168628614Y-52886034D01*
X168788821Y-52531667D01*
X168965489Y-52186727D01*
X169158118Y-51851715D01*
X169366205Y-51527134D01*
X169589246Y-51213488D01*
X169826739Y-50911278D01*
X170078182Y-50621007D01*
X170343071Y-50343178D01*
X170620905Y-50078293D01*
X170911180Y-49826855D01*
X171213394Y-49589367D01*
X171527044Y-49366331D01*
X171851628Y-49158249D01*
X172186642Y-48965625D01*
X172531585Y-48788961D01*
X172885954Y-48628759D01*
X173249246Y-48485522D01*
X173620957Y-48359753D01*
X174000587Y-48251954D01*
X174387632Y-48162628D01*
X174781589Y-48092277D01*
X175181956Y-48041404D01*
X175588230Y-48010512D01*
X175999908Y-48000103D01*
X175999969Y-48000103D01*
X176411645Y-48010512D01*
D10*
X55999550Y-96000008D02*
X90736411Y-61263164D01*
X99999573Y-52000004D01*
D11*
X32060314Y-216000046D02*
X32060314Y-208000061D01*
D10*
X-517Y-82000031D02*
X13842386Y-68157089D01*
X24797829Y-57201653D01*
X37398639Y-44600849D01*
X49999401Y-32000046D01*
X239999878Y-104000076D02*
X239999878Y-96000008D01*
X157999527Y-92000023D02*
X148734170Y-101265428D01*
X140996479Y-109003117D01*
X132528536Y-117471059D01*
X124060638Y-125939003D01*
X103999458Y-242000107D02*
X109556186Y-236443395D01*
X110937555Y-235062037D01*
X114984793Y-231014826D01*
X119032005Y-226967606D01*
X51999535Y-96000008D02*
X73217182Y-74782343D01*
X79560555Y-68438973D01*
X94060953Y-53938578D01*
X108561325Y-39438183D01*
X83999390Y-252000076D02*
X87999535Y-248000092D01*
X105999466Y-58000084D02*
X108618079Y-55381491D01*
X110935701Y-53063840D01*
X113375851Y-50623661D01*
X115816048Y-48183483D01*
X83999390Y-320000122D02*
X106377210Y-297627244D01*
X128009109Y-276000122D01*
X31999466Y-32000046D02*
X2285197Y-61714345D01*
X-517Y-64000061D01*
X73999481Y-32017231D02*
X73320726Y-32690164D01*
X72660122Y-33345102D01*
X72329847Y-33672570D01*
X71999603Y-34000038D01*
X21999432Y-38000038D02*
X13242066Y-46757447D01*
X10953044Y-49046473D01*
X5476251Y-54523278D01*
X-517Y-60000080D01*
X177478561Y-96521133D02*
X164321078Y-109678614D01*
X152278733Y-121721005D01*
X140402969Y-133596815D01*
X128527161Y-145472626D01*
X-517Y-74000053D02*
X11266895Y-62732621D01*
X20879947Y-53119595D01*
X31439748Y-42559821D01*
X41999500Y-32000046D01*
X15999539Y-94000015D02*
X15252090Y-94747464D01*
X15028315Y-94971231D01*
X14513912Y-95485617D01*
X13999533Y-96000008D01*
X99999573Y-274005463D02*
X128009109Y-246000092D01*
X87999535Y-32017231D02*
X87456549Y-32555525D01*
X87007319Y-33000914D01*
X86503448Y-33500476D01*
X85999527Y-34000038D01*
X161931320Y-92068428D02*
X151574010Y-102425687D01*
X137018696Y-116981029D01*
X124068130Y-129931625D01*
D36*
G04 #@! TO.C,H2*
X249700000Y-275700000D03*
G04 #@! TD*
G04 #@! TO.C,H1*
X128000000Y-160000000D03*
G04 #@! TD*
M02*
