<?xml version="1.0" encoding="UTF-8" standalone="no"?>
<!DOCTYPE svg PUBLIC "-//W3C//DTD SVG 1.1//EN" "http://www.w3.org/Graphics/SVG/1.1/DTD/svg11.dtd">
<svg width="100%" height="100%" viewBox="0 0 1210 152" version="1.1" xmlns="http://www.w3.org/2000/svg" xmlns:xlink="http://www.w3.org/1999/xlink" xml:space="preserve" xmlns:serif="http://www.serif.com/" style="fill-rule:evenodd;clip-rule:evenodd;stroke-linecap:round;stroke-linejoin:bevel;">
    <g transform="matrix(0.32,0,0,0.32,-823.04,-1662.72)">
        <g id="Artboard1" transform="matrix(0.864865,0,0,0.833333,347.352288,865.291339)">
            <rect x="2572.249" y="5196.85" width="4370.079" height="566.929" style="fill:none;"/>
            <clipPath id="_clip1">
                <rect x="2572.249" y="5196.85" width="4370.079" height="566.929"/>
            </clipPath>
            <g clip-path="url(#_clip1)">
                <g transform="matrix(1,0,0,1,-2.890625,-3)">
                    <g transform="matrix(1.15625,0,0,1.2,1808.492604,3547.534394)">
                        <path d="M768.755,1415.31L768.747,1414.66L768.723,1414.01L768.683,1413.36L768.627,1412.71L768.555,1412.06L768.467,1411.41L768.364,1410.77L768.244,1410.13L768.109,1409.49L767.959,1408.85L767.792,1408.22L767.611,1407.6L767.414,1406.98L767.202,1406.36L766.974,1405.75L766.732,1405.14L766.475,1404.54L766.204,1403.95L765.917,1403.36L765.617,1402.78L765.303,1402.21L764.974,1401.65L764.632,1401.09L764.276,1400.55L763.907,1400.01L763.525,1399.48L763.13,1398.96L762.723,1398.45L762.303,1397.95L761.871,1397.47L761.427,1396.99L760.971,1396.52L760.505,1396.07L760.027,1395.62L759.538,1395.19L759.039,1394.77L758.53,1394.36L758.011,1393.97L757.482,1393.58L756.944,1393.22L756.398,1392.86L755.842,1392.52L755.279,1392.19L754.708,1391.88L754.129,1391.57L753.542,1391.29L752.949,1391.02L752.35,1390.76L751.744,1390.52L751.133,1390.29L750.516,1390.08L749.894,1389.88L749.268,1389.7L748.637,1389.53L748.003,1389.38L747.365,1389.25L746.724,1389.13L746.08,1389.02L745.433,1388.94L744.785,1388.87L744.135,1388.81L743.484,1388.77L742.832,1388.75L742.18,1388.74L741.528,1388.75L740.876,1388.77L740.225,1388.81L739.575,1388.87L738.927,1388.94L738.281,1389.02L737.637,1389.13L736.996,1389.25L736.358,1389.38L735.723,1389.53L735.092,1389.7L734.466,1389.88L733.844,1390.08L733.227,1390.29L732.616,1390.52L732.011,1390.76L731.411,1391.02L730.818,1391.29L730.232,1391.57L729.653,1391.88L729.082,1392.19L728.518,1392.52L727.963,1392.86L727.416,1393.22L726.878,1393.58L726.35,1393.97L725.831,1394.36L725.321,1394.77L724.822,1395.19L724.334,1395.62L723.856,1396.07L723.389,1396.52L722.934,1396.99L722.49,1397.47L722.058,1397.95L721.638,1398.45L721.23,1398.96L720.835,1399.48L720.453,1400.01L720.084,1400.55L719.728,1401.09L719.386,1401.65L719.058,1402.21L718.743,1402.78L718.443,1403.36L718.157,1403.95L717.885,1404.54L717.628,1405.14L717.386,1405.75L717.159,1406.36L716.947,1406.98L716.75,1407.6L716.568,1408.22L716.402,1408.85L716.251,1409.49L716.116,1410.13L715.997,1410.77L715.893,1411.41L715.805,1412.06L715.733,1412.71L715.677,1413.36L715.637,1414.01L715.613,1414.66L715.605,1415.31L715.613,1415.96L715.637,1416.62L715.677,1417.27L715.733,1417.92L715.805,1418.57L715.893,1419.21L715.997,1419.86L716.116,1420.5L716.251,1421.13L716.402,1421.77L716.568,1422.4L716.75,1423.03L716.947,1423.65L717.159,1424.26L717.386,1424.88L717.628,1425.48L717.885,1426.08L718.157,1426.67L718.443,1427.26L718.743,1427.84L719.058,1428.41L719.386,1428.97L719.728,1429.53L720.084,1430.08L720.453,1430.61L720.835,1431.14L721.23,1431.66L721.638,1432.17L722.058,1432.67L722.49,1433.16L722.934,1433.64L723.389,1434.1L723.856,1434.56L724.334,1435L724.822,1435.43L725.321,1435.85L725.831,1436.26L726.35,1436.66L726.878,1437.04L727.416,1437.41L727.963,1437.76L728.518,1438.11L729.082,1438.43L729.653,1438.75L730.232,1439.05L730.818,1439.34L731.411,1439.61L732.011,1439.86L732.616,1440.11L733.227,1440.33L733.844,1440.55L734.466,1440.74L735.092,1440.92L735.723,1441.09L736.358,1441.24L736.996,1441.38L737.637,1441.5L738.281,1441.6L738.927,1441.69L739.575,1441.76L740.225,1441.81L740.876,1441.85L741.528,1441.88L742.18,1441.89L742.832,1441.88L743.484,1441.85L744.135,1441.81L744.785,1441.76L745.433,1441.69L746.08,1441.6L746.724,1441.5L747.365,1441.38L748.003,1441.24L748.637,1441.09L749.268,1440.92L749.894,1440.74L750.516,1440.55L751.133,1440.33L751.744,1440.11L752.35,1439.86L752.949,1439.61L753.542,1439.34L754.129,1439.05L754.708,1438.75L755.279,1438.43L755.842,1438.11L756.398,1437.76L756.944,1437.41L757.482,1437.04L758.011,1436.66L758.53,1436.26L759.039,1435.85L759.538,1435.43L760.027,1435L760.505,1434.56L760.971,1434.1L761.427,1433.64L761.871,1433.16L762.303,1432.67L762.723,1432.17L763.13,1431.66L763.525,1431.14L763.907,1430.61L764.276,1430.08L764.632,1429.53L764.974,1428.97L765.303,1428.41L765.617,1427.84L765.917,1427.26L766.204,1426.67L766.475,1426.08L766.732,1425.48L766.974,1424.88L767.202,1424.26L767.414,1423.65L767.611,1423.03L767.792,1422.4L767.959,1421.77L768.109,1421.13L768.244,1420.5L768.364,1419.86L768.467,1419.21L768.555,1418.57L768.627,1417.92L768.683,1417.27L768.723,1416.62L768.747,1415.96L768.755,1415.31" style="fill:none;stroke:black;stroke-width:1.46px;"/>
                    </g>
                    <g transform="matrix(1.15625,0,0,1.2,1808.492604,3547.534394)">
                        <path d="M2526.24,1613.15L2526.24,1612.49L2526.27,1611.84L2526.31,1611.19L2526.36,1610.54L2526.44,1609.89L2526.52,1609.25L2526.63,1608.6L2526.75,1607.96L2526.88,1607.32L2527.03,1606.69L2527.2,1606.06L2527.38,1605.43L2527.58,1604.81L2527.79,1604.19L2528.02,1603.58L2528.26,1602.98L2528.52,1602.38L2528.79,1601.78L2529.07,1601.2L2529.37,1600.62L2529.69,1600.05L2530.02,1599.48L2530.36,1598.93L2530.71,1598.38L2531.08,1597.84L2531.86,1596.8L2532.27,1596.29L2532.69,1595.79L2533.12,1595.3L2533.56,1594.82L2534.02,1594.36L2534.49,1593.9L2534.96,1593.46L2535.45,1593.02L2535.95,1592.6L2536.46,1592.2L2536.98,1591.8L2537.51,1591.42L2538.05,1591.05L2538.59,1590.69L2539.15,1590.35L2539.71,1590.02L2540.28,1589.71L2540.86,1589.41L2541.45,1589.12L2542.04,1588.85L2542.64,1588.59L2543.25,1588.35L2544.47,1587.91L2545.1,1587.72L2545.72,1587.53L2546.35,1587.37L2546.99,1587.22L2547.63,1587.08L2548.27,1586.96L2548.91,1586.86L2549.56,1586.77L2550.21,1586.7L2550.86,1586.64L2551.51,1586.6L2552.16,1586.58L2552.81,1586.57L2553.46,1586.58L2554.11,1586.6L2554.77,1586.64L2555.41,1586.7L2556.06,1586.77L2556.71,1586.86L2557.35,1586.96L2557.99,1587.08L2558.63,1587.22L2559.27,1587.37L2559.9,1587.53L2560.52,1587.72L2561.15,1587.91L2562.37,1588.35L2562.98,1588.59L2563.58,1588.85L2564.17,1589.12L2564.76,1589.41L2565.34,1589.71L2565.91,1590.02L2566.47,1590.35L2567.03,1590.69L2567.57,1591.05L2568.11,1591.42L2568.64,1591.8L2569.16,1592.2L2569.67,1592.6L2570.17,1593.02L2570.66,1593.46L2571.13,1593.9L2571.6,1594.36L2572.06,1594.82L2572.5,1595.3L2572.93,1595.79L2573.35,1596.29L2573.76,1596.8L2574.16,1597.32L2574.54,1597.84L2574.91,1598.38L2575.26,1598.93L2575.6,1599.48L2575.93,1600.05L2576.25,1600.62L2576.55,1601.2L2576.83,1601.78L2577.11,1602.38L2577.36,1602.98L2577.6,1603.58L2577.83,1604.19L2578.04,1604.81L2578.24,1605.43L2578.42,1606.06L2578.59,1606.69L2578.74,1607.32L2578.87,1607.96L2578.99,1608.6L2579.1,1609.25L2579.19,1609.89L2579.26,1610.54L2579.31,1611.19L2579.35,1611.84L2579.38,1612.49L2579.38,1613.8L2579.35,1614.45L2579.31,1615.1L2579.26,1615.75L2579.19,1616.4L2579.1,1617.05L2578.99,1617.69L2578.87,1618.33L2578.74,1618.97L2578.59,1619.6L2578.42,1620.23L2578.24,1620.86L2578.04,1621.48L2577.83,1622.1L2577.6,1622.71L2577.36,1623.32L2577.11,1623.92L2576.83,1624.51L2576.55,1625.09L2576.25,1625.67L2575.93,1626.25L2575.6,1626.81L2575.26,1627.36L2574.91,1627.91L2574.54,1628.45L2574.16,1628.98L2573.76,1629.5L2573.35,1630.01L2572.93,1630.5L2572.5,1630.99L2572.06,1631.47L2571.6,1631.94L2570.66,1632.84L2570.17,1633.27L2569.67,1633.69L2569.16,1634.1L2568.64,1634.49L2568.11,1634.87L2567.57,1635.24L2567.03,1635.6L2566.47,1635.94L2565.91,1636.27L2565.34,1636.58L2564.76,1636.88L2564.17,1637.17L2563.58,1637.44L2562.98,1637.7L2562.37,1637.94L2561.76,1638.17L2561.15,1638.38L2560.52,1638.58L2559.9,1638.76L2559.27,1638.93L2558.63,1639.08L2557.99,1639.21L2557.35,1639.33L2556.71,1639.43L2556.06,1639.52L2555.41,1639.59L2554.77,1639.65L2554.11,1639.69L2553.46,1639.71L2552.81,1639.72L2552.16,1639.71L2551.51,1639.69L2550.86,1639.65L2550.21,1639.59L2549.56,1639.52L2548.91,1639.43L2548.27,1639.33L2547.63,1639.21L2546.99,1639.08L2546.35,1638.93L2545.72,1638.76L2545.1,1638.58L2544.47,1638.38L2543.86,1638.17L2543.25,1637.94L2542.64,1637.7L2542.04,1637.44L2541.45,1637.17L2540.86,1636.88L2540.28,1636.58L2539.71,1636.27L2539.15,1635.94L2538.59,1635.6L2538.05,1635.24L2537.51,1634.87L2536.98,1634.49L2536.46,1634.1L2535.95,1633.69L2535.45,1633.27L2534.96,1632.84L2534.02,1631.94L2533.56,1631.47L2533.12,1630.99L2532.69,1630.5L2532.27,1630.01L2531.86,1629.5L2531.47,1628.98L2531.08,1628.45L2530.71,1627.91L2530.36,1627.36L2530.02,1626.81L2529.69,1626.25L2529.37,1625.67L2529.07,1625.09L2528.79,1624.51L2528.52,1623.92L2528.26,1623.32L2528.02,1622.71L2527.79,1622.1L2527.58,1621.48L2527.38,1620.86L2527.2,1620.23L2527.03,1619.6L2526.88,1618.97L2526.75,1618.33L2526.63,1617.69L2526.52,1617.05L2526.36,1615.75L2526.31,1615.1L2526.27,1614.45L2526.24,1613.8L2526.24,1613.15" style="fill:none;stroke:black;stroke-width:1.46px;"/>
                    </g>
                    <g transform="matrix(1.15625,0,0,1.2,1808.492604,3547.534394)">
                        <path d="M768.755,1810.98L768.747,1810.33L768.723,1809.68L768.683,1809.03L768.627,1808.38L768.555,1807.73L768.467,1807.08L768.364,1806.44L768.244,1805.8L768.109,1805.16L767.959,1804.52L767.792,1803.89L767.611,1803.27L767.414,1802.65L767.202,1802.03L766.974,1801.42L766.732,1800.81L766.475,1800.21L766.204,1799.62L765.917,1799.03L765.617,1798.45L765.303,1797.88L764.974,1797.32L764.632,1796.76L764.276,1796.22L763.907,1795.68L763.525,1795.15L763.13,1794.63L762.723,1794.12L762.303,1793.62L761.871,1793.13L761.427,1792.66L760.971,1792.19L760.505,1791.73L760.027,1791.29L759.538,1790.86L759.039,1790.44L758.53,1790.03L758.011,1789.64L757.482,1789.25L756.944,1788.89L756.398,1788.53L755.842,1788.19L755.279,1787.86L754.708,1787.54L754.129,1787.24L753.542,1786.96L752.949,1786.69L752.35,1786.43L751.744,1786.19L751.133,1785.96L750.516,1785.75L749.894,1785.55L749.268,1785.37L748.637,1785.2L748.003,1785.05L747.365,1784.92L746.724,1784.8L746.08,1784.69L745.433,1784.61L744.785,1784.53L744.135,1784.48L743.484,1784.44L742.832,1784.41L741.528,1784.41L740.876,1784.44L740.225,1784.48L739.575,1784.53L738.927,1784.61L738.281,1784.69L737.637,1784.8L736.996,1784.92L736.358,1785.05L735.723,1785.2L735.092,1785.37L734.466,1785.55L733.844,1785.75L733.227,1785.96L732.616,1786.19L732.011,1786.43L731.411,1786.69L730.818,1786.96L730.232,1787.24L729.653,1787.54L729.082,1787.86L728.518,1788.19L727.963,1788.53L727.416,1788.89L726.878,1789.25L726.35,1789.64L725.831,1790.03L725.321,1790.44L724.822,1790.86L724.334,1791.29L723.856,1791.73L723.389,1792.19L722.934,1792.66L722.49,1793.13L722.058,1793.62L721.638,1794.12L721.23,1794.63L720.835,1795.15L720.453,1795.68L720.084,1796.22L719.728,1796.76L719.386,1797.32L719.058,1797.88L718.743,1798.45L718.443,1799.03L718.157,1799.62L717.885,1800.21L717.628,1800.81L717.386,1801.42L717.159,1802.03L716.947,1802.65L716.75,1803.27L716.568,1803.89L716.402,1804.52L716.251,1805.16L716.116,1805.8L715.997,1806.44L715.893,1807.08L715.805,1807.73L715.733,1808.38L715.677,1809.03L715.637,1809.68L715.613,1810.33L715.605,1810.98L715.613,1811.63L715.637,1812.29L715.677,1812.94L715.733,1813.59L715.805,1814.23L715.893,1814.88L715.997,1815.52L716.116,1816.17L716.251,1816.8L716.402,1817.44L716.568,1818.07L716.75,1818.7L716.947,1819.32L717.159,1819.93L717.386,1820.55L717.628,1821.15L717.885,1821.75L718.157,1822.34L718.443,1822.93L718.743,1823.51L719.058,1824.08L719.386,1824.64L719.728,1825.2L720.084,1825.75L720.453,1826.28L720.835,1826.81L721.23,1827.33L721.638,1827.84L722.058,1828.34L722.49,1828.83L722.934,1829.31L723.389,1829.77L723.856,1830.23L724.334,1830.67L724.822,1831.1L725.321,1831.52L725.831,1831.93L726.35,1832.33L726.878,1832.71L727.416,1833.08L727.963,1833.43L728.518,1833.78L729.082,1834.1L729.653,1834.42L730.232,1834.72L730.818,1835L731.411,1835.28L732.011,1835.53L732.616,1835.78L733.227,1836L733.844,1836.21L734.466,1836.41L735.092,1836.59L735.723,1836.76L736.358,1836.91L736.996,1837.05L737.637,1837.16L738.281,1837.27L738.927,1837.36L739.575,1837.43L740.225,1837.48L740.876,1837.52L741.528,1837.55L742.18,1837.56L742.832,1837.55L743.484,1837.52L744.135,1837.48L744.785,1837.43L745.433,1837.36L746.08,1837.27L746.724,1837.16L747.365,1837.05L748.003,1836.91L748.637,1836.76L749.268,1836.59L749.894,1836.41L750.516,1836.21L751.133,1836L751.744,1835.78L752.35,1835.53L752.949,1835.28L753.542,1835L754.129,1834.72L754.708,1834.42L755.279,1834.1L755.842,1833.78L756.398,1833.43L756.944,1833.08L757.482,1832.71L758.011,1832.33L758.53,1831.93L759.039,1831.52L759.538,1831.1L760.027,1830.67L760.505,1830.23L760.971,1829.77L761.427,1829.31L761.871,1828.83L762.303,1828.34L762.723,1827.84L763.13,1827.33L763.525,1826.81L763.907,1826.28L764.276,1825.75L764.632,1825.2L764.974,1824.64L765.303,1824.08L765.617,1823.51L765.917,1822.93L766.204,1822.34L766.475,1821.75L766.732,1821.15L766.974,1820.55L767.202,1819.93L767.414,1819.32L767.611,1818.7L767.792,1818.07L767.959,1817.44L768.109,1816.8L768.244,1816.17L768.364,1815.52L768.467,1814.88L768.555,1814.23L768.627,1813.59L768.683,1812.94L768.723,1812.29L768.747,1811.63L768.755,1810.98" style="fill:none;stroke:black;stroke-width:1.46px;"/>
                    </g>
                    <g transform="matrix(1.15625,0,0,1.2,1808.492604,3547.534394)">
                        <path d="M4336.87,1810.98L4336.87,1810.33L4336.9,1809.68L4336.94,1809.03L4336.99,1808.38L4337.15,1807.08L4337.26,1806.44L4337.38,1805.8L4337.51,1805.16L4337.66,1804.52L4337.83,1803.89L4338.01,1803.27L4338.21,1802.65L4338.42,1802.03L4338.65,1801.42L4338.89,1800.81L4339.15,1800.21L4339.42,1799.62L4339.7,1799.03L4340,1798.45L4340.32,1797.88L4340.65,1797.32L4340.99,1796.76L4341.34,1796.22L4341.71,1795.68L4342.09,1795.15L4342.49,1794.63L4342.9,1794.12L4343.32,1793.62L4343.75,1793.13L4344.19,1792.66L4344.65,1792.19L4345.12,1791.73L4345.59,1791.29L4346.08,1790.86L4346.58,1790.44L4347.09,1790.03L4347.61,1789.64L4348.14,1789.25L4349.22,1788.53L4349.78,1788.19L4350.34,1787.86L4350.91,1787.54L4351.49,1787.24L4352.08,1786.96L4352.67,1786.69L4353.27,1786.43L4353.88,1786.19L4354.49,1785.96L4355.1,1785.75L4355.73,1785.55L4356.35,1785.37L4356.98,1785.2L4357.62,1785.05L4358.26,1784.92L4358.9,1784.8L4359.54,1784.69L4360.84,1784.53L4361.49,1784.48L4362.14,1784.44L4362.79,1784.41L4364.09,1784.41L4364.74,1784.44L4365.4,1784.48L4366.04,1784.53L4367.34,1784.69L4367.98,1784.8L4368.62,1784.92L4369.26,1785.05L4369.9,1785.2L4370.53,1785.37L4371.15,1785.55L4371.78,1785.75L4372.39,1785.96L4373,1786.19L4373.61,1786.43L4374.21,1786.69L4374.8,1786.96L4375.39,1787.24L4375.97,1787.54L4376.54,1787.86L4377.1,1788.19L4377.66,1788.53L4378.74,1789.25L4379.27,1789.64L4379.79,1790.03L4380.3,1790.44L4380.8,1790.86L4381.29,1791.29L4381.76,1791.73L4382.23,1792.19L4382.69,1792.66L4383.13,1793.13L4383.56,1793.62L4383.98,1794.12L4384.39,1794.63L4384.79,1795.15L4385.17,1795.68L4385.54,1796.22L4385.89,1796.76L4386.23,1797.32L4386.56,1797.88L4386.88,1798.45L4387.18,1799.03L4387.74,1800.21L4387.99,1800.81L4388.23,1801.42L4388.46,1802.03L4388.67,1802.65L4388.87,1803.27L4389.05,1803.89L4389.22,1804.52L4389.37,1805.16L4389.5,1805.8L4389.62,1806.44L4389.73,1807.08L4389.82,1807.73L4389.89,1808.38L4389.94,1809.03L4389.98,1809.68L4390.01,1810.33L4390.01,1811.63L4389.98,1812.29L4389.94,1812.94L4389.89,1813.59L4389.82,1814.23L4389.73,1814.88L4389.62,1815.52L4389.5,1816.17L4389.37,1816.8L4389.22,1817.44L4389.05,1818.07L4388.87,1818.7L4388.67,1819.32L4388.46,1819.93L4388.23,1820.55L4387.99,1821.15L4387.74,1821.75L4387.18,1822.93L4386.88,1823.51L4386.56,1824.08L4386.23,1824.64L4385.89,1825.2L4385.54,1825.75L4385.17,1826.28L4384.79,1826.81L4384.39,1827.33L4383.98,1827.84L4383.56,1828.34L4383.13,1828.83L4382.69,1829.31L4382.23,1829.77L4381.76,1830.23L4381.29,1830.67L4380.8,1831.1L4380.3,1831.52L4379.79,1831.93L4379.27,1832.33L4378.74,1832.71L4378.2,1833.08L4377.66,1833.43L4377.1,1833.78L4376.54,1834.1L4375.97,1834.42L4375.39,1834.72L4374.21,1835.28L4373.61,1835.53L4373,1835.78L4372.39,1836L4371.78,1836.21L4371.15,1836.41L4370.53,1836.59L4369.9,1836.76L4369.26,1836.91L4368.62,1837.05L4367.34,1837.27L4366.69,1837.36L4366.04,1837.43L4365.4,1837.48L4364.74,1837.52L4364.09,1837.55L4363.44,1837.56L4362.79,1837.55L4362.14,1837.52L4361.49,1837.48L4360.84,1837.43L4360.19,1837.36L4359.54,1837.27L4358.26,1837.05L4357.62,1836.91L4356.98,1836.76L4356.35,1836.59L4355.73,1836.41L4355.1,1836.21L4354.49,1836L4353.88,1835.78L4353.27,1835.53L4352.67,1835.28L4351.49,1834.72L4350.91,1834.42L4350.34,1834.1L4349.78,1833.78L4349.22,1833.43L4348.68,1833.08L4348.14,1832.71L4347.61,1832.33L4347.09,1831.93L4346.58,1831.52L4346.08,1831.1L4345.59,1830.67L4345.12,1830.23L4344.65,1829.77L4344.19,1829.31L4343.75,1828.83L4343.32,1828.34L4342.9,1827.84L4342.49,1827.33L4342.09,1826.81L4341.71,1826.28L4341.34,1825.75L4340.99,1825.2L4340.65,1824.64L4340.32,1824.08L4340,1823.51L4339.7,1822.93L4339.42,1822.34L4339.15,1821.75L4338.89,1821.15L4338.65,1820.55L4338.42,1819.93L4338.21,1819.32L4338.01,1818.7L4337.83,1818.07L4337.66,1817.44L4337.51,1816.8L4337.38,1816.17L4337.26,1815.52L4337.15,1814.88L4337.07,1814.23L4336.99,1813.59L4336.94,1812.94L4336.9,1812.29L4336.87,1811.63L4336.87,1810.98" style="fill:none;stroke:black;stroke-width:1.46px;"/>
                    </g>
                    <g transform="matrix(1.15625,0,0,1.2,1808.492604,3547.534394)">
                        <path d="M4336.87,1415.31L4336.87,1414.66L4336.9,1414.01L4336.94,1413.36L4336.99,1412.71L4337.15,1411.41L4337.26,1410.77L4337.38,1410.13L4337.51,1409.49L4337.66,1408.85L4337.83,1408.22L4338.01,1407.6L4338.21,1406.98L4338.42,1406.36L4338.65,1405.75L4338.89,1405.14L4339.15,1404.54L4339.42,1403.95L4339.7,1403.36L4340,1402.78L4340.32,1402.21L4340.65,1401.65L4340.99,1401.09L4341.34,1400.55L4341.71,1400.01L4342.09,1399.48L4342.49,1398.96L4342.9,1398.45L4343.32,1397.95L4343.75,1397.47L4344.19,1396.99L4344.65,1396.52L4345.59,1395.62L4346.08,1395.19L4346.58,1394.77L4347.09,1394.36L4347.61,1393.97L4348.14,1393.58L4349.22,1392.86L4349.78,1392.52L4350.34,1392.19L4350.91,1391.88L4351.49,1391.57L4352.08,1391.29L4352.67,1391.02L4353.27,1390.76L4353.88,1390.52L4354.49,1390.29L4355.1,1390.08L4355.73,1389.88L4356.35,1389.7L4356.98,1389.53L4357.62,1389.38L4358.26,1389.25L4358.9,1389.13L4359.54,1389.02L4360.19,1388.94L4360.84,1388.87L4361.49,1388.81L4362.14,1388.77L4362.79,1388.75L4363.44,1388.74L4364.09,1388.75L4364.74,1388.77L4365.4,1388.81L4366.04,1388.87L4366.69,1388.94L4367.34,1389.02L4367.98,1389.13L4368.62,1389.25L4369.26,1389.38L4369.9,1389.53L4370.53,1389.7L4371.15,1389.88L4371.78,1390.08L4372.39,1390.29L4373,1390.52L4373.61,1390.76L4374.21,1391.02L4374.8,1391.29L4375.39,1391.57L4375.97,1391.88L4376.54,1392.19L4377.1,1392.52L4377.66,1392.86L4378.74,1393.58L4379.27,1393.97L4379.79,1394.36L4380.3,1394.77L4380.8,1395.19L4381.29,1395.62L4382.23,1396.52L4382.69,1396.99L4383.13,1397.47L4383.56,1397.95L4383.98,1398.45L4384.39,1398.96L4384.79,1399.48L4385.17,1400.01L4385.54,1400.55L4385.89,1401.09L4386.23,1401.65L4386.56,1402.21L4386.88,1402.78L4387.18,1403.36L4387.74,1404.54L4387.99,1405.14L4388.23,1405.75L4388.46,1406.36L4388.67,1406.98L4388.87,1407.6L4389.05,1408.22L4389.22,1408.85L4389.37,1409.49L4389.5,1410.13L4389.62,1410.77L4389.73,1411.41L4389.82,1412.06L4389.89,1412.71L4389.94,1413.36L4389.98,1414.01L4390.01,1414.66L4390.01,1415.96L4389.98,1416.62L4389.94,1417.27L4389.89,1417.92L4389.82,1418.57L4389.73,1419.21L4389.62,1419.86L4389.5,1420.5L4389.37,1421.13L4389.22,1421.77L4389.05,1422.4L4388.87,1423.03L4388.67,1423.65L4388.46,1424.26L4388.23,1424.88L4387.99,1425.48L4387.74,1426.08L4387.18,1427.26L4386.88,1427.84L4386.56,1428.41L4386.23,1428.97L4385.89,1429.53L4385.54,1430.08L4385.17,1430.61L4384.79,1431.14L4384.39,1431.66L4383.98,1432.17L4383.56,1432.67L4383.13,1433.16L4382.69,1433.64L4382.23,1434.1L4381.76,1434.56L4381.29,1435L4380.8,1435.43L4380.3,1435.85L4379.79,1436.26L4379.27,1436.66L4378.74,1437.04L4378.2,1437.41L4377.66,1437.76L4377.1,1438.11L4376.54,1438.43L4375.97,1438.75L4375.39,1439.05L4374.8,1439.34L4374.21,1439.61L4373.61,1439.86L4373,1440.11L4371.78,1440.55L4371.15,1440.74L4370.53,1440.92L4369.9,1441.09L4369.26,1441.24L4368.62,1441.38L4367.98,1441.5L4367.34,1441.6L4366.69,1441.69L4366.04,1441.76L4365.4,1441.81L4364.74,1441.85L4364.09,1441.88L4363.44,1441.89L4362.79,1441.88L4362.14,1441.85L4361.49,1441.81L4360.84,1441.76L4360.19,1441.69L4359.54,1441.6L4358.9,1441.5L4358.26,1441.38L4357.62,1441.24L4356.98,1441.09L4356.35,1440.92L4355.73,1440.74L4355.1,1440.55L4353.88,1440.11L4353.27,1439.86L4352.67,1439.61L4352.08,1439.34L4351.49,1439.05L4350.91,1438.75L4350.34,1438.43L4349.78,1438.11L4349.22,1437.76L4348.68,1437.41L4348.14,1437.04L4347.61,1436.66L4347.09,1436.26L4346.58,1435.85L4346.08,1435.43L4345.59,1435L4345.12,1434.56L4344.65,1434.1L4344.19,1433.64L4343.75,1433.16L4343.32,1432.67L4342.9,1432.17L4342.49,1431.66L4342.09,1431.14L4341.71,1430.61L4341.34,1430.08L4340.99,1429.53L4340.65,1428.97L4340.32,1428.41L4340,1427.84L4339.7,1427.26L4339.42,1426.67L4339.15,1426.08L4338.89,1425.48L4338.65,1424.88L4338.42,1424.26L4338.21,1423.65L4338.01,1423.03L4337.83,1422.4L4337.66,1421.77L4337.51,1421.13L4337.38,1420.5L4337.26,1419.86L4337.15,1419.21L4337.07,1418.57L4336.99,1417.92L4336.94,1417.27L4336.9,1416.62L4336.87,1415.96L4336.87,1415.31" style="fill:none;stroke:black;stroke-width:1.46px;"/>
                    </g>
                    <g transform="matrix(1.15625,0,0,1.2,1808.492604,3547.534394)">
                        <path d="M4436.67,1689.92L4436.67,1695.82" style="fill:none;stroke:black;stroke-width:1.46px;"/>
                    </g>
                    <g transform="matrix(1.15625,0,0,1.2,1808.492604,3547.534394)">
                        <path d="M4436.67,1695.82L4424.86,1695.82" style="fill:none;stroke:black;stroke-width:1.46px;"/>
                    </g>
                    <g transform="matrix(1.15625,0,0,1.2,1808.492604,3547.534394)">
                        <path d="M4424.86,1695.82L4424.86,1660.39" style="fill:none;stroke:black;stroke-width:1.46px;"/>
                    </g>
                    <g transform="matrix(1.15625,0,0,1.2,1808.492604,3547.534394)">
                        <path d="M4424.86,1660.39L4407.73,1660.39" style="fill:none;stroke:black;stroke-width:1.46px;"/>
                    </g>
                    <g transform="matrix(1.15625,0,0,1.2,1808.492604,3547.534394)">
                        <path d="M4407.73,1660.39L4377.61,1690.51" style="fill:none;stroke:black;stroke-width:1.46px;"/>
                    </g>
                    <g transform="matrix(1.15625,0,0,1.2,1808.492604,3547.534394)">
                        <path d="M4377.61,1690.51L4377.61,1772" style="fill:none;stroke:black;stroke-width:1.46px;"/>
                    </g>
                    <g transform="matrix(1.15625,0,0,1.2,1808.492604,3547.534394)">
                        <path d="M4377.61,1772L4407.73,1802.12" style="fill:none;stroke:black;stroke-width:1.46px;"/>
                    </g>
                    <g transform="matrix(1.15625,0,0,1.2,1808.492604,3547.534394)">
                        <path d="M4407.73,1802.12L4424.86,1802.12" style="fill:none;stroke:black;stroke-width:1.46px;"/>
                    </g>
                    <g transform="matrix(1.15625,0,0,1.2,1808.492604,3547.534394)">
                        <path d="M4424.86,1802.12L4424.86,1766.69" style="fill:none;stroke:black;stroke-width:1.46px;"/>
                    </g>
                    <g transform="matrix(1.15625,0,0,1.2,1808.492604,3547.534394)">
                        <path d="M4424.86,1766.69L4436.67,1766.69" style="fill:none;stroke:black;stroke-width:1.46px;"/>
                    </g>
                    <g transform="matrix(1.15625,0,0,1.2,1808.492604,3547.534394)">
                        <path d="M4436.67,1766.69L4436.67,1772.6" style="fill:none;stroke:black;stroke-width:1.46px;"/>
                    </g>
                    <g transform="matrix(1.15625,0,0,1.2,1808.492604,3547.534394)">
                        <path d="M4436.67,1772.6L4442.57,1772.6" style="fill:none;stroke:black;stroke-width:1.46px;"/>
                    </g>
                    <g transform="matrix(1.15625,0,0,1.2,1808.492604,3547.534394)">
                        <path d="M4442.57,1772.6L4442.57,1837.56" style="fill:none;stroke:black;stroke-width:1.46px;"/>
                    </g>
                    <g transform="matrix(1.15625,0,0,1.2,1808.492604,3547.534394)">
                        <path d="M4430.76,1849.37L4431.63,1849.34L4432.21,1849.28L4432.5,1849.24L4432.78,1849.19L4433.07,1849.14L4433.35,1849.08L4433.91,1848.94L4434.19,1848.86L4434.47,1848.77L4434.74,1848.68L4435.01,1848.58L4435.28,1848.47L4435.55,1848.35L4436.07,1848.11L4436.33,1847.97L4436.83,1847.69L4437.08,1847.53L4437.32,1847.38L4437.8,1847.04L4438.03,1846.87L4438.26,1846.69L4438.48,1846.5L4438.69,1846.31L4438.91,1846.11L4439.32,1845.7L4439.51,1845.49L4439.71,1845.27L4439.89,1845.05L4440.25,1844.59L4440.42,1844.36L4440.58,1844.12L4440.74,1843.87L4440.89,1843.63L4441.04,1843.38L4441.18,1843.12L4441.31,1842.87L4441.44,1842.61L4441.56,1842.34L4441.67,1842.08L4441.78,1841.81L4441.88,1841.54L4441.98,1841.26L4442.07,1840.98L4442.15,1840.71L4442.22,1840.43L4442.29,1840.14L4442.35,1839.86L4442.4,1839.58L4442.45,1839.29L4442.49,1839L4442.52,1838.71L4442.54,1838.42L4442.56,1838.14L4442.57,1837.85L4442.57,1837.56" style="fill:none;stroke:black;stroke-width:1.46px;"/>
                    </g>
                    <g transform="matrix(1.15625,0,0,1.2,1808.492604,3547.534394)">
                        <path d="M4430.76,1849.37L674.857,1849.37" style="fill:none;stroke:black;stroke-width:1.46px;"/>
                    </g>
                    <g transform="matrix(1.15625,0,0,1.2,1808.492604,3547.534394)">
                        <path d="M663.046,1837.56L663.05,1837.85L663.061,1838.14L663.078,1838.42L663.103,1838.71L663.135,1839L663.174,1839.29L663.22,1839.58L663.273,1839.86L663.333,1840.14L663.4,1840.43L663.474,1840.71L663.555,1840.98L663.643,1841.26L663.737,1841.54L663.838,1841.81L663.945,1842.08L664.06,1842.34L664.18,1842.61L664.308,1842.87L664.441,1843.12L664.581,1843.38L664.727,1843.63L664.879,1843.87L665.037,1844.12L665.201,1844.36L665.371,1844.59L665.546,1844.82L665.727,1845.05L665.914,1845.27L666.106,1845.49L666.303,1845.7L666.506,1845.91L666.713,1846.11L666.926,1846.31L667.143,1846.5L667.365,1846.69L667.591,1846.87L667.822,1847.04L668.057,1847.21L668.296,1847.38L668.539,1847.53L668.785,1847.69L669.036,1847.83L669.29,1847.97L669.547,1848.11L669.808,1848.23L670.071,1848.35L670.338,1848.47L670.607,1848.58L670.878,1848.68L671.153,1848.77L671.429,1848.86L671.707,1848.94L671.988,1849.01L672.27,1849.08L672.553,1849.14L672.838,1849.19L673.124,1849.24L673.412,1849.28L673.7,1849.31L673.989,1849.34L674.278,1849.35L674.568,1849.36L674.857,1849.37" style="fill:none;stroke:black;stroke-width:1.46px;"/>
                    </g>
                    <g transform="matrix(1.15625,0,0,1.2,1808.492604,3547.534394)">
                        <path d="M663.046,1772.6L663.046,1837.56" style="fill:none;stroke:black;stroke-width:1.46px;"/>
                    </g>
                    <g transform="matrix(1.15625,0,0,1.2,1808.492604,3547.534394)">
                        <path d="M668.952,1772.6L663.046,1772.6" style="fill:none;stroke:black;stroke-width:1.46px;"/>
                    </g>
                    <g transform="matrix(1.15625,0,0,1.2,1808.492604,3547.534394)">
                        <path d="M668.952,1766.69L668.952,1772.6" style="fill:none;stroke:black;stroke-width:1.46px;"/>
                    </g>
                    <g transform="matrix(1.15625,0,0,1.2,1808.492604,3547.534394)">
                        <path d="M680.763,1766.69L668.952,1766.69" style="fill:none;stroke:black;stroke-width:1.46px;"/>
                    </g>
                    <g transform="matrix(1.15625,0,0,1.2,1808.492604,3547.534394)">
                        <path d="M680.763,1802.12L680.763,1766.69" style="fill:none;stroke:black;stroke-width:1.46px;"/>
                    </g>
                    <g transform="matrix(1.15625,0,0,1.2,1808.492604,3547.534394)">
                        <path d="M697.889,1802.12L680.763,1802.12" style="fill:none;stroke:black;stroke-width:1.46px;"/>
                    </g>
                    <g transform="matrix(1.15625,0,0,1.2,1808.492604,3547.534394)">
                        <path d="M728.007,1772L697.889,1802.12" style="fill:none;stroke:black;stroke-width:1.46px;"/>
                    </g>
                    <g transform="matrix(1.15625,0,0,1.2,1808.492604,3547.534394)">
                        <path d="M728.007,1690.51L728.007,1772" style="fill:none;stroke:black;stroke-width:1.46px;"/>
                    </g>
                    <g transform="matrix(1.15625,0,0,1.2,1808.492604,3547.534394)">
                        <path d="M697.889,1660.39L728.007,1690.51" style="fill:none;stroke:black;stroke-width:1.46px;"/>
                    </g>
                    <g transform="matrix(1.15625,0,0,1.2,1808.492604,3547.534394)">
                        <path d="M680.763,1660.39L697.889,1660.39" style="fill:none;stroke:black;stroke-width:1.46px;"/>
                    </g>
                    <g transform="matrix(1.15625,0,0,1.2,1808.492604,3547.534394)">
                        <path d="M680.763,1695.82L680.763,1660.39" style="fill:none;stroke:black;stroke-width:1.46px;"/>
                    </g>
                    <g transform="matrix(1.15625,0,0,1.2,1808.492604,3547.534394)">
                        <path d="M668.952,1695.82L680.763,1695.82" style="fill:none;stroke:black;stroke-width:1.46px;"/>
                    </g>
                    <g transform="matrix(1.15625,0,0,1.2,1808.492604,3547.534394)">
                        <path d="M668.952,1689.92L668.952,1695.82" style="fill:none;stroke:black;stroke-width:1.46px;"/>
                    </g>
                    <g transform="matrix(1.15625,0,0,1.2,1808.492604,3547.534394)">
                        <path d="M663.046,1689.92L668.952,1689.92" style="fill:none;stroke:black;stroke-width:1.46px;"/>
                    </g>
                    <g transform="matrix(1.15625,0,0,1.2,1808.492604,3547.534394)">
                        <path d="M663.046,1536.38L663.046,1689.92" style="fill:none;stroke:black;stroke-width:1.46px;"/>
                    </g>
                    <g transform="matrix(1.15625,0,0,1.2,1808.492604,3547.534394)">
                        <path d="M668.952,1536.38L663.046,1536.38" style="fill:none;stroke:black;stroke-width:1.46px;"/>
                    </g>
                    <g transform="matrix(1.15625,0,0,1.2,1808.492604,3547.534394)">
                        <path d="M668.952,1530.47L668.952,1536.38" style="fill:none;stroke:black;stroke-width:1.46px;"/>
                    </g>
                    <g transform="matrix(1.15625,0,0,1.2,1808.492604,3547.534394)">
                        <path d="M680.763,1530.47L668.952,1530.47" style="fill:none;stroke:black;stroke-width:1.46px;"/>
                    </g>
                    <g transform="matrix(1.15625,0,0,1.2,1808.492604,3547.534394)">
                        <path d="M680.763,1565.9L680.763,1530.47" style="fill:none;stroke:black;stroke-width:1.46px;"/>
                    </g>
                    <g transform="matrix(1.15625,0,0,1.2,1808.492604,3547.534394)">
                        <path d="M697.889,1565.9L680.763,1565.9" style="fill:none;stroke:black;stroke-width:1.46px;"/>
                    </g>
                    <g transform="matrix(1.15625,0,0,1.2,1808.492604,3547.534394)">
                        <path d="M728.007,1535.78L697.889,1565.9" style="fill:none;stroke:black;stroke-width:1.46px;"/>
                    </g>
                    <g transform="matrix(1.15625,0,0,1.2,1808.492604,3547.534394)">
                        <path d="M728.007,1454.29L728.007,1535.78" style="fill:none;stroke:black;stroke-width:1.46px;"/>
                    </g>
                    <g transform="matrix(1.15625,0,0,1.2,1808.492604,3547.534394)">
                        <path d="M697.889,1424.17L728.007,1454.29" style="fill:none;stroke:black;stroke-width:1.46px;"/>
                    </g>
                    <g transform="matrix(1.15625,0,0,1.2,1808.492604,3547.534394)">
                        <path d="M680.763,1424.17L697.889,1424.17" style="fill:none;stroke:black;stroke-width:1.46px;"/>
                    </g>
                    <g transform="matrix(1.15625,0,0,1.2,1808.492604,3547.534394)">
                        <path d="M680.763,1459.6L680.763,1424.17" style="fill:none;stroke:black;stroke-width:1.46px;"/>
                    </g>
                    <g transform="matrix(1.15625,0,0,1.2,1808.492604,3547.534394)">
                        <path d="M668.952,1459.6L680.763,1459.6" style="fill:none;stroke:black;stroke-width:1.46px;"/>
                    </g>
                    <g transform="matrix(1.15625,0,0,1.2,1808.492604,3547.534394)">
                        <path d="M668.952,1453.7L668.952,1459.6" style="fill:none;stroke:black;stroke-width:1.46px;"/>
                    </g>
                    <g transform="matrix(1.15625,0,0,1.2,1808.492604,3547.534394)">
                        <path d="M663.046,1453.7L668.952,1453.7" style="fill:none;stroke:black;stroke-width:1.46px;"/>
                    </g>
                    <g transform="matrix(1.15625,0,0,1.2,1808.492604,3547.534394)">
                        <path d="M663.046,1388.74L663.046,1453.7" style="fill:none;stroke:black;stroke-width:1.46px;"/>
                    </g>
                    <g transform="matrix(1.15625,0,0,1.2,1808.492604,3547.534394)">
                        <path d="M674.857,1376.93L674.568,1376.93L674.278,1376.94L673.7,1376.98L673.412,1377.02L673.124,1377.05L672.838,1377.1L672.553,1377.15L672.27,1377.21L671.988,1377.28L671.707,1377.35L671.429,1377.43L671.153,1377.52L670.878,1377.62L670.607,1377.72L670.338,1377.83L670.071,1377.94L669.808,1378.06L669.547,1378.19L669.29,1378.32L669.036,1378.46L668.785,1378.61L668.539,1378.76L668.296,1378.92L668.057,1379.08L667.822,1379.25L667.591,1379.43L667.365,1379.61L667.143,1379.79L666.926,1379.99L666.713,1380.18L666.506,1380.39L666.303,1380.59L666.106,1380.81L665.914,1381.02L665.727,1381.24L665.546,1381.47L665.371,1381.7L665.201,1381.94L665.037,1382.18L664.879,1382.42L664.727,1382.67L664.581,1382.92L664.441,1383.17L664.308,1383.43L664.18,1383.69L664.06,1383.95L663.945,1384.22L663.838,1384.49L663.737,1384.76L663.643,1385.03L663.555,1385.31L663.474,1385.59L663.4,1385.87L663.333,1386.15L663.273,1386.43L663.22,1386.72L663.174,1387L663.135,1387.29L663.103,1387.58L663.078,1387.87L663.061,1388.16L663.05,1388.45L663.046,1388.74" style="fill:none;stroke:black;stroke-width:1.46px;"/>
                    </g>
                    <g transform="matrix(1.15625,0,0,1.2,1808.492604,3547.534394)">
                        <path d="M4430.76,1376.93L674.857,1376.93" style="fill:none;stroke:black;stroke-width:1.46px;"/>
                    </g>
                    <g transform="matrix(1.15625,0,0,1.2,1808.492604,3547.534394)">
                        <path d="M4442.57,1388.74L4442.57,1388.45L4442.56,1388.16L4442.52,1387.58L4442.49,1387.29L4442.45,1387L4442.4,1386.72L4442.35,1386.43L4442.29,1386.15L4442.15,1385.59L4442.07,1385.31L4441.98,1385.03L4441.78,1384.49L4441.56,1383.95L4441.44,1383.69L4441.18,1383.17L4441.04,1382.92L4440.74,1382.42L4440.42,1381.94L4440.25,1381.7L4439.89,1381.24L4439.71,1381.02L4439.51,1380.81L4439.32,1380.59L4439.11,1380.39L4438.91,1380.18L4438.69,1379.99L4438.48,1379.79L4438.26,1379.61L4437.8,1379.25L4437.56,1379.08L4437.08,1378.76L4436.58,1378.46L4436.33,1378.32L4435.81,1378.06L4435.55,1377.94L4435.01,1377.72L4434.47,1377.52L4434.19,1377.43L4433.91,1377.35L4433.35,1377.21L4433.07,1377.15L4432.78,1377.1L4432.5,1377.05L4432.21,1377.02L4431.92,1376.98L4431.34,1376.94L4431.05,1376.93L4430.76,1376.93" style="fill:none;stroke:black;stroke-width:1.46px;"/>
                    </g>
                    <g transform="matrix(1.15625,0,0,1.2,1808.492604,3547.534394)">
                        <path d="M4442.57,1388.74L4442.57,1453.7" style="fill:none;stroke:black;stroke-width:1.46px;"/>
                    </g>
                    <g transform="matrix(1.15625,0,0,1.2,1808.492604,3547.534394)">
                        <path d="M4442.57,1453.7L4436.67,1453.7" style="fill:none;stroke:black;stroke-width:1.46px;"/>
                    </g>
                    <g transform="matrix(1.15625,0,0,1.2,1808.492604,3547.534394)">
                        <path d="M4436.67,1453.7L4436.67,1459.6" style="fill:none;stroke:black;stroke-width:1.46px;"/>
                    </g>
                    <g transform="matrix(1.15625,0,0,1.2,1808.492604,3547.534394)">
                        <path d="M4436.67,1459.6L4424.86,1459.6" style="fill:none;stroke:black;stroke-width:1.46px;"/>
                    </g>
                    <g transform="matrix(1.15625,0,0,1.2,1808.492604,3547.534394)">
                        <path d="M4424.86,1459.6L4424.86,1424.17" style="fill:none;stroke:black;stroke-width:1.46px;"/>
                    </g>
                    <g transform="matrix(1.15625,0,0,1.2,1808.492604,3547.534394)">
                        <path d="M4424.86,1424.17L4407.73,1424.17" style="fill:none;stroke:black;stroke-width:1.46px;"/>
                    </g>
                    <g transform="matrix(1.15625,0,0,1.2,1808.492604,3547.534394)">
                        <path d="M4407.73,1424.17L4377.61,1454.29" style="fill:none;stroke:black;stroke-width:1.46px;"/>
                    </g>
                    <g transform="matrix(1.15625,0,0,1.2,1808.492604,3547.534394)">
                        <path d="M4377.61,1454.29L4377.61,1535.78" style="fill:none;stroke:black;stroke-width:1.46px;"/>
                    </g>
                    <g transform="matrix(1.15625,0,0,1.2,1808.492604,3547.534394)">
                        <path d="M4377.61,1535.78L4407.73,1565.9" style="fill:none;stroke:black;stroke-width:1.46px;"/>
                    </g>
                    <g transform="matrix(1.15625,0,0,1.2,1808.492604,3547.534394)">
                        <path d="M4407.73,1565.9L4424.86,1565.9" style="fill:none;stroke:black;stroke-width:1.46px;"/>
                    </g>
                    <g transform="matrix(1.15625,0,0,1.2,1808.492604,3547.534394)">
                        <path d="M4424.86,1565.9L4424.86,1530.47" style="fill:none;stroke:black;stroke-width:1.46px;"/>
                    </g>
                    <g transform="matrix(1.15625,0,0,1.2,1808.492604,3547.534394)">
                        <path d="M4424.86,1530.47L4436.67,1530.47" style="fill:none;stroke:black;stroke-width:1.46px;"/>
                    </g>
                    <g transform="matrix(1.15625,0,0,1.2,1808.492604,3547.534394)">
                        <path d="M4436.67,1530.47L4436.67,1536.38" style="fill:none;stroke:black;stroke-width:1.46px;"/>
                    </g>
                    <g transform="matrix(1.15625,0,0,1.2,1808.492604,3547.534394)">
                        <path d="M4436.67,1536.38L4442.57,1536.38" style="fill:none;stroke:black;stroke-width:1.46px;"/>
                    </g>
                    <g transform="matrix(1.15625,0,0,1.2,1808.492604,3547.534394)">
                        <path d="M4442.57,1536.38L4442.57,1689.92" style="fill:none;stroke:black;stroke-width:1.46px;"/>
                    </g>
                    <g transform="matrix(1.15625,0,0,1.2,1808.492604,3547.534394)">
                        <path d="M4442.57,1689.92L4436.67,1689.92" style="fill:none;stroke:black;stroke-width:1.46px;"/>
                    </g>
                </g>
            </g>
        </g>
    </g>
</svg>
