<?xml version="1.0" encoding="UTF-8" standalone="no"?>
<!DOCTYPE svg PUBLIC "-//W3C//DTD SVG 1.1//EN" "http://www.w3.org/Graphics/SVG/1.1/DTD/svg11.dtd">
<svg width="100%" height="100%" viewBox="0 0 1210 152" version="1.1" xmlns="http://www.w3.org/2000/svg" xmlns:xlink="http://www.w3.org/1999/xlink" xml:space="preserve" xmlns:serif="http://www.serif.com/" style="fill-rule:evenodd;clip-rule:evenodd;stroke-linecap:round;stroke-linejoin:bevel;">
    <g transform="matrix(0.32,0,0,0.32,-1.92,-1737.776781)">
        <g id="Side-B-Holes" serif:id="Side B Holes" transform="matrix(0.864865,0,0,0.833333,-2218.647712,1099.843778)">
            <rect x="2572.249" y="5196.85" width="4370.079" height="566.929" style="fill:none;"/>
            <clipPath id="_clip1">
                <rect x="2572.249" y="5196.85" width="4370.079" height="566.929"/>
            </clipPath>
            <g clip-path="url(#_clip1)">
                <g transform="matrix(1.15625,0,0,1.2,1627.05501,3414.922394)">
                    <path d="M2189.35,1781.99L2189.21,1781.98L2189.06,1781.98L2188.92,1781.97L2188.77,1781.96L2188.63,1781.94L2188.48,1781.92L2188.34,1781.9L2187.92,1781.81L2187.5,1781.69L2187.36,1781.64L2187.23,1781.59L2187.09,1781.54L2186.7,1781.36L2186.31,1781.15L2185.95,1780.91L2185.83,1780.82L2185.72,1780.74L2185.6,1780.65L2185.49,1780.55L2185.39,1780.46L2185.28,1780.36L2185.07,1780.15L2184.98,1780.05L2184.88,1779.94L2184.79,1779.83L2184.7,1779.71L2184.61,1779.6L2184.52,1779.48L2184.36,1779.24L2184.29,1779.12L2184.21,1778.99L2184.14,1778.86L2184.08,1778.74L2184.01,1778.61L2183.95,1778.47L2183.89,1778.34L2183.84,1778.21L2183.74,1777.93L2183.7,1777.8L2183.62,1777.52L2183.59,1777.38L2183.56,1777.23L2183.53,1777.09L2183.51,1776.95L2183.49,1776.8L2183.47,1776.66L2183.46,1776.52L2183.45,1776.37L2183.45,1776.08" style="fill:none;stroke:black;stroke-width:1.25px;"/>
                </g>
                <g transform="matrix(1.15625,0,0,1.2,1627.05501,3414.922394)">
                    <path d="M2307.46,1781.99L2189.35,1781.99" style="fill:none;stroke:black;stroke-width:1.25px;"/>
                </g>
                <g transform="matrix(1.15625,0,0,1.2,1627.05501,3414.922394)">
                    <path d="M2313.37,1776.08L2313.36,1776.23L2313.36,1776.37L2313.35,1776.52L2313.34,1776.66L2313.32,1776.8L2313.3,1776.95L2313.28,1777.09L2313.25,1777.23L2313.22,1777.38L2313.19,1777.52L2313.11,1777.8L2313.07,1777.93L2312.97,1778.21L2312.92,1778.34L2312.86,1778.47L2312.8,1778.61L2312.74,1778.74L2312.67,1778.86L2312.53,1779.12L2312.29,1779.48L2312.2,1779.6L2312.12,1779.71L2312.03,1779.83L2311.93,1779.94L2311.84,1780.05L2311.74,1780.15L2311.64,1780.26L2311.53,1780.36L2311.43,1780.46L2311.32,1780.55L2311.21,1780.65L2311.09,1780.74L2310.98,1780.82L2310.86,1780.91L2310.5,1781.15L2310.37,1781.22L2310.25,1781.29L2310.12,1781.36L2309.99,1781.42L2309.85,1781.48L2309.72,1781.54L2309.59,1781.59L2309.31,1781.69L2309.18,1781.73L2308.9,1781.81L2308.76,1781.84L2308.61,1781.87L2308.47,1781.9L2308.33,1781.92L2308.18,1781.94L2308.04,1781.96L2307.9,1781.97L2307.75,1781.98L2307.61,1781.98L2307.46,1781.99" style="fill:none;stroke:black;stroke-width:1.25px;"/>
                </g>
                <g transform="matrix(1.15625,0,0,1.2,1627.05501,3414.922394)">
                    <path d="M2313.37,1748.09L2313.37,1776.08" style="fill:none;stroke:black;stroke-width:1.25px;"/>
                </g>
                <g transform="matrix(1.15625,0,0,1.2,1627.05501,3414.922394)">
                    <path d="M2282.3,1717.03L2283.07,1717.04L2283.83,1717.06L2284.59,1717.11L2285.35,1717.18L2286.11,1717.26L2286.86,1717.36L2287.61,1717.48L2288.36,1717.62L2289.11,1717.78L2289.85,1717.96L2290.59,1718.15L2291.32,1718.36L2292.05,1718.59L2292.77,1718.84L2293.48,1719.11L2294.19,1719.39L2294.89,1719.69L2295.58,1720.01L2296.27,1720.34L2296.95,1720.69L2297.61,1721.06L2298.27,1721.45L2298.92,1721.85L2299.56,1722.26L2300.19,1722.69L2300.81,1723.14L2301.41,1723.6L2302.01,1724.08L2302.59,1724.57L2303.16,1725.07L2303.72,1725.59L2304.27,1726.12L2304.8,1726.67L2305.32,1727.23L2305.82,1727.8L2306.32,1728.38L2306.79,1728.98L2307.25,1729.58L2307.7,1730.2L2308.13,1730.83L2308.55,1731.47L2308.95,1732.12L2309.33,1732.78L2309.7,1733.45L2310.05,1734.12L2310.38,1734.81L2310.7,1735.5L2311,1736.2L2311.29,1736.91L2311.55,1737.62L2311.8,1738.35L2312.03,1739.07L2312.24,1739.8L2312.44,1740.54L2312.61,1741.28L2312.77,1742.03L2312.91,1742.78L2313.03,1743.53L2313.13,1744.29L2313.22,1745.04L2313.28,1745.8L2313.33,1746.56L2313.36,1747.33L2313.37,1748.09" style="fill:none;stroke:black;stroke-width:1.25px;"/>
                </g>
                <g transform="matrix(1.15625,0,0,1.2,1627.05501,3414.922394)">
                    <path d="M2282.3,1717.03L2214.51,1717.03" style="fill:none;stroke:black;stroke-width:1.25px;"/>
                </g>
                <g transform="matrix(1.15625,0,0,1.2,1627.05501,3414.922394)">
                    <path d="M2183.45,1748.09L2183.45,1747.33L2183.48,1746.56L2183.53,1745.8L2183.6,1745.04L2183.68,1744.29L2183.78,1743.53L2183.9,1742.78L2184.04,1742.03L2184.2,1741.28L2184.38,1740.54L2184.57,1739.8L2184.78,1739.07L2185.01,1738.35L2185.26,1737.62L2185.53,1736.91L2185.81,1736.2L2186.11,1735.5L2186.43,1734.81L2186.76,1734.12L2187.11,1733.45L2187.48,1732.78L2187.86,1732.12L2188.26,1731.47L2188.68,1730.83L2189.11,1730.2L2189.56,1729.58L2190.02,1728.98L2190.5,1728.38L2190.99,1727.8L2191.49,1727.23L2192.01,1726.67L2192.54,1726.12L2193.09,1725.59L2193.65,1725.07L2194.22,1724.57L2194.8,1724.08L2195.4,1723.6L2196,1723.14L2196.62,1722.69L2197.25,1722.26L2197.89,1721.85L2198.54,1721.45L2199.2,1721.06L2199.87,1720.69L2200.54,1720.34L2201.23,1720.01L2201.92,1719.69L2202.62,1719.39L2203.33,1719.11L2204.04,1718.84L2204.76,1718.59L2205.49,1718.36L2206.22,1718.15L2206.96,1717.96L2207.7,1717.78L2208.45,1717.62L2209.2,1717.48L2209.95,1717.36L2210.71,1717.26L2211.46,1717.18L2212.22,1717.11L2212.98,1717.06L2213.75,1717.04L2214.51,1717.03" style="fill:none;stroke:black;stroke-width:1.25px;"/>
                </g>
                <g transform="matrix(1.15625,0,0,1.2,1627.05501,3414.922394)">
                    <path d="M2183.45,1748.09L2183.45,1776.08" style="fill:none;stroke:black;stroke-width:1.25px;"/>
                </g>
                <g transform="matrix(1.15625,0,0,1.2,1627.05501,3414.922394)">
                    <path d="M923.174,1523.33L923.166,1522.67L923.142,1522.02L923.102,1521.37L923.046,1520.72L922.974,1520.07L922.886,1519.43L922.783,1518.78L922.663,1518.14L922.528,1517.5L922.377,1516.87L922.211,1516.24L922.029,1515.61L921.832,1514.99L921.62,1514.37L921.393,1513.76L921.151,1513.16L920.894,1512.56L920.622,1511.96L920.336,1511.38L920.036,1510.8L919.721,1510.23L919.393,1509.66L919.051,1509.11L918.695,1508.56L918.326,1508.02L917.944,1507.49L917.549,1506.98L917.142,1506.47L916.722,1505.97L916.29,1505.48L915.846,1505L915.39,1504.53L914.923,1504.08L914.446,1503.63L913.957,1503.2L913.458,1502.78L912.949,1502.38L912.43,1501.98L911.901,1501.6L911.363,1501.23L910.816,1500.87L910.261,1500.53L909.698,1500.2L909.126,1499.89L908.547,1499.59L907.961,1499.3L907.368,1499.03L906.769,1498.77L906.163,1498.53L905.552,1498.3L904.935,1498.09L904.313,1497.89L903.687,1497.71L903.056,1497.55L902.422,1497.4L901.783,1497.26L901.142,1497.14L900.498,1497.04L899.852,1496.95L899.204,1496.88L898.554,1496.82L897.903,1496.78L897.251,1496.76L896.599,1496.75L895.947,1496.76L895.295,1496.78L894.644,1496.82L893.994,1496.88L893.346,1496.95L892.7,1497.04L892.056,1497.14L891.414,1497.26L890.776,1497.4L890.142,1497.55L889.511,1497.71L888.885,1497.89L888.263,1498.09L887.646,1498.3L887.035,1498.53L886.429,1498.77L885.83,1499.03L885.237,1499.3L884.651,1499.59L884.072,1499.89L883.5,1500.2L882.937,1500.53L882.382,1500.87L881.835,1501.23L881.297,1501.6L880.768,1501.98L880.249,1502.38L879.74,1502.78L879.241,1503.2L878.752,1503.63L878.275,1504.08L877.808,1504.53L877.352,1505L876.908,1505.48L876.476,1505.97L876.056,1506.47L875.649,1506.98L875.254,1507.49L874.872,1508.02L874.503,1508.56L874.147,1509.11L873.805,1509.66L873.477,1510.23L873.162,1510.8L872.862,1511.38L872.576,1511.96L872.304,1512.56L872.047,1513.16L871.805,1513.76L871.578,1514.37L871.365,1514.99L871.168,1515.61L870.987,1516.24L870.821,1516.87L870.67,1517.5L870.535,1518.14L870.415,1518.78L870.312,1519.43L870.224,1520.07L870.152,1520.72L870.096,1521.37L870.056,1522.02L870.032,1522.67L870.024,1523.33L870.032,1523.98L870.056,1524.63L870.096,1525.28L870.152,1525.93L870.224,1526.58L870.312,1527.22L870.415,1527.87L870.535,1528.51L870.67,1529.15L870.821,1529.78L870.987,1530.41L871.168,1531.04L871.365,1531.66L871.578,1532.28L871.805,1532.89L872.047,1533.49L872.304,1534.09L872.576,1534.69L872.862,1535.27L873.162,1535.85L873.477,1536.42L873.805,1536.99L874.147,1537.54L874.503,1538.09L874.872,1538.63L875.254,1539.16L875.649,1539.67L876.056,1540.18L876.476,1540.68L876.908,1541.17L877.352,1541.65L877.808,1542.12L878.275,1542.57L878.752,1543.02L879.241,1543.45L879.74,1543.87L880.249,1544.28L880.768,1544.67L881.297,1545.05L881.835,1545.42L882.382,1545.78L882.937,1546.12L883.5,1546.45L884.072,1546.76L884.651,1547.06L885.237,1547.35L885.83,1547.62L886.429,1547.88L887.035,1548.12L887.646,1548.35L888.263,1548.56L888.885,1548.76L889.511,1548.94L890.142,1549.1L890.776,1549.25L891.414,1549.39L892.056,1549.51L892.7,1549.61L893.346,1549.7L893.994,1549.77L894.644,1549.83L895.295,1549.87L895.947,1549.89L896.599,1549.9L897.251,1549.89L897.903,1549.87L898.554,1549.83L899.204,1549.77L899.852,1549.7L900.498,1549.61L901.142,1549.51L901.783,1549.39L902.422,1549.25L903.056,1549.1L903.687,1548.94L904.313,1548.76L904.935,1548.56L905.552,1548.35L906.163,1548.12L906.769,1547.88L907.368,1547.62L907.961,1547.35L908.547,1547.06L909.126,1546.76L909.698,1546.45L910.261,1546.12L910.816,1545.78L911.363,1545.42L911.901,1545.05L912.43,1544.67L912.949,1544.28L913.458,1543.87L913.957,1543.45L914.446,1543.02L914.923,1542.57L915.39,1542.12L915.846,1541.65L916.29,1541.17L916.722,1540.68L917.142,1540.18L917.549,1539.67L917.944,1539.16L918.326,1538.63L918.695,1538.09L919.051,1537.54L919.393,1536.99L919.721,1536.42L920.036,1535.85L920.336,1535.27L920.622,1534.69L920.894,1534.09L921.151,1533.49L921.393,1532.89L921.62,1532.28L921.832,1531.66L922.029,1531.04L922.211,1530.41L922.377,1529.78L922.528,1529.15L922.663,1528.51L922.783,1527.87L922.886,1527.22L922.974,1526.58L923.046,1525.93L923.102,1525.28L923.142,1524.63L923.166,1523.98L923.174,1523.33" style="fill:none;stroke:black;stroke-width:1.25px;"/>
                </g>
                <g transform="matrix(1.15625,0,0,1.2,1627.05501,3414.922394)">
                    <path d="M4491.28,1918.99L4491.29,1918.34L4491.32,1917.69L4491.36,1917.04L4491.41,1916.39L4491.48,1915.74L4491.57,1915.1L4491.68,1914.45L4491.79,1913.81L4491.93,1913.17L4492.08,1912.54L4492.25,1911.91L4492.43,1911.28L4492.63,1910.66L4492.84,1910.04L4493.06,1909.43L4493.31,1908.82L4493.56,1908.23L4493.84,1907.63L4494.12,1907.05L4494.42,1906.47L4495.06,1905.33L4495.76,1904.23L4496.13,1903.69L4496.51,1903.16L4496.91,1902.64L4497.32,1902.14L4497.74,1901.64L4498.17,1901.15L4498.61,1900.67L4499.07,1900.2L4499.53,1899.75L4500.01,1899.3L4500.5,1898.87L4501,1898.45L4501.51,1898.04L4502.03,1897.65L4502.56,1897.27L4503.09,1896.9L4503.64,1896.54L4504.2,1896.2L4504.76,1895.87L4505.33,1895.56L4505.91,1895.26L4506.5,1894.97L4507.09,1894.7L4507.69,1894.44L4508.29,1894.2L4508.91,1893.97L4509.52,1893.76L4510.14,1893.56L4510.77,1893.38L4511.4,1893.22L4512.04,1893.07L4512.67,1892.93L4513.32,1892.81L4513.96,1892.71L4514.61,1892.62L4515.25,1892.55L4515.9,1892.49L4516.55,1892.45L4517.21,1892.43L4517.86,1892.42L4518.51,1892.43L4519.16,1892.45L4519.81,1892.49L4520.46,1892.55L4521.11,1892.62L4521.76,1892.71L4522.4,1892.81L4523.04,1892.93L4523.68,1893.07L4524.32,1893.22L4524.95,1893.38L4525.57,1893.56L4526.19,1893.76L4526.81,1893.97L4527.42,1894.2L4528.03,1894.44L4528.63,1894.7L4529.22,1894.97L4529.81,1895.26L4530.39,1895.56L4530.96,1895.87L4531.52,1896.2L4532.08,1896.54L4532.62,1896.9L4533.16,1897.27L4533.69,1897.65L4534.21,1898.04L4534.72,1898.45L4535.22,1898.87L4535.71,1899.3L4536.65,1900.2L4537.11,1900.67L4537.55,1901.15L4537.98,1901.64L4538.4,1902.14L4538.81,1902.64L4539.2,1903.16L4539.59,1903.69L4539.95,1904.23L4540.31,1904.78L4540.65,1905.33L4540.98,1905.9L4541.3,1906.47L4541.6,1907.05L4541.88,1907.63L4542.15,1908.23L4542.41,1908.82L4542.65,1909.43L4542.88,1910.04L4543.09,1910.66L4543.29,1911.28L4543.47,1911.91L4543.64,1912.54L4543.79,1913.17L4543.92,1913.81L4544.04,1914.45L4544.15,1915.1L4544.23,1915.74L4544.31,1916.39L4544.36,1917.04L4544.4,1917.69L4544.43,1918.34L4544.43,1919.65L4544.4,1920.3L4544.36,1920.95L4544.31,1921.6L4544.23,1922.25L4544.15,1922.89L4544.04,1923.54L4543.92,1924.18L4543.79,1924.82L4543.64,1925.45L4543.47,1926.08L4543.29,1926.71L4543.09,1927.33L4542.88,1927.95L4542.65,1928.56L4542.41,1929.16L4542.15,1929.76L4541.88,1930.36L4541.6,1930.94L4541.3,1931.52L4540.98,1932.09L4540.65,1932.66L4540.31,1933.21L4539.95,1933.76L4539.59,1934.3L4539.2,1934.83L4538.81,1935.34L4538.4,1935.85L4537.98,1936.35L4537.55,1936.84L4537.11,1937.32L4536.65,1937.79L4535.71,1938.69L4535.22,1939.12L4534.72,1939.54L4534.21,1939.94L4533.69,1940.34L4533.16,1940.72L4532.62,1941.09L4532.08,1941.45L4531.52,1941.79L4530.96,1942.12L4530.39,1942.43L4529.81,1942.73L4529.22,1943.02L4528.63,1943.29L4528.03,1943.55L4527.42,1943.79L4526.81,1944.02L4526.19,1944.23L4525.57,1944.43L4524.95,1944.61L4524.32,1944.77L4523.68,1944.92L4523.04,1945.06L4522.4,1945.18L4521.76,1945.28L4521.11,1945.37L4520.46,1945.44L4519.81,1945.5L4519.16,1945.54L4518.51,1945.56L4517.86,1945.57L4517.21,1945.56L4516.55,1945.54L4515.9,1945.5L4515.25,1945.44L4514.61,1945.37L4513.96,1945.28L4513.32,1945.18L4512.67,1945.06L4512.04,1944.92L4511.4,1944.77L4510.77,1944.61L4510.14,1944.43L4509.52,1944.23L4508.91,1944.02L4508.29,1943.79L4507.69,1943.55L4507.09,1943.29L4506.5,1943.02L4505.91,1942.73L4505.33,1942.43L4504.76,1942.12L4504.2,1941.79L4503.64,1941.45L4503.09,1941.09L4502.56,1940.72L4502.03,1940.34L4501.51,1939.94L4501,1939.54L4500.5,1939.12L4500.01,1938.69L4499.53,1938.24L4499.07,1937.79L4498.61,1937.32L4498.17,1936.84L4497.74,1936.35L4497.32,1935.85L4496.91,1935.34L4496.51,1934.83L4496.13,1934.3L4495.76,1933.76L4495.06,1932.66L4494.42,1931.52L4494.12,1930.94L4493.84,1930.36L4493.56,1929.76L4493.06,1928.56L4492.84,1927.95L4492.63,1927.33L4492.43,1926.71L4492.25,1926.08L4492.08,1925.45L4491.93,1924.82L4491.79,1924.18L4491.68,1923.54L4491.57,1922.89L4491.48,1922.25L4491.41,1921.6L4491.36,1920.95L4491.32,1920.3L4491.29,1919.65L4491.28,1918.99" style="fill:none;stroke:black;stroke-width:1.25px;"/>
                </g>
                <g transform="matrix(1.15625,0,0,1.2,1627.05501,3414.922394)">
                    <path d="M4491.28,1523.33L4491.29,1522.67L4491.32,1522.02L4491.36,1521.37L4491.41,1520.72L4491.48,1520.07L4491.57,1519.43L4491.68,1518.78L4491.79,1518.14L4491.93,1517.5L4492.08,1516.87L4492.25,1516.24L4492.43,1515.61L4492.63,1514.99L4492.84,1514.37L4493.06,1513.76L4493.56,1512.56L4493.84,1511.96L4494.12,1511.38L4494.42,1510.8L4495.06,1509.66L4495.76,1508.56L4496.13,1508.02L4496.51,1507.49L4496.91,1506.98L4497.32,1506.47L4497.74,1505.97L4498.17,1505.48L4498.61,1505L4499.07,1504.53L4499.53,1504.08L4500.01,1503.63L4500.5,1503.2L4501,1502.78L4501.51,1502.38L4502.03,1501.98L4502.56,1501.6L4503.09,1501.23L4503.64,1500.87L4504.2,1500.53L4504.76,1500.2L4505.33,1499.89L4505.91,1499.59L4506.5,1499.3L4507.09,1499.03L4507.69,1498.77L4508.29,1498.53L4508.91,1498.3L4509.52,1498.09L4510.14,1497.89L4510.77,1497.71L4511.4,1497.55L4512.04,1497.4L4512.67,1497.26L4513.32,1497.14L4513.96,1497.04L4514.61,1496.95L4515.25,1496.88L4515.9,1496.82L4516.55,1496.78L4517.21,1496.76L4517.86,1496.75L4518.51,1496.76L4519.16,1496.78L4519.81,1496.82L4520.46,1496.88L4521.11,1496.95L4521.76,1497.04L4522.4,1497.14L4523.04,1497.26L4523.68,1497.4L4524.32,1497.55L4524.95,1497.71L4525.57,1497.89L4526.19,1498.09L4526.81,1498.3L4527.42,1498.53L4528.03,1498.77L4528.63,1499.03L4529.22,1499.3L4529.81,1499.59L4530.39,1499.89L4530.96,1500.2L4531.52,1500.53L4532.08,1500.87L4532.62,1501.23L4533.16,1501.6L4533.69,1501.98L4534.21,1502.38L4534.72,1502.78L4535.22,1503.2L4535.71,1503.63L4536.65,1504.53L4537.11,1505L4537.55,1505.48L4537.98,1505.97L4538.4,1506.47L4538.81,1506.98L4539.2,1507.49L4539.59,1508.02L4539.95,1508.56L4540.31,1509.11L4540.65,1509.66L4540.98,1510.23L4541.3,1510.8L4541.6,1511.38L4541.88,1511.96L4542.15,1512.56L4542.41,1513.16L4542.65,1513.76L4542.88,1514.37L4543.09,1514.99L4543.29,1515.61L4543.47,1516.24L4543.64,1516.87L4543.79,1517.5L4543.92,1518.14L4544.04,1518.78L4544.15,1519.43L4544.23,1520.07L4544.31,1520.72L4544.36,1521.37L4544.4,1522.02L4544.43,1522.67L4544.43,1523.98L4544.4,1524.63L4544.36,1525.28L4544.31,1525.93L4544.23,1526.58L4544.15,1527.22L4544.04,1527.87L4543.92,1528.51L4543.79,1529.15L4543.64,1529.78L4543.47,1530.41L4543.29,1531.04L4543.09,1531.66L4542.88,1532.28L4542.65,1532.89L4542.41,1533.49L4542.15,1534.09L4541.88,1534.69L4541.6,1535.27L4541.3,1535.85L4540.98,1536.42L4540.65,1536.99L4540.31,1537.54L4539.95,1538.09L4539.59,1538.63L4539.2,1539.16L4538.81,1539.67L4538.4,1540.18L4537.98,1540.68L4537.55,1541.17L4537.11,1541.65L4536.65,1542.12L4535.71,1543.02L4535.22,1543.45L4534.72,1543.87L4534.21,1544.28L4533.69,1544.67L4533.16,1545.05L4532.62,1545.42L4532.08,1545.78L4531.52,1546.12L4530.96,1546.45L4530.39,1546.76L4529.81,1547.06L4529.22,1547.35L4528.63,1547.62L4528.03,1547.88L4527.42,1548.12L4526.81,1548.35L4526.19,1548.56L4525.57,1548.76L4524.95,1548.94L4524.32,1549.1L4523.68,1549.25L4523.04,1549.39L4522.4,1549.51L4521.76,1549.61L4521.11,1549.7L4520.46,1549.77L4519.81,1549.83L4519.16,1549.87L4518.51,1549.89L4517.86,1549.9L4517.21,1549.89L4516.55,1549.87L4515.9,1549.83L4515.25,1549.77L4514.61,1549.7L4513.96,1549.61L4513.32,1549.51L4512.67,1549.39L4512.04,1549.25L4511.4,1549.1L4510.77,1548.94L4510.14,1548.76L4509.52,1548.56L4508.91,1548.35L4508.29,1548.12L4507.69,1547.88L4507.09,1547.62L4506.5,1547.35L4505.91,1547.06L4505.33,1546.76L4504.76,1546.45L4504.2,1546.12L4503.64,1545.78L4503.09,1545.42L4502.56,1545.05L4502.03,1544.67L4501.51,1544.28L4501,1543.87L4500.5,1543.45L4500.01,1543.02L4499.53,1542.57L4499.07,1542.12L4498.61,1541.65L4498.17,1541.17L4497.74,1540.68L4497.32,1540.18L4496.91,1539.67L4496.51,1539.16L4496.13,1538.63L4495.76,1538.09L4495.06,1536.99L4494.42,1535.85L4494.12,1535.27L4493.84,1534.69L4493.56,1534.09L4493.06,1532.89L4492.84,1532.28L4492.63,1531.66L4492.43,1531.04L4492.25,1530.41L4492.08,1529.78L4491.93,1529.15L4491.79,1528.51L4491.68,1527.87L4491.57,1527.22L4491.48,1526.58L4491.41,1525.93L4491.36,1525.28L4491.32,1524.63L4491.29,1523.98L4491.28,1523.33" style="fill:none;stroke:black;stroke-width:1.25px;"/>
                </g>
                <g transform="matrix(1.15625,0,0,1.2,1627.05501,3414.922394)">
                    <path d="M2680.65,1721.16L2680.66,1720.51L2680.69,1719.86L2680.73,1719.2L2680.78,1718.56L2680.85,1717.91L2680.94,1717.26L2681.16,1715.98L2681.3,1715.34L2681.45,1714.7L2681.62,1714.07L2681.8,1713.45L2682,1712.82L2682.21,1712.21L2682.43,1711.6L2682.68,1710.99L2682.93,1710.39L2683.49,1709.21L2683.79,1708.63L2684.11,1708.06L2684.43,1707.5L2684.78,1706.94L2685.13,1706.4L2685.5,1705.86L2685.88,1705.33L2686.28,1704.81L2686.69,1704.3L2687.11,1703.8L2687.54,1703.31L2687.98,1702.84L2688.44,1702.37L2688.9,1701.91L2689.38,1701.47L2689.87,1701.04L2690.37,1700.62L2690.88,1700.21L2691.4,1699.81L2691.93,1699.43L2692.46,1699.06L2693.01,1698.71L2693.57,1698.37L2694.13,1698.04L2694.7,1697.72L2695.28,1697.42L2696.46,1696.86L2697.06,1696.61L2697.66,1696.37L2698.28,1696.14L2698.89,1695.93L2699.51,1695.73L2700.14,1695.55L2700.77,1695.38L2701.41,1695.23L2702.04,1695.1L2702.69,1694.98L2703.33,1694.87L2703.98,1694.78L2704.62,1694.71L2705.27,1694.66L2705.92,1694.62L2706.58,1694.59L2707.88,1694.59L2708.53,1694.62L2709.18,1694.66L2709.83,1694.71L2710.48,1694.78L2711.13,1694.87L2711.77,1694.98L2712.41,1695.1L2713.05,1695.23L2713.69,1695.38L2714.32,1695.55L2714.94,1695.73L2715.56,1695.93L2716.18,1696.14L2716.79,1696.37L2717.4,1696.61L2718,1696.86L2719.18,1697.42L2719.76,1697.72L2720.33,1698.04L2720.89,1698.37L2721.45,1698.71L2721.99,1699.06L2722.53,1699.43L2723.06,1699.81L2723.58,1700.21L2724.09,1700.62L2724.59,1701.04L2725.08,1701.47L2725.55,1701.91L2726.02,1702.37L2726.48,1702.84L2726.92,1703.31L2727.35,1703.8L2727.77,1704.3L2728.18,1704.81L2728.57,1705.33L2728.96,1705.86L2729.33,1706.4L2729.68,1706.94L2730.02,1707.5L2730.35,1708.06L2730.67,1708.63L2730.97,1709.21L2731.25,1709.8L2731.52,1710.39L2731.78,1710.99L2732.02,1711.6L2732.25,1712.21L2732.46,1712.82L2732.66,1713.45L2732.84,1714.07L2733.01,1714.7L2733.16,1715.34L2733.29,1715.98L2733.41,1716.62L2733.52,1717.26L2733.68,1718.56L2733.73,1719.2L2733.77,1719.86L2733.8,1720.51L2733.8,1721.81L2733.77,1722.46L2733.73,1723.11L2733.68,1723.76L2733.52,1725.06L2733.41,1725.7L2733.29,1726.34L2733.16,1726.98L2733.01,1727.62L2732.84,1728.25L2732.66,1728.87L2732.46,1729.5L2732.25,1730.11L2732.02,1730.72L2731.78,1731.33L2731.52,1731.93L2731.25,1732.52L2730.97,1733.11L2730.67,1733.69L2730.35,1734.26L2730.02,1734.82L2729.68,1735.38L2729.33,1735.92L2728.96,1736.46L2728.57,1736.99L2728.18,1737.51L2727.77,1738.02L2727.35,1738.52L2726.92,1739.01L2726.48,1739.48L2726.02,1739.95L2725.55,1740.41L2725.08,1740.85L2724.59,1741.28L2724.09,1741.7L2723.58,1742.11L2723.06,1742.5L2722.53,1742.89L2721.99,1743.26L2721.45,1743.61L2720.89,1743.95L2720.33,1744.28L2719.76,1744.6L2719.18,1744.9L2718.59,1745.18L2718,1745.45L2717.4,1745.71L2716.79,1745.95L2716.18,1746.18L2715.56,1746.39L2714.94,1746.59L2714.32,1746.77L2713.69,1746.94L2713.05,1747.09L2712.41,1747.22L2711.77,1747.34L2711.13,1747.45L2709.83,1747.61L2709.18,1747.66L2708.53,1747.7L2707.88,1747.73L2706.58,1747.73L2705.92,1747.7L2705.27,1747.66L2704.62,1747.61L2703.98,1747.53L2703.33,1747.45L2702.69,1747.34L2702.04,1747.22L2701.41,1747.09L2700.77,1746.94L2700.14,1746.77L2699.51,1746.59L2698.89,1746.39L2698.28,1746.18L2697.66,1745.95L2697.06,1745.71L2696.46,1745.45L2695.87,1745.18L2695.28,1744.9L2694.7,1744.6L2694.13,1744.28L2693.57,1743.95L2693.01,1743.61L2692.46,1743.26L2691.93,1742.89L2691.4,1742.5L2690.88,1742.11L2690.37,1741.7L2689.87,1741.28L2689.38,1740.85L2688.9,1740.41L2688.44,1739.95L2687.98,1739.48L2687.54,1739.01L2687.11,1738.52L2686.69,1738.02L2686.28,1737.51L2685.88,1736.99L2685.5,1736.46L2685.13,1735.92L2684.78,1735.38L2684.43,1734.82L2684.11,1734.26L2683.79,1733.69L2683.49,1733.11L2682.93,1731.93L2682.68,1731.33L2682.43,1730.72L2682.21,1730.11L2682,1729.5L2681.8,1728.87L2681.62,1728.25L2681.45,1727.62L2681.3,1726.98L2681.16,1726.34L2680.94,1725.06L2680.85,1724.41L2680.78,1723.76L2680.73,1723.11L2680.69,1722.46L2680.66,1721.81L2680.65,1721.16" style="fill:none;stroke:black;stroke-width:1.25px;"/>
                </g>
                <g transform="matrix(1.15625,0,0,1.2,1627.05501,3414.922394)">
                    <path d="M923.174,1918.99L923.166,1918.34L923.142,1917.69L923.102,1917.04L923.046,1916.39L922.974,1915.74L922.886,1915.1L922.783,1914.45L922.663,1913.81L922.528,1913.17L922.377,1912.54L922.211,1911.91L922.029,1911.28L921.832,1910.66L921.62,1910.04L921.393,1909.43L921.151,1908.82L920.894,1908.23L920.622,1907.63L920.336,1907.05L920.036,1906.47L919.721,1905.9L919.393,1905.33L919.051,1904.78L918.695,1904.23L918.326,1903.69L917.944,1903.16L917.549,1902.64L917.142,1902.14L916.722,1901.64L916.29,1901.15L915.846,1900.67L915.39,1900.2L914.923,1899.75L914.446,1899.3L913.957,1898.87L913.458,1898.45L912.949,1898.04L912.43,1897.65L911.901,1897.27L911.363,1896.9L910.816,1896.54L910.261,1896.2L909.698,1895.87L909.126,1895.56L908.547,1895.26L907.961,1894.97L907.368,1894.7L906.769,1894.44L906.163,1894.2L905.552,1893.97L904.935,1893.76L904.313,1893.56L903.687,1893.38L903.056,1893.22L902.422,1893.07L901.783,1892.93L901.142,1892.81L900.498,1892.71L899.852,1892.62L899.204,1892.55L898.554,1892.49L897.903,1892.45L897.251,1892.43L896.599,1892.42L895.947,1892.43L895.295,1892.45L894.644,1892.49L893.994,1892.55L893.346,1892.62L892.7,1892.71L892.056,1892.81L891.414,1892.93L890.776,1893.07L890.142,1893.22L889.511,1893.38L888.885,1893.56L888.263,1893.76L887.646,1893.97L887.035,1894.2L886.429,1894.44L885.83,1894.7L885.237,1894.97L884.651,1895.26L884.072,1895.56L883.5,1895.87L882.937,1896.2L882.382,1896.54L881.835,1896.9L881.297,1897.27L880.768,1897.65L880.249,1898.04L879.74,1898.45L879.241,1898.87L878.752,1899.3L878.275,1899.75L877.808,1900.2L877.352,1900.67L876.908,1901.15L876.476,1901.64L876.056,1902.14L875.649,1902.64L875.254,1903.16L874.872,1903.69L874.503,1904.23L874.147,1904.78L873.805,1905.33L873.477,1905.9L873.162,1906.47L872.862,1907.05L872.576,1907.63L872.304,1908.23L872.047,1908.82L871.805,1909.43L871.578,1910.04L871.365,1910.66L871.168,1911.28L870.987,1911.91L870.821,1912.54L870.67,1913.17L870.535,1913.81L870.415,1914.45L870.312,1915.1L870.224,1915.74L870.152,1916.39L870.096,1917.04L870.056,1917.69L870.032,1918.34L870.024,1918.99L870.032,1919.65L870.056,1920.3L870.096,1920.95L870.152,1921.6L870.224,1922.25L870.312,1922.89L870.415,1923.54L870.535,1924.18L870.67,1924.82L870.821,1925.45L870.987,1926.08L871.168,1926.71L871.365,1927.33L871.578,1927.95L871.805,1928.56L872.047,1929.16L872.304,1929.76L872.576,1930.36L872.862,1930.94L873.162,1931.52L873.477,1932.09L873.805,1932.66L874.147,1933.21L874.503,1933.76L874.872,1934.3L875.254,1934.83L875.649,1935.34L876.056,1935.85L876.476,1936.35L876.908,1936.84L877.352,1937.32L877.808,1937.79L878.275,1938.24L878.752,1938.69L879.241,1939.12L879.74,1939.54L880.249,1939.94L880.768,1940.34L881.297,1940.72L881.835,1941.09L882.382,1941.45L882.937,1941.79L883.5,1942.12L884.072,1942.43L884.651,1942.73L885.237,1943.02L885.83,1943.29L886.429,1943.55L887.035,1943.79L887.646,1944.02L888.263,1944.23L888.885,1944.43L889.511,1944.61L890.142,1944.77L890.776,1944.92L891.414,1945.06L892.056,1945.18L892.7,1945.28L893.346,1945.37L893.994,1945.44L894.644,1945.5L895.295,1945.54L895.947,1945.56L896.599,1945.57L897.251,1945.56L897.903,1945.54L898.554,1945.5L899.204,1945.44L899.852,1945.37L900.498,1945.28L901.142,1945.18L901.783,1945.06L902.422,1944.92L903.056,1944.77L903.687,1944.61L904.313,1944.43L904.935,1944.23L905.552,1944.02L906.163,1943.79L906.769,1943.55L907.368,1943.29L907.961,1943.02L908.547,1942.73L909.126,1942.43L909.698,1942.12L910.261,1941.79L910.816,1941.45L911.363,1941.09L911.901,1940.72L912.43,1940.34L912.949,1939.94L913.458,1939.54L913.957,1939.12L914.446,1938.69L914.923,1938.24L915.39,1937.79L915.846,1937.32L916.29,1936.84L916.722,1936.35L917.142,1935.85L917.549,1935.34L917.944,1934.83L918.326,1934.3L918.695,1933.76L919.051,1933.21L919.393,1932.66L919.721,1932.09L920.036,1931.52L920.336,1930.94L920.622,1930.36L920.894,1929.76L921.151,1929.16L921.393,1928.56L921.62,1927.95L921.832,1927.33L922.029,1926.71L922.211,1926.08L922.377,1925.45L922.528,1924.82L922.663,1924.18L922.783,1923.54L922.886,1922.89L922.974,1922.25L923.046,1921.6L923.102,1920.95L923.142,1920.3L923.166,1919.65L923.174,1918.99" style="fill:none;stroke:black;stroke-width:1.25px;"/>
                </g>
                <g transform="matrix(1.15625,0,0,1.2,1627.05501,3414.922394)">
                    <path d="M2429.69,1721.16L2429.7,1720.36L2429.73,1719.57L2429.78,1718.77L2429.85,1717.98L2429.94,1717.18L2430.05,1716.39L2430.17,1715.61L2430.32,1714.82L2430.48,1714.04L2430.67,1713.27L2430.87,1712.5L2431.09,1711.73L2431.33,1710.97L2431.59,1710.22L2431.87,1709.47L2432.17,1708.73L2432.48,1708L2432.81,1707.27L2433.16,1706.56L2433.53,1705.85L2433.91,1705.15L2434.31,1704.46L2434.73,1703.78L2435.17,1703.11L2435.62,1702.46L2436.09,1701.81L2436.57,1701.18L2437.07,1700.55L2437.58,1699.94L2438.11,1699.35L2438.65,1698.76L2439.21,1698.19L2439.78,1697.64L2440.36,1697.09L2440.96,1696.57L2441.57,1696.05L2442.19,1695.55L2442.83,1695.07L2443.47,1694.6L2444.13,1694.15L2444.8,1693.72L2445.48,1693.3L2446.16,1692.9L2446.86,1692.51L2447.57,1692.15L2448.29,1691.8L2449.01,1691.47L2449.74,1691.15L2450.48,1690.86L2451.23,1690.58L2451.99,1690.32L2452.75,1690.08L2453.51,1689.86L2454.28,1689.65L2455.06,1689.47L2455.84,1689.3L2456.62,1689.16L2457.41,1689.03L2458.2,1688.92L2458.99,1688.84L2459.78,1688.77L2460.58,1688.72L2461.38,1688.69L2462.17,1688.68L2462.97,1688.69L2463.77,1688.72L2464.56,1688.77L2465.36,1688.84L2466.15,1688.92L2466.94,1689.03L2467.73,1689.16L2468.51,1689.3L2469.29,1689.47L2470.07,1689.65L2470.84,1689.86L2471.6,1690.08L2472.36,1690.32L2473.12,1690.58L2473.86,1690.86L2474.6,1691.15L2475.34,1691.47L2476.06,1691.8L2476.78,1692.15L2477.48,1692.51L2478.18,1692.9L2478.87,1693.3L2479.55,1693.72L2480.22,1694.15L2480.88,1694.6L2481.52,1695.07L2482.16,1695.55L2482.78,1696.05L2483.39,1696.57L2483.99,1697.09L2484.57,1697.64L2485.14,1698.19L2485.7,1698.76L2486.24,1699.35L2486.77,1699.94L2487.28,1700.55L2487.78,1701.18L2488.26,1701.81L2488.73,1702.46L2489.18,1703.11L2489.61,1703.78L2490.03,1704.46L2490.43,1705.15L2490.82,1705.85L2491.19,1706.56L2491.54,1707.27L2491.87,1708L2492.18,1708.73L2492.48,1709.47L2492.76,1710.22L2493.01,1710.97L2493.26,1711.73L2493.48,1712.5L2493.68,1713.27L2493.86,1714.04L2494.03,1714.82L2494.18,1715.61L2494.3,1716.39L2494.41,1717.18L2494.5,1717.98L2494.57,1718.77L2494.61,1719.57L2494.64,1720.36L2494.65,1721.16L2494.64,1721.96L2494.61,1722.75L2494.57,1723.55L2494.5,1724.34L2494.41,1725.14L2494.3,1725.93L2494.18,1726.71L2494.03,1727.5L2493.86,1728.28L2493.68,1729.05L2493.48,1729.82L2493.26,1730.59L2493.01,1731.35L2492.76,1732.1L2492.48,1732.85L2492.18,1733.59L2491.87,1734.32L2491.54,1735.05L2491.19,1735.76L2490.82,1736.47L2490.43,1737.17L2490.03,1737.86L2489.61,1738.54L2489.18,1739.2L2488.73,1739.86L2488.26,1740.51L2487.78,1741.14L2487.28,1741.77L2486.77,1742.38L2486.24,1742.97L2485.7,1743.56L2485.14,1744.13L2484.57,1744.68L2483.99,1745.23L2483.39,1745.75L2482.78,1746.27L2482.16,1746.77L2481.52,1747.25L2480.88,1747.72L2480.22,1748.17L2479.55,1748.6L2478.87,1749.02L2478.18,1749.42L2477.48,1749.8L2476.78,1750.17L2476.06,1750.52L2475.34,1750.85L2474.6,1751.17L2473.86,1751.46L2473.12,1751.74L2472.36,1752L2471.6,1752.24L2470.84,1752.46L2470.07,1752.67L2469.29,1752.85L2468.51,1753.02L2467.73,1753.16L2466.94,1753.29L2466.15,1753.4L2465.36,1753.48L2464.56,1753.55L2463.77,1753.6L2462.97,1753.63L2462.17,1753.64L2461.38,1753.63L2460.58,1753.6L2459.78,1753.55L2458.99,1753.48L2458.2,1753.4L2457.41,1753.29L2456.62,1753.16L2455.84,1753.02L2455.06,1752.85L2454.28,1752.67L2453.51,1752.46L2452.75,1752.24L2451.99,1752L2451.23,1751.74L2450.48,1751.46L2449.74,1751.17L2449.01,1750.85L2448.29,1750.52L2447.57,1750.17L2446.86,1749.8L2446.16,1749.42L2445.48,1749.02L2444.8,1748.6L2444.13,1748.17L2443.47,1747.72L2442.83,1747.25L2442.19,1746.77L2441.57,1746.27L2440.96,1745.75L2440.36,1745.23L2439.78,1744.68L2439.21,1744.13L2438.65,1743.56L2438.11,1742.97L2437.58,1742.38L2437.07,1741.77L2436.57,1741.14L2436.09,1740.51L2435.62,1739.86L2435.17,1739.2L2434.73,1738.54L2434.31,1737.86L2433.91,1737.17L2433.53,1736.47L2433.16,1735.76L2432.81,1735.05L2432.48,1734.32L2432.17,1733.59L2431.87,1732.85L2431.59,1732.1L2431.33,1731.35L2431.09,1730.59L2430.87,1729.82L2430.67,1729.05L2430.48,1728.28L2430.32,1727.5L2430.17,1726.71L2430.05,1725.93L2429.94,1725.14L2429.85,1724.34L2429.78,1723.55L2429.73,1722.75L2429.7,1721.96L2429.69,1721.16" style="fill:none;stroke:black;stroke-width:1.25px;"/>
                </g>
                <g transform="matrix(1.15625,0,0,1.2,1627.05501,3414.922394)">
                    <path d="M4591.09,1561.71L4591.09,1567.62" style="fill:none;stroke:black;stroke-width:1.25px;"/>
                </g>
                <g transform="matrix(1.15625,0,0,1.2,1627.05501,3414.922394)">
                    <path d="M4591.09,1567.62L4579.28,1567.62" style="fill:none;stroke:black;stroke-width:1.25px;"/>
                </g>
                <g transform="matrix(1.15625,0,0,1.2,1627.05501,3414.922394)">
                    <path d="M4579.28,1567.62L4579.28,1532.18" style="fill:none;stroke:black;stroke-width:1.25px;"/>
                </g>
                <g transform="matrix(1.15625,0,0,1.2,1627.05501,3414.922394)">
                    <path d="M4579.28,1532.18L4562.15,1532.18" style="fill:none;stroke:black;stroke-width:1.25px;"/>
                </g>
                <g transform="matrix(1.15625,0,0,1.2,1627.05501,3414.922394)">
                    <path d="M4562.15,1532.18L4532.03,1562.3" style="fill:none;stroke:black;stroke-width:1.25px;"/>
                </g>
                <g transform="matrix(1.15625,0,0,1.2,1627.05501,3414.922394)">
                    <path d="M4532.03,1562.3L4532.03,1643.8" style="fill:none;stroke:black;stroke-width:1.25px;"/>
                </g>
                <g transform="matrix(1.15625,0,0,1.2,1627.05501,3414.922394)">
                    <path d="M4532.03,1643.8L4562.15,1673.92" style="fill:none;stroke:black;stroke-width:1.25px;"/>
                </g>
                <g transform="matrix(1.15625,0,0,1.2,1627.05501,3414.922394)">
                    <path d="M4562.15,1673.92L4579.28,1673.92" style="fill:none;stroke:black;stroke-width:1.25px;"/>
                </g>
                <g transform="matrix(1.15625,0,0,1.2,1627.05501,3414.922394)">
                    <path d="M4579.28,1673.92L4579.28,1638.48" style="fill:none;stroke:black;stroke-width:1.25px;"/>
                </g>
                <g transform="matrix(1.15625,0,0,1.2,1627.05501,3414.922394)">
                    <path d="M4579.28,1638.48L4591.09,1638.48" style="fill:none;stroke:black;stroke-width:1.25px;"/>
                </g>
                <g transform="matrix(1.15625,0,0,1.2,1627.05501,3414.922394)">
                    <path d="M4591.09,1638.48L4591.09,1644.39" style="fill:none;stroke:black;stroke-width:1.25px;"/>
                </g>
                <g transform="matrix(1.15625,0,0,1.2,1627.05501,3414.922394)">
                    <path d="M4591.09,1644.39L4596.99,1644.39" style="fill:none;stroke:black;stroke-width:1.25px;"/>
                </g>
                <g transform="matrix(1.15625,0,0,1.2,1627.05501,3414.922394)">
                    <path d="M4596.99,1644.39L4596.99,1797.93" style="fill:none;stroke:black;stroke-width:1.25px;"/>
                </g>
                <g transform="matrix(1.15625,0,0,1.2,1627.05501,3414.922394)">
                    <path d="M4596.99,1797.93L4591.09,1797.93" style="fill:none;stroke:black;stroke-width:1.25px;"/>
                </g>
                <g transform="matrix(1.15625,0,0,1.2,1627.05501,3414.922394)">
                    <path d="M4591.09,1797.93L4591.09,1803.84" style="fill:none;stroke:black;stroke-width:1.25px;"/>
                </g>
                <g transform="matrix(1.15625,0,0,1.2,1627.05501,3414.922394)">
                    <path d="M4591.09,1803.84L4579.28,1803.84" style="fill:none;stroke:black;stroke-width:1.25px;"/>
                </g>
                <g transform="matrix(1.15625,0,0,1.2,1627.05501,3414.922394)">
                    <path d="M4579.28,1803.84L4579.28,1768.4" style="fill:none;stroke:black;stroke-width:1.25px;"/>
                </g>
                <g transform="matrix(1.15625,0,0,1.2,1627.05501,3414.922394)">
                    <path d="M4579.28,1768.4L4562.15,1768.4" style="fill:none;stroke:black;stroke-width:1.25px;"/>
                </g>
                <g transform="matrix(1.15625,0,0,1.2,1627.05501,3414.922394)">
                    <path d="M4562.15,1768.4L4532.03,1798.52" style="fill:none;stroke:black;stroke-width:1.25px;"/>
                </g>
                <g transform="matrix(1.15625,0,0,1.2,1627.05501,3414.922394)">
                    <path d="M4532.03,1798.52L4532.03,1880.02" style="fill:none;stroke:black;stroke-width:1.25px;"/>
                </g>
                <g transform="matrix(1.15625,0,0,1.2,1627.05501,3414.922394)">
                    <path d="M4532.03,1880.02L4562.15,1910.14" style="fill:none;stroke:black;stroke-width:1.25px;"/>
                </g>
                <g transform="matrix(1.15625,0,0,1.2,1627.05501,3414.922394)">
                    <path d="M4562.15,1910.14L4579.28,1910.14" style="fill:none;stroke:black;stroke-width:1.25px;"/>
                </g>
                <g transform="matrix(1.15625,0,0,1.2,1627.05501,3414.922394)">
                    <path d="M4579.28,1910.14L4579.28,1874.7" style="fill:none;stroke:black;stroke-width:1.25px;"/>
                </g>
                <g transform="matrix(1.15625,0,0,1.2,1627.05501,3414.922394)">
                    <path d="M4579.28,1874.7L4591.09,1874.7" style="fill:none;stroke:black;stroke-width:1.25px;"/>
                </g>
                <g transform="matrix(1.15625,0,0,1.2,1627.05501,3414.922394)">
                    <path d="M4591.09,1874.7L4591.09,1880.61" style="fill:none;stroke:black;stroke-width:1.25px;"/>
                </g>
                <g transform="matrix(1.15625,0,0,1.2,1627.05501,3414.922394)">
                    <path d="M4591.09,1880.61L4596.99,1880.61" style="fill:none;stroke:black;stroke-width:1.25px;"/>
                </g>
                <g transform="matrix(1.15625,0,0,1.2,1627.05501,3414.922394)">
                    <path d="M4596.99,1880.61L4596.99,1945.57" style="fill:none;stroke:black;stroke-width:1.25px;"/>
                </g>
                <g transform="matrix(1.15625,0,0,1.2,1627.05501,3414.922394)">
                    <path d="M4585.18,1957.38L4585.47,1957.38L4585.76,1957.37L4586.05,1957.35L4586.63,1957.29L4586.91,1957.25L4587.2,1957.21L4587.49,1957.15L4588.05,1957.03L4588.61,1956.87L4588.89,1956.78L4589.16,1956.69L4589.43,1956.59L4589.97,1956.37L4590.23,1956.25L4590.75,1955.99L4591,1955.85L4591.5,1955.55L4591.98,1955.23L4592.22,1955.06L4592.45,1954.88L4592.67,1954.7L4592.9,1954.51L4593.11,1954.32L4593.33,1954.12L4593.74,1953.71L4593.93,1953.5L4594.13,1953.28L4594.49,1952.84L4594.67,1952.61L4594.84,1952.37L4595.16,1951.89L4595.46,1951.39L4595.6,1951.14L4595.86,1950.62L4595.98,1950.36L4596.2,1949.82L4596.3,1949.55L4596.4,1949.27L4596.48,1949L4596.64,1948.44L4596.71,1948.16L4596.77,1947.87L4596.82,1947.59L4596.86,1947.3L4596.9,1947.02L4596.94,1946.73L4596.98,1946.15L4596.99,1945.86L4596.99,1945.57" style="fill:none;stroke:black;stroke-width:1.25px;"/>
                </g>
                <g transform="matrix(1.15625,0,0,1.2,1627.05501,3414.922394)">
                    <path d="M4585.18,1957.38L829.276,1957.38" style="fill:none;stroke:black;stroke-width:1.25px;"/>
                </g>
                <g transform="matrix(1.15625,0,0,1.2,1627.05501,3414.922394)">
                    <path d="M817.465,1945.57L817.469,1945.86L817.479,1946.15L817.497,1946.44L817.522,1946.73L817.554,1947.02L817.593,1947.3L817.639,1947.59L817.692,1947.87L817.752,1948.16L817.819,1948.44L817.893,1948.72L817.974,1949L818.061,1949.27L818.156,1949.55L818.257,1949.82L818.364,1950.09L818.478,1950.36L818.599,1950.62L818.726,1950.88L818.86,1951.14L819,1951.39L819.145,1951.64L819.298,1951.89L819.456,1952.13L819.62,1952.37L819.789,1952.61L819.965,1952.84L820.146,1953.06L820.333,1953.28L820.525,1953.5L820.722,1953.71L820.924,1953.92L821.132,1954.12L821.344,1954.32L821.561,1954.51L821.783,1954.7L822.01,1954.88L822.24,1955.06L822.475,1955.23L822.714,1955.39L822.957,1955.55L823.204,1955.7L823.455,1955.85L823.708,1955.99L823.966,1956.12L824.226,1956.25L824.49,1956.37L824.756,1956.48L825.025,1956.59L825.297,1956.69L825.571,1956.78L825.848,1956.87L826.126,1956.95L826.406,1957.03L826.688,1957.09L826.972,1957.15L827.257,1957.21L827.543,1957.25L827.83,1957.29L828.118,1957.32L828.407,1957.35L828.697,1957.37L828.986,1957.38L829.276,1957.38" style="fill:none;stroke:black;stroke-width:1.25px;"/>
                </g>
                <g transform="matrix(1.15625,0,0,1.2,1627.05501,3414.922394)">
                    <path d="M817.465,1880.61L817.465,1945.57" style="fill:none;stroke:black;stroke-width:1.25px;"/>
                </g>
                <g transform="matrix(1.15625,0,0,1.2,1627.05501,3414.922394)">
                    <path d="M823.371,1880.61L817.465,1880.61" style="fill:none;stroke:black;stroke-width:1.25px;"/>
                </g>
                <g transform="matrix(1.15625,0,0,1.2,1627.05501,3414.922394)">
                    <path d="M823.371,1874.7L823.371,1880.61" style="fill:none;stroke:black;stroke-width:1.25px;"/>
                </g>
                <g transform="matrix(1.15625,0,0,1.2,1627.05501,3414.922394)">
                    <path d="M835.182,1874.7L823.371,1874.7" style="fill:none;stroke:black;stroke-width:1.25px;"/>
                </g>
                <g transform="matrix(1.15625,0,0,1.2,1627.05501,3414.922394)">
                    <path d="M835.182,1910.14L835.182,1874.7" style="fill:none;stroke:black;stroke-width:1.25px;"/>
                </g>
                <g transform="matrix(1.15625,0,0,1.2,1627.05501,3414.922394)">
                    <path d="M852.308,1910.14L835.182,1910.14" style="fill:none;stroke:black;stroke-width:1.25px;"/>
                </g>
                <g transform="matrix(1.15625,0,0,1.2,1627.05501,3414.922394)">
                    <path d="M882.426,1880.02L852.308,1910.14" style="fill:none;stroke:black;stroke-width:1.25px;"/>
                </g>
                <g transform="matrix(1.15625,0,0,1.2,1627.05501,3414.922394)">
                    <path d="M882.426,1798.52L882.426,1880.02" style="fill:none;stroke:black;stroke-width:1.25px;"/>
                </g>
                <g transform="matrix(1.15625,0,0,1.2,1627.05501,3414.922394)">
                    <path d="M852.308,1768.4L882.426,1798.52" style="fill:none;stroke:black;stroke-width:1.25px;"/>
                </g>
                <g transform="matrix(1.15625,0,0,1.2,1627.05501,3414.922394)">
                    <path d="M835.182,1768.4L852.308,1768.4" style="fill:none;stroke:black;stroke-width:1.25px;"/>
                </g>
                <g transform="matrix(1.15625,0,0,1.2,1627.05501,3414.922394)">
                    <path d="M835.182,1803.84L835.182,1768.4" style="fill:none;stroke:black;stroke-width:1.25px;"/>
                </g>
                <g transform="matrix(1.15625,0,0,1.2,1627.05501,3414.922394)">
                    <path d="M823.371,1803.84L835.182,1803.84" style="fill:none;stroke:black;stroke-width:1.25px;"/>
                </g>
                <g transform="matrix(1.15625,0,0,1.2,1627.05501,3414.922394)">
                    <path d="M823.371,1797.93L823.371,1803.84" style="fill:none;stroke:black;stroke-width:1.25px;"/>
                </g>
                <g transform="matrix(1.15625,0,0,1.2,1627.05501,3414.922394)">
                    <path d="M817.465,1797.93L823.371,1797.93" style="fill:none;stroke:black;stroke-width:1.25px;"/>
                </g>
                <g transform="matrix(1.15625,0,0,1.2,1627.05501,3414.922394)">
                    <path d="M817.465,1644.39L817.465,1797.93" style="fill:none;stroke:black;stroke-width:1.25px;"/>
                </g>
                <g transform="matrix(1.15625,0,0,1.2,1627.05501,3414.922394)">
                    <path d="M823.371,1644.39L817.465,1644.39" style="fill:none;stroke:black;stroke-width:1.25px;"/>
                </g>
                <g transform="matrix(1.15625,0,0,1.2,1627.05501,3414.922394)">
                    <path d="M823.371,1638.48L823.371,1644.39" style="fill:none;stroke:black;stroke-width:1.25px;"/>
                </g>
                <g transform="matrix(1.15625,0,0,1.2,1627.05501,3414.922394)">
                    <path d="M835.182,1638.48L823.371,1638.48" style="fill:none;stroke:black;stroke-width:1.25px;"/>
                </g>
                <g transform="matrix(1.15625,0,0,1.2,1627.05501,3414.922394)">
                    <path d="M835.182,1673.92L835.182,1638.48" style="fill:none;stroke:black;stroke-width:1.25px;"/>
                </g>
                <g transform="matrix(1.15625,0,0,1.2,1627.05501,3414.922394)">
                    <path d="M852.308,1673.92L835.182,1673.92" style="fill:none;stroke:black;stroke-width:1.25px;"/>
                </g>
                <g transform="matrix(1.15625,0,0,1.2,1627.05501,3414.922394)">
                    <path d="M882.426,1643.8L852.308,1673.92" style="fill:none;stroke:black;stroke-width:1.25px;"/>
                </g>
                <g transform="matrix(1.15625,0,0,1.2,1627.05501,3414.922394)">
                    <path d="M882.426,1562.3L882.426,1643.8" style="fill:none;stroke:black;stroke-width:1.25px;"/>
                </g>
                <g transform="matrix(1.15625,0,0,1.2,1627.05501,3414.922394)">
                    <path d="M852.308,1532.18L882.426,1562.3" style="fill:none;stroke:black;stroke-width:1.25px;"/>
                </g>
                <g transform="matrix(1.15625,0,0,1.2,1627.05501,3414.922394)">
                    <path d="M835.182,1532.18L852.308,1532.18" style="fill:none;stroke:black;stroke-width:1.25px;"/>
                </g>
                <g transform="matrix(1.15625,0,0,1.2,1627.05501,3414.922394)">
                    <path d="M835.182,1567.62L835.182,1532.18" style="fill:none;stroke:black;stroke-width:1.25px;"/>
                </g>
                <g transform="matrix(1.15625,0,0,1.2,1627.05501,3414.922394)">
                    <path d="M823.371,1567.62L835.182,1567.62" style="fill:none;stroke:black;stroke-width:1.25px;"/>
                </g>
                <g transform="matrix(1.15625,0,0,1.2,1627.05501,3414.922394)">
                    <path d="M823.371,1561.71L823.371,1567.62" style="fill:none;stroke:black;stroke-width:1.25px;"/>
                </g>
                <g transform="matrix(1.15625,0,0,1.2,1627.05501,3414.922394)">
                    <path d="M817.465,1561.71L823.371,1561.71" style="fill:none;stroke:black;stroke-width:1.25px;"/>
                </g>
                <g transform="matrix(1.15625,0,0,1.2,1627.05501,3414.922394)">
                    <path d="M817.465,1496.75L817.465,1561.71" style="fill:none;stroke:black;stroke-width:1.25px;"/>
                </g>
                <g transform="matrix(1.15625,0,0,1.2,1627.05501,3414.922394)">
                    <path d="M829.276,1484.94L828.986,1484.94L828.697,1484.95L828.407,1484.97L828.118,1485L827.83,1485.03L827.543,1485.07L827.257,1485.11L826.972,1485.17L826.688,1485.23L826.406,1485.29L826.126,1485.37L825.848,1485.45L825.571,1485.54L825.297,1485.63L825.025,1485.73L824.756,1485.84L824.49,1485.95L824.226,1486.07L823.966,1486.2L823.708,1486.33L823.455,1486.47L823.204,1486.62L822.957,1486.77L822.714,1486.93L822.475,1487.09L822.24,1487.26L822.01,1487.44L821.783,1487.62L821.561,1487.81L821.344,1488L821.132,1488.2L820.924,1488.4L820.722,1488.61L820.525,1488.82L820.333,1489.04L820.146,1489.26L819.965,1489.48L819.789,1489.71L819.62,1489.95L819.456,1490.19L819.298,1490.43L819.145,1490.68L819,1490.93L818.86,1491.18L818.726,1491.44L818.599,1491.7L818.478,1491.96L818.364,1492.23L818.257,1492.5L818.156,1492.77L818.061,1493.05L817.974,1493.32L817.893,1493.6L817.819,1493.88L817.752,1494.16L817.692,1494.45L817.639,1494.73L817.593,1495.02L817.554,1495.3L817.522,1495.59L817.497,1495.88L817.479,1496.17L817.469,1496.46L817.465,1496.75" style="fill:none;stroke:black;stroke-width:1.25px;"/>
                </g>
                <g transform="matrix(1.15625,0,0,1.2,1627.05501,3414.922394)">
                    <path d="M4585.18,1484.94L829.276,1484.94" style="fill:none;stroke:black;stroke-width:1.25px;"/>
                </g>
                <g transform="matrix(1.15625,0,0,1.2,1627.05501,3414.922394)">
                    <path d="M4596.99,1496.75L4596.99,1496.46L4596.98,1496.17L4596.94,1495.59L4596.9,1495.3L4596.86,1495.02L4596.82,1494.73L4596.77,1494.45L4596.71,1494.16L4596.64,1493.88L4596.48,1493.32L4596.4,1493.05L4596.3,1492.77L4596.2,1492.5L4595.98,1491.96L4595.86,1491.7L4595.6,1491.18L4595.46,1490.93L4595.16,1490.43L4594.84,1489.95L4594.67,1489.71L4594.49,1489.48L4594.13,1489.04L4593.93,1488.82L4593.74,1488.61L4593.33,1488.2L4593.11,1488L4592.9,1487.81L4592.67,1487.62L4592.45,1487.44L4592.22,1487.26L4591.98,1487.09L4591.5,1486.77L4591,1486.47L4590.75,1486.33L4590.23,1486.07L4589.97,1485.95L4589.43,1485.73L4589.16,1485.63L4588.89,1485.54L4588.61,1485.45L4588.05,1485.29L4587.49,1485.17L4587.2,1485.11L4586.91,1485.07L4586.63,1485.03L4586.05,1484.97L4585.76,1484.95L4585.47,1484.94L4585.18,1484.94" style="fill:none;stroke:black;stroke-width:1.25px;"/>
                </g>
                <g transform="matrix(1.15625,0,0,1.2,1627.05501,3414.922394)">
                    <path d="M4596.99,1496.75L4596.99,1561.71" style="fill:none;stroke:black;stroke-width:1.25px;"/>
                </g>
                <g transform="matrix(1.15625,0,0,1.2,1627.05501,3414.922394)">
                    <path d="M4596.99,1561.71L4591.09,1561.71" style="fill:none;stroke:black;stroke-width:1.25px;"/>
                </g>
            </g>
        </g>
    </g>
</svg>
