<?xml version="1.0" encoding="UTF-8" standalone="no"?>
<!DOCTYPE svg PUBLIC "-//W3C//DTD SVG 1.1//EN" "http://www.w3.org/Graphics/SVG/1.1/DTD/svg11.dtd">
<svg width="100%" height="100%" viewBox="0 0 1210 152" version="1.1" xmlns="http://www.w3.org/2000/svg" xmlns:xlink="http://www.w3.org/1999/xlink" xml:space="preserve" xmlns:serif="http://www.serif.com/" style="fill-rule:evenodd;clip-rule:evenodd;stroke-linecap:round;stroke-linejoin:bevel;">
    <g transform="matrix(0.32,0,0,0.32,-3.7792,-1277.180111)">
        <g id="_3D-Printed-Rail-Side-B-Outline" serif:id="3D Printed Rail Side B Outline" transform="matrix(0.864865,0,0,0.833333,-2212.837712,-339.520815)">
            <rect x="2572.249" y="5196.85" width="4370.079" height="566.929" style="fill:none;"/>
            <clipPath id="_clip1">
                <rect x="2572.249" y="5196.85" width="4370.079" height="566.929"/>
            </clipPath>
            <g clip-path="url(#_clip1)">
                <g transform="matrix(1.15625,0,0,1.2,1781.833458,3266.518394)">
                    <path d="M4430.65,2022L4430.64,2021.35L4430.62,2020.7L4430.58,2020.05L4430.52,2019.4L4430.45,2018.75L4430.36,2018.1L4430.26,2017.46L4430.14,2016.82L4430,2016.18L4429.85,2015.54L4429.69,2014.91L4429.5,2014.29L4429.31,2013.66L4428.87,2012.44L4428.63,2011.83L4428.37,2011.23L4428.1,2010.64L4427.81,2010.05L4427.51,2009.47L4427.2,2008.9L4426.87,2008.34L4426.53,2007.78L4426.17,2007.24L4425.8,2006.7L4425.42,2006.17L4425.02,2005.65L4424.62,2005.14L4424.2,2004.64L4423.76,2004.15L4423.32,2003.68L4422.86,2003.21L4422.4,2002.75L4421.92,2002.31L4421.43,2001.88L4420.93,2001.46L4420.42,2001.05L4419.38,2000.27L4418.84,1999.9L4418.29,1999.55L4417.74,1999.21L4417.17,1998.88L4416.6,1998.56L4416.02,1998.26L4415.44,1997.98L4414.84,1997.71L4414.24,1997.45L4413.64,1997.21L4413.03,1996.98L4412.41,1996.77L4411.79,1996.57L4411.16,1996.39L4410.53,1996.22L4409.9,1996.07L4409.26,1995.94L4408.62,1995.82L4407.97,1995.71L4407.33,1995.63L4406.68,1995.55L4406.03,1995.5L4405.38,1995.46L4404.73,1995.43L4403.42,1995.43L4402.77,1995.46L4402.12,1995.5L4401.47,1995.55L4400.17,1995.71L4399.53,1995.82L4398.89,1995.94L4398.25,1996.07L4397.62,1996.22L4396.99,1996.39L4396.36,1996.57L4395.74,1996.77L4395.12,1996.98L4394.51,1997.21L4393.9,1997.45L4393.3,1997.71L4392.71,1997.98L4392.12,1998.26L4391.55,1998.56L4390.97,1998.88L4390.41,1999.21L4389.86,1999.55L4389.31,1999.9L4388.77,2000.27L4388.24,2000.66L4387.72,2001.05L4387.21,2001.46L4386.72,2001.88L4386.23,2002.31L4385.75,2002.75L4385.28,2003.21L4384.38,2004.15L4383.95,2004.64L4383.53,2005.14L4383.12,2005.65L4382.73,2006.17L4382.35,2006.7L4381.98,2007.24L4381.62,2007.78L4381.28,2008.34L4380.95,2008.9L4380.64,2009.47L4380.34,2010.05L4380.05,2010.64L4379.78,2011.23L4379.52,2011.83L4379.28,2012.44L4379.05,2013.05L4378.84,2013.66L4378.64,2014.29L4378.46,2014.91L4378.29,2015.54L4378.14,2016.18L4378.01,2016.82L4377.89,2017.46L4377.79,2018.1L4377.7,2018.75L4377.63,2019.4L4377.57,2020.05L4377.53,2020.7L4377.51,2021.35L4377.5,2022L4377.51,2022.65L4377.53,2023.3L4377.57,2023.96L4377.63,2024.61L4377.7,2025.25L4377.79,2025.9L4377.89,2026.54L4378.01,2027.19L4378.14,2027.82L4378.29,2028.46L4378.46,2029.09L4378.64,2029.71L4378.84,2030.34L4379.05,2030.95L4379.28,2031.56L4379.52,2032.17L4379.78,2032.77L4380.05,2033.36L4380.34,2033.95L4380.64,2034.53L4380.95,2035.1L4381.28,2035.66L4381.62,2036.22L4381.98,2036.76L4382.35,2037.3L4382.73,2037.83L4383.12,2038.35L4383.53,2038.86L4383.95,2039.36L4384.38,2039.85L4385.28,2040.79L4385.75,2041.25L4386.23,2041.69L4386.72,2042.12L4387.21,2042.54L4387.72,2042.95L4388.24,2043.35L4388.77,2043.73L4389.31,2044.1L4389.86,2044.45L4390.41,2044.79L4390.97,2045.12L4391.55,2045.44L4392.12,2045.74L4393.3,2046.3L4393.9,2046.55L4394.51,2046.79L4395.12,2047.02L4395.74,2047.23L4396.36,2047.43L4396.99,2047.61L4397.62,2047.78L4398.25,2047.93L4398.89,2048.06L4399.53,2048.18L4400.17,2048.29L4400.82,2048.38L4401.47,2048.45L4402.12,2048.5L4402.77,2048.54L4403.42,2048.57L4404.07,2048.58L4404.73,2048.57L4405.38,2048.54L4406.03,2048.5L4406.68,2048.45L4407.33,2048.38L4407.97,2048.29L4408.62,2048.18L4409.26,2048.06L4409.9,2047.93L4410.53,2047.78L4411.16,2047.61L4411.79,2047.43L4412.41,2047.23L4413.03,2047.02L4413.64,2046.79L4414.24,2046.55L4414.84,2046.3L4415.44,2046.02L4416.02,2045.74L4416.6,2045.44L4417.17,2045.12L4417.74,2044.79L4418.29,2044.45L4418.84,2044.1L4419.38,2043.73L4419.9,2043.35L4420.42,2042.95L4420.93,2042.54L4421.43,2042.12L4421.92,2041.69L4422.4,2041.25L4422.86,2040.79L4423.32,2040.32L4423.76,2039.85L4424.2,2039.36L4424.62,2038.86L4425.02,2038.35L4425.42,2037.83L4425.8,2037.3L4426.17,2036.76L4426.53,2036.22L4426.87,2035.66L4427.2,2035.1L4427.51,2034.53L4427.81,2033.95L4428.1,2033.36L4428.37,2032.77L4428.63,2032.17L4428.87,2031.56L4429.31,2030.34L4429.5,2029.71L4429.69,2029.09L4429.85,2028.46L4430,2027.82L4430.14,2027.19L4430.26,2026.54L4430.36,2025.9L4430.45,2025.25L4430.52,2024.61L4430.58,2023.96L4430.62,2023.3L4430.64,2022.65L4430.65,2022" style="fill:none;stroke:black;stroke-width:1.25px;"/>
                </g>
                <g transform="matrix(1.15625,0,0,1.2,1781.833458,3266.518394)">
                    <path d="M4377.5,1667.67L4377.51,1667.02L4377.53,1666.37L4377.57,1665.71L4377.63,1665.07L4377.7,1664.42L4377.79,1663.77L4377.89,1663.13L4378.01,1662.49L4378.14,1661.85L4378.29,1661.21L4378.46,1660.58L4378.64,1659.96L4378.84,1659.33L4379.05,1658.72L4379.28,1658.11L4379.52,1657.5L4379.78,1656.9L4380.05,1656.31L4380.34,1655.72L4380.64,1655.14L4380.95,1654.57L4381.28,1654.01L4381.62,1653.45L4381.98,1652.91L4382.35,1652.37L4382.73,1651.84L4383.12,1651.32L4383.53,1650.81L4383.95,1650.31L4384.38,1649.82L4385.28,1648.88L4385.75,1648.42L4386.23,1647.98L4386.72,1647.55L4387.21,1647.13L4387.72,1646.72L4388.24,1646.32L4388.77,1645.94L4389.31,1645.57L4389.86,1645.22L4390.41,1644.88L4390.97,1644.55L4391.55,1644.23L4392.12,1643.93L4393.3,1643.37L4393.9,1643.12L4394.51,1642.88L4395.12,1642.65L4395.74,1642.44L4396.36,1642.24L4396.99,1642.06L4397.62,1641.89L4398.25,1641.74L4398.89,1641.61L4399.53,1641.49L4400.17,1641.38L4400.82,1641.29L4401.47,1641.22L4402.12,1641.17L4402.77,1641.13L4403.42,1641.1L4404.73,1641.1L4405.38,1641.13L4406.03,1641.17L4406.68,1641.22L4407.33,1641.29L4407.97,1641.38L4408.62,1641.49L4409.26,1641.61L4409.9,1641.74L4410.53,1641.89L4411.16,1642.06L4411.79,1642.24L4412.41,1642.44L4413.03,1642.65L4413.64,1642.88L4414.24,1643.12L4414.84,1643.37L4415.44,1643.65L4416.02,1643.93L4416.6,1644.23L4417.17,1644.55L4417.74,1644.88L4418.29,1645.22L4418.84,1645.57L4419.38,1645.94L4419.9,1646.32L4420.42,1646.72L4420.93,1647.13L4421.43,1647.55L4421.92,1647.98L4422.4,1648.42L4422.86,1648.88L4423.32,1649.35L4423.76,1649.82L4424.2,1650.31L4424.62,1650.81L4425.02,1651.32L4425.42,1651.84L4425.8,1652.37L4426.17,1652.91L4426.53,1653.45L4426.87,1654.01L4427.2,1654.57L4427.51,1655.14L4427.81,1655.72L4428.1,1656.31L4428.37,1656.9L4428.63,1657.5L4428.87,1658.11L4429.31,1659.33L4429.5,1659.96L4429.69,1660.58L4429.85,1661.21L4430,1661.85L4430.14,1662.49L4430.26,1663.13L4430.36,1663.77L4430.45,1664.42L4430.52,1665.07L4430.58,1665.71L4430.62,1666.37L4430.64,1667.02L4430.65,1667.67L4430.64,1668.32L4430.62,1668.97L4430.58,1669.62L4430.52,1670.27L4430.45,1670.92L4430.36,1671.57L4430.26,1672.21L4430.14,1672.85L4430,1673.49L4429.85,1674.13L4429.69,1674.76L4429.5,1675.38L4429.31,1676.01L4428.87,1677.23L4428.63,1677.84L4428.37,1678.44L4428.1,1679.03L4427.81,1679.62L4427.51,1680.2L4427.2,1680.77L4426.87,1681.33L4426.53,1681.89L4426.17,1682.43L4425.8,1682.97L4425.42,1683.5L4425.02,1684.02L4424.62,1684.53L4424.2,1685.03L4423.76,1685.52L4423.32,1685.99L4422.86,1686.46L4422.4,1686.92L4421.92,1687.36L4421.43,1687.79L4420.93,1688.21L4420.42,1688.62L4419.38,1689.4L4418.84,1689.77L4418.29,1690.12L4417.74,1690.46L4417.17,1690.79L4416.6,1691.11L4416.02,1691.41L4415.44,1691.69L4414.84,1691.96L4414.24,1692.22L4413.64,1692.46L4413.03,1692.69L4412.41,1692.9L4411.79,1693.1L4411.16,1693.28L4410.53,1693.45L4409.9,1693.6L4409.26,1693.73L4408.62,1693.85L4407.97,1693.96L4407.33,1694.04L4406.68,1694.12L4406.03,1694.17L4405.38,1694.21L4404.73,1694.24L4403.42,1694.24L4402.77,1694.21L4402.12,1694.17L4401.47,1694.12L4400.17,1693.96L4399.53,1693.85L4398.89,1693.73L4398.25,1693.6L4397.62,1693.45L4396.99,1693.28L4396.36,1693.1L4395.74,1692.9L4395.12,1692.69L4394.51,1692.46L4393.9,1692.22L4393.3,1691.96L4392.71,1691.69L4392.12,1691.41L4391.55,1691.11L4390.97,1690.79L4390.41,1690.46L4389.86,1690.12L4389.31,1689.77L4388.77,1689.4L4388.24,1689.01L4387.72,1688.62L4387.21,1688.21L4386.72,1687.79L4386.23,1687.36L4385.75,1686.92L4385.28,1686.46L4384.38,1685.52L4383.95,1685.03L4383.53,1684.53L4383.12,1684.02L4382.73,1683.5L4382.35,1682.97L4381.98,1682.43L4381.62,1681.89L4381.28,1681.33L4380.95,1680.77L4380.64,1680.2L4380.34,1679.62L4380.05,1679.03L4379.78,1678.44L4379.52,1677.84L4379.28,1677.23L4379.05,1676.62L4378.84,1676.01L4378.64,1675.38L4378.46,1674.76L4378.29,1674.13L4378.14,1673.49L4378.01,1672.85L4377.89,1672.21L4377.79,1671.57L4377.7,1670.92L4377.63,1670.27L4377.57,1669.62L4377.53,1668.97L4377.51,1668.32L4377.5,1667.67" style="fill:none;stroke:black;stroke-width:1.25px;"/>
                </g>
                <g transform="matrix(1.15625,0,0,1.2,1758.618917,3266.518394)">
                    <path d="M2075.57,1905.66L2075.42,1905.66L2075.28,1905.65L2075.13,1905.65L2074.99,1905.63L2074.84,1905.62L2074.56,1905.58L2074.41,1905.55L2074.13,1905.49L2073.85,1905.41L2073.71,1905.36L2073.58,1905.32L2073.44,1905.27L2073.31,1905.21L2073.17,1905.16L2073.04,1905.1L2072.65,1904.89L2072.41,1904.75L2072.28,1904.67L2072.16,1904.58L2072.05,1904.5L2071.93,1904.41L2071.71,1904.23L2071.49,1904.03L2071.29,1903.83L2071.09,1903.61L2070.91,1903.39L2070.82,1903.27L2070.74,1903.16L2070.58,1902.92L2070.5,1902.79L2070.43,1902.67L2070.29,1902.41L2070.11,1902.02L2070.06,1901.88L2070.01,1901.75L2069.91,1901.47L2069.87,1901.33L2069.84,1901.19L2069.8,1901.05L2069.77,1900.91L2069.75,1900.77L2069.72,1900.62L2069.7,1900.48L2069.69,1900.34L2069.68,1900.19L2069.67,1900.05L2069.66,1899.9L2069.66,1899.76" style="fill:none;stroke:black;stroke-width:1.25px;"/>
                </g>
                <g transform="matrix(1.15625,0,0,1.2,1758.618917,3266.518394)">
                    <path d="M2193.68,1905.66L2075.57,1905.66" style="fill:none;stroke:black;stroke-width:1.25px;"/>
                </g>
                <g transform="matrix(1.15625,0,0,1.2,1758.618917,3266.518394)">
                    <path d="M2199.58,1899.76L2199.58,1899.9L2199.57,1900.05L2199.57,1900.19L2199.55,1900.34L2199.54,1900.48L2199.52,1900.62L2199.49,1900.77L2199.47,1900.91L2199.44,1901.05L2199.4,1901.19L2199.37,1901.33L2199.33,1901.47L2199.28,1901.61L2199.24,1901.75L2199.19,1901.88L2199.13,1902.02L2198.95,1902.41L2198.81,1902.67L2198.74,1902.79L2198.66,1902.92L2198.59,1903.04L2198.5,1903.16L2198.42,1903.27L2198.33,1903.39L2198.15,1903.61L2197.95,1903.83L2197.75,1904.03L2197.53,1904.23L2197.31,1904.41L2197.19,1904.5L2197.08,1904.58L2196.96,1904.67L2196.84,1904.75L2196.71,1904.82L2196.59,1904.89L2196.2,1905.1L2196.07,1905.16L2195.94,1905.21L2195.8,1905.27L2195.67,1905.32L2195.53,1905.36L2195.39,1905.41L2195.11,1905.49L2194.69,1905.58L2194.54,1905.6L2194.4,1905.62L2194.25,1905.63L2194.11,1905.65L2193.97,1905.65L2193.82,1905.66L2193.68,1905.66" style="fill:none;stroke:black;stroke-width:1.25px;"/>
                </g>
                <g transform="matrix(1.15625,0,0,1.2,1758.618917,3266.518394)">
                    <path d="M2199.58,1871.76L2199.58,1899.76" style="fill:none;stroke:black;stroke-width:1.25px;"/>
                </g>
                <g transform="matrix(1.15625,0,0,1.2,1758.618917,3266.518394)">
                    <path d="M2168.52,1840.7L2169.28,1840.71L2170.04,1840.74L2170.8,1840.79L2171.56,1840.85L2172.32,1840.93L2173.08,1841.04L2173.83,1841.16L2174.58,1841.3L2175.32,1841.46L2176.07,1841.63L2176.8,1841.83L2177.54,1842.04L2178.26,1842.27L2178.98,1842.52L2179.7,1842.78L2180.41,1843.07L2181.11,1843.37L2181.8,1843.68L2182.48,1844.02L2183.16,1844.37L2183.83,1844.74L2184.49,1845.12L2185.14,1845.52L2185.78,1845.94L2186.4,1846.37L2187.02,1846.81L2187.63,1847.28L2188.22,1847.75L2188.81,1848.24L2189.38,1848.75L2189.94,1849.27L2190.48,1849.8L2191.02,1850.35L2191.53,1850.9L2192.04,1851.47L2192.53,1852.06L2193.01,1852.65L2193.47,1853.26L2193.91,1853.88L2194.35,1854.51L2194.76,1855.15L2195.16,1855.79L2195.55,1856.45L2195.91,1857.12L2196.26,1857.8L2196.6,1858.48L2196.92,1859.18L2197.22,1859.88L2197.5,1860.58L2197.77,1861.3L2198.01,1862.02L2198.24,1862.75L2198.46,1863.48L2198.65,1864.22L2198.83,1864.96L2198.98,1865.7L2199.12,1866.45L2199.24,1867.21L2199.35,1867.96L2199.43,1868.72L2199.5,1869.48L2199.54,1870.24L2199.57,1871L2199.58,1871.76" style="fill:none;stroke:black;stroke-width:1.25px;"/>
                </g>
                <g transform="matrix(1.15625,0,0,1.2,1758.618917,3266.518394)">
                    <path d="M2168.52,1840.7L2100.72,1840.7" style="fill:none;stroke:black;stroke-width:1.25px;"/>
                </g>
                <g transform="matrix(1.15625,0,0,1.2,1758.618917,3266.518394)">
                    <path d="M2069.66,1871.76L2069.67,1871L2069.7,1870.24L2069.74,1869.48L2069.81,1868.72L2069.89,1867.96L2070,1867.21L2070.12,1866.45L2070.26,1865.7L2070.41,1864.96L2070.59,1864.22L2070.79,1863.48L2071,1862.75L2071.23,1862.02L2071.48,1861.3L2071.74,1860.58L2072.02,1859.88L2072.32,1859.18L2072.64,1858.48L2072.98,1857.8L2073.33,1857.12L2073.7,1856.45L2074.08,1855.79L2074.48,1855.15L2074.89,1854.51L2075.33,1853.88L2075.77,1853.26L2076.23,1852.65L2076.71,1852.06L2077.2,1851.47L2077.71,1850.9L2078.23,1850.35L2078.76,1849.8L2079.3,1849.27L2079.86,1848.75L2080.43,1848.24L2081.02,1847.75L2081.61,1847.28L2082.22,1846.81L2082.84,1846.37L2083.47,1845.94L2084.1,1845.52L2084.75,1845.12L2085.41,1844.74L2086.08,1844.37L2086.76,1844.02L2087.44,1843.68L2088.13,1843.37L2088.84,1843.07L2089.54,1842.78L2090.26,1842.52L2090.98,1842.27L2091.71,1842.04L2092.44,1841.83L2093.18,1841.63L2093.92,1841.46L2094.66,1841.3L2095.41,1841.16L2096.17,1841.04L2096.92,1840.93L2097.68,1840.85L2098.44,1840.79L2099.2,1840.74L2099.96,1840.71L2100.72,1840.7" style="fill:none;stroke:black;stroke-width:1.25px;"/>
                </g>
                <g transform="matrix(1.15625,0,0,1.2,1758.618917,3266.518394)">
                    <path d="M2069.66,1871.76L2069.66,1899.76" style="fill:none;stroke:black;stroke-width:1.25px;"/>
                </g>
                <g transform="matrix(1.15625,0,0,1.2,1758.618917,3266.518394)">
                    <path d="M4471.4,2081.06L4471.98,2081.04L4472.27,2081.02L4472.55,2081L4472.84,2080.97L4473.13,2080.93L4473.42,2080.88L4473.7,2080.83L4473.98,2080.77L4474.27,2080.7L4474.55,2080.63L4474.82,2080.55L4475.38,2080.37L4475.65,2080.26L4475.92,2080.16L4476.18,2080.04L4476.45,2079.92L4476.71,2079.79L4476.96,2079.66L4477.22,2079.52L4477.47,2079.38L4477.72,2079.22L4477.96,2079.07L4478.2,2078.9L4478.66,2078.56L4478.89,2078.37L4479.11,2078.19L4479.33,2078L4479.75,2077.6L4480.15,2077.18L4480.53,2076.74L4480.71,2076.51L4481.05,2076.05L4481.22,2075.81L4481.37,2075.56L4481.53,2075.32L4481.67,2075.07L4481.81,2074.81L4481.95,2074.56L4482.07,2074.29L4482.19,2074.03L4482.31,2073.76L4482.42,2073.5L4482.52,2073.22L4482.61,2072.95L4482.7,2072.67L4482.78,2072.39L4482.92,2071.83L4482.98,2071.55L4483.03,2071.26L4483.08,2070.98L4483.12,2070.69L4483.18,2070.11L4483.21,2069.24" style="fill:none;stroke:black;stroke-width:1.25px;"/>
                </g>
                <g transform="matrix(1.15625,0,0,1.2,1758.618917,3266.518394)">
                    <path d="M703.68,2069.24L703.683,2069.53L703.694,2069.82L703.712,2070.11L703.736,2070.4L703.768,2070.69L703.807,2070.98L703.853,2071.26L703.907,2071.55L703.967,2071.83L704.034,2072.11L704.107,2072.39L704.188,2072.67L704.276,2072.95L704.37,2073.22L704.471,2073.5L704.579,2073.76L704.693,2074.03L704.814,2074.29L704.941,2074.56L705.074,2074.81L705.214,2075.07L705.36,2075.32L705.512,2075.56L705.67,2075.81L705.834,2076.05L706.004,2076.28L706.179,2076.51L706.361,2076.74L706.547,2076.96L706.739,2077.18L706.937,2077.39L707.139,2077.6L707.346,2077.8L707.559,2078L707.776,2078.19L707.998,2078.37L708.224,2078.56L708.455,2078.73L708.69,2078.9L708.929,2079.07L709.172,2079.22L709.419,2079.38L709.669,2079.52L709.923,2079.66L710.18,2079.79L710.441,2079.92L710.704,2080.04L710.971,2080.16L711.24,2080.26L711.512,2080.37L711.786,2080.46L712.062,2080.55L712.34,2080.63L712.621,2080.7L712.903,2080.77L713.186,2080.83L713.471,2080.88L713.758,2080.93L714.045,2080.97L714.333,2081L714.911,2081.04L715.491,2081.06" style="fill:none;stroke:black;stroke-width:1.25px;"/>
                </g>
                <g transform="matrix(1.15625,0,0,1.2,1758.618917,3266.518394)">
                    <path d="M703.68,1620.43L703.68,2069.24" style="fill:none;stroke:black;stroke-width:1.25px;"/>
                </g>
                <g transform="matrix(1.15625,0,0,1.2,1758.618917,3266.518394)">
                    <path d="M715.491,1608.61L714.911,1608.63L714.333,1608.67L714.045,1608.7L713.758,1608.74L713.471,1608.79L713.186,1608.84L712.903,1608.9L712.621,1608.97L712.34,1609.04L712.062,1609.12L711.786,1609.21L711.512,1609.31L711.24,1609.41L710.971,1609.51L710.704,1609.63L710.441,1609.75L710.18,1609.88L709.923,1610.01L709.669,1610.15L709.419,1610.3L709.172,1610.45L708.929,1610.61L708.69,1610.77L708.455,1610.94L708.224,1611.11L707.998,1611.3L707.776,1611.48L707.559,1611.67L707.346,1611.87L707.139,1612.07L706.937,1612.28L706.739,1612.49L706.547,1612.71L706.361,1612.93L706.179,1613.16L706.004,1613.39L705.834,1613.62L705.67,1613.86L705.512,1614.11L705.36,1614.35L705.214,1614.6L705.074,1614.86L704.941,1615.12L704.814,1615.38L704.693,1615.64L704.579,1615.91L704.471,1616.18L704.37,1616.45L704.276,1616.72L704.188,1617L704.107,1617.28L704.034,1617.56L703.967,1617.84L703.907,1618.12L703.853,1618.41L703.807,1618.69L703.768,1618.98L703.736,1619.27L703.712,1619.56L703.694,1619.85L703.683,1620.14L703.68,1620.43" style="fill:none;stroke:black;stroke-width:1.25px;"/>
                </g>
                <g transform="matrix(1.15625,0,0,1.2,1758.618917,3266.518394)">
                    <path d="M4471.4,1608.61L715.491,1608.61" style="fill:none;stroke:black;stroke-width:1.25px;"/>
                </g>
                <g transform="matrix(1.15625,0,0,1.2,1758.618917,3266.518394)">
                    <path d="M4483.21,1620.43L4483.18,1619.56L4483.12,1618.98L4483.08,1618.69L4483.03,1618.41L4482.98,1618.12L4482.92,1617.84L4482.78,1617.28L4482.7,1617L4482.61,1616.72L4482.52,1616.45L4482.42,1616.18L4482.31,1615.91L4482.19,1615.64L4481.95,1615.12L4481.67,1614.6L4481.53,1614.35L4481.37,1614.11L4481.22,1613.86L4481.05,1613.62L4480.71,1613.16L4480.53,1612.93L4480.15,1612.49L4479.75,1612.07L4479.33,1611.67L4479.11,1611.48L4478.89,1611.3L4478.66,1611.11L4478.2,1610.77L4477.72,1610.45L4477.22,1610.15L4476.96,1610.01L4476.71,1609.88L4476.45,1609.75L4476.18,1609.63L4475.92,1609.51L4475.38,1609.31L4475.1,1609.21L4474.82,1609.12L4474.55,1609.04L4474.27,1608.97L4473.98,1608.9L4473.7,1608.84L4473.42,1608.79L4473.13,1608.74L4472.84,1608.7L4472.55,1608.67L4472.27,1608.65L4471.98,1608.63L4471.4,1608.61" style="fill:none;stroke:black;stroke-width:1.25px;"/>
                </g>
                <g transform="matrix(1.15625,0,0,1.2,1758.618917,3266.518394)">
                    <path d="M2566.87,1844.84L2566.88,1844.18L2566.9,1843.53L2566.94,1842.88L2567,1842.23L2567.07,1841.58L2567.16,1840.94L2567.26,1840.29L2567.38,1839.65L2567.51,1839.01L2567.83,1837.75L2568.01,1837.12L2568.21,1836.5L2568.42,1835.88L2568.65,1835.27L2568.89,1834.67L2569.15,1834.07L2569.42,1833.47L2569.71,1832.89L2570.01,1832.31L2570.32,1831.74L2570.65,1831.17L2570.99,1830.62L2571.35,1830.07L2571.72,1829.53L2572.1,1829L2572.49,1828.49L2572.9,1827.98L2573.32,1827.48L2573.75,1826.99L2574.2,1826.51L2574.65,1826.04L2575.12,1825.59L2575.6,1825.14L2576.09,1824.71L2576.58,1824.29L2577.09,1823.89L2577.61,1823.49L2578.14,1823.11L2578.68,1822.74L2579.23,1822.38L2579.78,1822.04L2580.34,1821.71L2580.92,1821.4L2581.5,1821.1L2582.08,1820.81L2582.67,1820.54L2583.27,1820.28L2583.88,1820.04L2584.49,1819.81L2585.11,1819.6L2585.73,1819.4L2586.36,1819.22L2586.99,1819.06L2587.62,1818.91L2588.26,1818.77L2588.9,1818.65L2589.54,1818.55L2590.19,1818.46L2590.84,1818.39L2591.49,1818.33L2592.14,1818.29L2592.79,1818.27L2593.44,1818.26L2594.1,1818.27L2594.75,1818.29L2595.4,1818.33L2596.05,1818.39L2596.7,1818.46L2597.34,1818.55L2597.99,1818.65L2598.63,1818.77L2599.27,1818.91L2599.9,1819.06L2600.53,1819.22L2601.16,1819.4L2601.78,1819.6L2602.4,1819.81L2603.01,1820.04L2603.61,1820.28L2604.21,1820.54L2604.81,1820.81L2605.39,1821.1L2605.97,1821.4L2606.54,1821.71L2607.11,1822.04L2607.66,1822.38L2608.21,1822.74L2608.75,1823.11L2609.27,1823.49L2609.79,1823.89L2610.3,1824.29L2610.8,1824.71L2611.29,1825.14L2611.77,1825.59L2612.23,1826.04L2612.69,1826.51L2613.13,1826.99L2613.57,1827.48L2613.99,1827.98L2614.79,1829L2615.17,1829.53L2615.54,1830.07L2615.9,1830.62L2616.24,1831.17L2616.57,1831.74L2616.88,1832.31L2617.18,1832.89L2617.47,1833.47L2617.74,1834.07L2618,1834.67L2618.24,1835.27L2618.46,1835.88L2618.68,1836.5L2618.87,1837.12L2619.06,1837.75L2619.22,1838.38L2619.37,1839.01L2619.51,1839.65L2619.63,1840.29L2619.73,1840.94L2619.82,1841.58L2619.89,1842.23L2619.95,1842.88L2619.99,1843.53L2620.01,1844.18L2620.02,1844.84L2620.01,1845.49L2619.99,1846.14L2619.95,1846.79L2619.89,1847.44L2619.82,1848.09L2619.73,1848.73L2619.63,1849.38L2619.51,1850.02L2619.37,1850.66L2619.22,1851.29L2619.06,1851.92L2618.87,1852.55L2618.68,1853.17L2618.46,1853.79L2618.24,1854.4L2618,1855L2617.74,1855.6L2617.47,1856.2L2617.18,1856.78L2616.88,1857.36L2616.57,1857.93L2616.24,1858.5L2615.9,1859.05L2615.54,1859.6L2615.17,1860.14L2614.79,1860.67L2613.99,1861.69L2613.57,1862.19L2613.13,1862.68L2612.69,1863.16L2612.23,1863.63L2611.77,1864.08L2611.29,1864.53L2610.8,1864.96L2610.3,1865.38L2609.79,1865.79L2609.27,1866.18L2608.75,1866.56L2608.21,1866.93L2607.66,1867.29L2607.11,1867.63L2606.54,1867.96L2605.97,1868.27L2605.39,1868.57L2604.81,1868.86L2604.21,1869.13L2603.61,1869.39L2603.01,1869.63L2602.4,1869.86L2601.78,1870.07L2601.16,1870.27L2600.53,1870.45L2599.9,1870.61L2599.27,1870.76L2598.63,1870.9L2597.99,1871.02L2597.34,1871.12L2596.7,1871.21L2596.05,1871.28L2595.4,1871.34L2594.75,1871.38L2594.1,1871.4L2593.44,1871.41L2592.79,1871.4L2592.14,1871.38L2591.49,1871.34L2590.84,1871.28L2590.19,1871.21L2589.54,1871.12L2588.9,1871.02L2588.26,1870.9L2587.62,1870.76L2586.99,1870.61L2586.36,1870.45L2585.73,1870.27L2585.11,1870.07L2584.49,1869.86L2583.88,1869.63L2583.27,1869.39L2582.67,1869.13L2582.08,1868.86L2581.5,1868.57L2580.92,1868.27L2580.34,1867.96L2579.78,1867.63L2579.23,1867.29L2578.68,1866.93L2578.14,1866.56L2577.61,1866.18L2577.09,1865.79L2576.58,1865.38L2576.09,1864.96L2575.6,1864.53L2575.12,1864.08L2574.65,1863.63L2574.2,1863.16L2573.75,1862.68L2573.32,1862.19L2572.9,1861.69L2572.49,1861.18L2572.1,1860.67L2571.72,1860.14L2571.35,1859.6L2570.99,1859.05L2570.65,1858.5L2570.32,1857.93L2570.01,1857.36L2569.71,1856.78L2569.42,1856.2L2569.15,1855.6L2568.89,1855L2568.65,1854.4L2568.42,1853.79L2568.21,1853.17L2568.01,1852.55L2567.83,1851.92L2567.51,1850.66L2567.38,1850.02L2567.26,1849.38L2567.16,1848.73L2567.07,1848.09L2567,1847.44L2566.94,1846.79L2566.9,1846.14L2566.88,1845.49L2566.87,1844.84" style="fill:none;stroke:black;stroke-width:1.25px;"/>
                </g>
                <g transform="matrix(1.15625,0,0,1.2,1758.618917,3266.518394)">
                    <path d="M2315.91,1844.84L2315.92,1844.04L2315.95,1843.24L2316,1842.45L2316.06,1841.65L2316.15,1840.86L2316.26,1840.07L2316.39,1839.28L2316.53,1838.5L2316.7,1837.72L2316.88,1836.94L2317.08,1836.17L2317.31,1835.41L2317.55,1834.65L2317.81,1833.89L2318.08,1833.15L2318.38,1832.41L2318.69,1831.67L2319.03,1830.95L2319.38,1830.23L2319.74,1829.52L2320.13,1828.83L2320.53,1828.14L2320.95,1827.46L2321.38,1826.79L2321.83,1826.13L2322.3,1825.49L2322.78,1824.85L2323.28,1824.23L2323.79,1823.62L2324.32,1823.02L2324.86,1822.44L2325.42,1821.87L2325.99,1821.31L2326.58,1820.77L2327.17,1820.24L2327.78,1819.73L2328.41,1819.23L2329.04,1818.75L2329.69,1818.28L2330.34,1817.83L2331.01,1817.39L2331.69,1816.98L2332.38,1816.57L2333.08,1816.19L2333.78,1815.82L2334.5,1815.47L2335.23,1815.14L2335.96,1814.83L2336.7,1814.53L2337.45,1814.25L2338.2,1813.99L2338.96,1813.75L2339.73,1813.53L2340.5,1813.33L2341.27,1813.14L2342.05,1812.98L2342.84,1812.83L2343.62,1812.71L2344.41,1812.6L2345.2,1812.51L2346,1812.44L2346.79,1812.39L2347.59,1812.36L2348.39,1812.35L2349.19,1812.36L2349.98,1812.39L2350.78,1812.44L2351.57,1812.51L2352.36,1812.6L2353.15,1812.71L2353.94,1812.83L2354.72,1812.98L2355.5,1813.14L2356.28,1813.33L2357.05,1813.53L2357.82,1813.75L2358.58,1813.99L2359.33,1814.25L2360.08,1814.53L2360.82,1814.83L2361.55,1815.14L2362.28,1815.47L2362.99,1815.82L2363.7,1816.19L2364.4,1816.57L2365.09,1816.98L2365.77,1817.39L2366.43,1817.83L2367.09,1818.28L2367.74,1818.75L2368.37,1819.23L2368.99,1819.73L2369.6,1820.24L2370.2,1820.77L2370.78,1821.31L2371.36,1821.87L2371.91,1822.44L2372.45,1823.02L2372.98,1823.62L2373.5,1824.23L2373.99,1824.85L2374.48,1825.49L2374.94,1826.13L2375.39,1826.79L2375.83,1827.46L2376.25,1828.14L2376.65,1828.83L2377.03,1829.52L2377.4,1830.23L2377.75,1830.95L2378.08,1831.67L2378.4,1832.41L2378.69,1833.15L2378.97,1833.89L2379.23,1834.65L2379.47,1835.41L2379.69,1836.17L2379.9,1836.94L2380.08,1837.72L2380.24,1838.5L2380.39,1839.28L2380.52,1840.07L2380.62,1840.86L2380.71,1841.65L2380.78,1842.45L2380.83,1843.24L2380.86,1844.04L2380.87,1844.84L2380.86,1845.63L2380.83,1846.43L2380.78,1847.22L2380.71,1848.02L2380.62,1848.81L2380.52,1849.6L2380.39,1850.39L2380.24,1851.17L2380.08,1851.95L2379.9,1852.73L2379.69,1853.5L2379.47,1854.26L2379.23,1855.02L2378.97,1855.78L2378.69,1856.52L2378.4,1857.26L2378.08,1858L2377.75,1858.72L2377.4,1859.44L2377.03,1860.15L2376.65,1860.84L2376.25,1861.53L2375.83,1862.21L2375.39,1862.88L2374.94,1863.54L2374.48,1864.18L2373.99,1864.82L2373.5,1865.44L2372.98,1866.05L2372.45,1866.65L2371.91,1867.23L2371.36,1867.8L2370.78,1868.36L2370.2,1868.9L2369.6,1869.43L2368.99,1869.94L2368.37,1870.44L2367.74,1870.92L2367.09,1871.39L2366.43,1871.84L2365.77,1872.28L2365.09,1872.69L2364.4,1873.1L2363.7,1873.48L2362.99,1873.85L2362.28,1874.2L2361.55,1874.53L2360.82,1874.84L2360.08,1875.14L2359.33,1875.42L2358.58,1875.68L2357.82,1875.92L2357.05,1876.14L2356.28,1876.34L2355.5,1876.53L2354.72,1876.69L2353.94,1876.84L2353.15,1876.96L2352.36,1877.07L2351.57,1877.16L2350.78,1877.23L2349.98,1877.28L2349.19,1877.31L2348.39,1877.32L2347.59,1877.31L2346.79,1877.28L2346,1877.23L2345.2,1877.16L2344.41,1877.07L2343.62,1876.96L2342.84,1876.84L2342.05,1876.69L2341.27,1876.53L2340.5,1876.34L2339.73,1876.14L2338.96,1875.92L2338.2,1875.68L2337.45,1875.42L2336.7,1875.14L2335.96,1874.84L2335.23,1874.53L2334.5,1874.2L2333.78,1873.85L2333.08,1873.48L2332.38,1873.1L2331.69,1872.69L2331.01,1872.28L2330.34,1871.84L2329.69,1871.39L2329.04,1870.92L2328.41,1870.44L2327.78,1869.94L2327.17,1869.43L2326.58,1868.9L2325.99,1868.36L2325.42,1867.8L2324.86,1867.23L2324.32,1866.65L2323.79,1866.05L2323.28,1865.44L2322.78,1864.82L2322.3,1864.18L2321.83,1863.54L2321.38,1862.88L2320.95,1862.21L2320.53,1861.53L2320.13,1860.84L2319.74,1860.15L2319.38,1859.44L2319.03,1858.72L2318.69,1858L2318.38,1857.26L2318.08,1856.52L2317.81,1855.78L2317.55,1855.02L2317.31,1854.26L2317.08,1853.5L2316.88,1852.73L2316.7,1851.95L2316.53,1851.17L2316.39,1850.39L2316.26,1849.6L2316.15,1848.81L2316.06,1848.02L2316,1847.22L2315.95,1846.43L2315.92,1845.63L2315.91,1844.84" style="fill:none;stroke:black;stroke-width:1.25px;"/>
                </g>
                <g transform="matrix(1.15625,0,0,1.2,1735.403288,3266.518394)">
                    <path d="M756.239,2022L756.247,2021.35L756.271,2020.7L756.311,2020.05L756.367,2019.4L756.439,2018.75L756.526,2018.1L756.63,2017.46L756.749,2016.82L756.884,2016.18L757.035,2015.54L757.201,2014.91L757.383,2014.29L757.58,2013.66L757.792,2013.05L758.019,2012.44L758.262,2011.83L758.519,2011.23L758.79,2010.64L759.076,2010.05L759.377,2009.47L759.691,2008.9L760.02,2008.34L760.362,2007.78L760.717,2007.24L761.086,2006.7L761.468,2006.17L761.863,2005.65L762.271,2005.14L762.691,2004.64L763.123,2004.15L763.567,2003.68L764.022,2003.21L764.489,2002.75L764.967,2002.31L765.456,2001.88L765.955,2001.46L766.464,2001.05L766.983,2000.66L767.511,2000.27L768.049,1999.9L768.596,1999.55L769.151,1999.21L769.715,1998.88L770.286,1998.56L770.865,1998.26L771.451,1997.98L772.044,1997.71L772.644,1997.45L773.249,1997.21L773.861,1996.98L774.477,1996.77L775.099,1996.57L775.726,1996.39L776.356,1996.22L776.991,1996.07L777.629,1995.94L778.27,1995.82L778.914,1995.71L779.56,1995.63L780.209,1995.55L780.859,1995.5L781.51,1995.46L782.161,1995.43L783.466,1995.43L784.117,1995.46L784.768,1995.5L785.418,1995.55L786.067,1995.63L786.713,1995.71L787.357,1995.82L787.998,1995.94L788.636,1996.07L789.271,1996.22L789.901,1996.39L790.528,1996.57L791.15,1996.77L791.766,1996.98L792.378,1997.21L792.983,1997.45L793.583,1997.71L794.176,1997.98L794.762,1998.26L795.341,1998.56L795.912,1998.88L796.476,1999.21L797.031,1999.55L797.578,1999.9L798.115,2000.27L798.644,2000.66L799.163,2001.05L799.672,2001.46L800.171,2001.88L800.66,2002.31L801.138,2002.75L801.605,2003.21L802.06,2003.68L802.504,2004.15L802.936,2004.64L803.356,2005.14L803.764,2005.65L804.159,2006.17L804.541,2006.7L804.91,2007.24L805.265,2007.78L805.607,2008.34L805.936,2008.9L806.25,2009.47L806.551,2010.05L806.837,2010.64L807.108,2011.23L807.365,2011.83L807.608,2012.44L807.835,2013.05L808.047,2013.66L808.244,2014.29L808.426,2014.91L808.592,2015.54L808.743,2016.18L808.878,2016.82L808.997,2017.46L809.101,2018.1L809.188,2018.75L809.26,2019.4L809.316,2020.05L809.356,2020.7L809.38,2021.35L809.388,2022L809.38,2022.65L809.356,2023.3L809.316,2023.96L809.26,2024.61L809.188,2025.25L809.101,2025.9L808.997,2026.54L808.878,2027.19L808.743,2027.82L808.592,2028.46L808.426,2029.09L808.244,2029.71L808.047,2030.34L807.835,2030.95L807.608,2031.56L807.365,2032.17L807.108,2032.77L806.837,2033.36L806.551,2033.95L806.25,2034.53L805.936,2035.1L805.607,2035.66L805.265,2036.22L804.91,2036.76L804.541,2037.3L804.159,2037.83L803.764,2038.35L803.356,2038.86L802.936,2039.36L802.504,2039.85L802.06,2040.32L801.605,2040.79L801.138,2041.25L800.66,2041.69L800.171,2042.12L799.672,2042.54L799.163,2042.95L798.644,2043.35L798.115,2043.73L797.578,2044.1L797.031,2044.45L796.476,2044.79L795.912,2045.12L795.341,2045.44L794.762,2045.74L794.176,2046.02L793.583,2046.3L792.983,2046.55L792.378,2046.79L791.766,2047.02L791.15,2047.23L790.528,2047.43L789.901,2047.61L789.271,2047.78L788.636,2047.93L787.998,2048.06L787.357,2048.18L786.713,2048.29L786.067,2048.38L785.418,2048.45L784.768,2048.5L784.117,2048.54L783.466,2048.57L782.813,2048.58L782.161,2048.57L781.51,2048.54L780.859,2048.5L780.209,2048.45L779.56,2048.38L778.914,2048.29L778.27,2048.18L777.629,2048.06L776.991,2047.93L776.356,2047.78L775.726,2047.61L775.099,2047.43L774.477,2047.23L773.861,2047.02L773.249,2046.79L772.644,2046.55L772.044,2046.3L771.451,2046.02L770.865,2045.74L770.286,2045.44L769.715,2045.12L769.151,2044.79L768.596,2044.45L768.049,2044.1L767.511,2043.73L766.983,2043.35L766.464,2042.95L765.955,2042.54L765.456,2042.12L764.967,2041.69L764.489,2041.25L764.022,2040.79L763.567,2040.32L763.123,2039.85L762.691,2039.36L762.271,2038.86L761.863,2038.35L761.468,2037.83L761.086,2037.3L760.717,2036.76L760.362,2036.22L760.02,2035.66L759.691,2035.1L759.377,2034.53L759.076,2033.95L758.79,2033.36L758.519,2032.77L758.262,2032.17L758.019,2031.56L757.792,2030.95L757.58,2030.34L757.383,2029.71L757.201,2029.09L757.035,2028.46L756.884,2027.82L756.749,2027.19L756.63,2026.54L756.526,2025.9L756.439,2025.25L756.367,2024.61L756.311,2023.96L756.271,2023.3L756.247,2022.65L756.239,2022" style="fill:none;stroke:black;stroke-width:1.25px;"/>
                </g>
                <g transform="matrix(1.15625,0,0,1.2,1735.403288,3266.518394)">
                    <path d="M809.388,1667.67L809.38,1667.02L809.356,1666.37L809.316,1665.71L809.26,1665.07L809.188,1664.42L809.101,1663.77L808.997,1663.13L808.878,1662.49L808.743,1661.85L808.592,1661.21L808.426,1660.58L808.244,1659.96L808.047,1659.33L807.835,1658.72L807.608,1658.11L807.365,1657.5L807.108,1656.9L806.837,1656.31L806.551,1655.72L806.25,1655.14L805.936,1654.57L805.607,1654.01L805.265,1653.45L804.91,1652.91L804.541,1652.37L804.159,1651.84L803.764,1651.32L803.356,1650.81L802.936,1650.31L802.504,1649.82L802.06,1649.35L801.605,1648.88L801.138,1648.42L800.66,1647.98L800.171,1647.55L799.672,1647.13L799.163,1646.72L798.644,1646.32L798.115,1645.94L797.578,1645.57L797.031,1645.22L796.476,1644.88L795.912,1644.55L795.341,1644.23L794.762,1643.93L794.176,1643.65L793.583,1643.37L792.983,1643.12L792.378,1642.88L791.766,1642.65L791.15,1642.44L790.528,1642.24L789.901,1642.06L789.271,1641.89L788.636,1641.74L787.998,1641.61L787.357,1641.49L786.713,1641.38L786.067,1641.29L785.418,1641.22L784.768,1641.17L784.117,1641.13L783.466,1641.1L782.161,1641.1L781.51,1641.13L780.859,1641.17L780.209,1641.22L779.56,1641.29L778.914,1641.38L778.27,1641.49L777.629,1641.61L776.991,1641.74L776.356,1641.89L775.726,1642.06L775.099,1642.24L774.477,1642.44L773.861,1642.65L773.249,1642.88L772.644,1643.12L772.044,1643.37L771.451,1643.65L770.865,1643.93L770.286,1644.23L769.715,1644.55L769.151,1644.88L768.596,1645.22L768.049,1645.57L767.511,1645.94L766.983,1646.32L766.464,1646.72L765.955,1647.13L765.456,1647.55L764.967,1647.98L764.489,1648.42L764.022,1648.88L763.567,1649.35L763.123,1649.82L762.691,1650.31L762.271,1650.81L761.863,1651.32L761.468,1651.84L761.086,1652.37L760.717,1652.91L760.362,1653.45L760.02,1654.01L759.691,1654.57L759.377,1655.14L759.076,1655.72L758.79,1656.31L758.519,1656.9L758.262,1657.5L758.019,1658.11L757.792,1658.72L757.58,1659.33L757.383,1659.96L757.201,1660.58L757.035,1661.21L756.884,1661.85L756.749,1662.49L756.63,1663.13L756.526,1663.77L756.439,1664.42L756.367,1665.07L756.311,1665.71L756.271,1666.37L756.247,1667.02L756.239,1667.67L756.247,1668.32L756.271,1668.97L756.311,1669.62L756.367,1670.27L756.439,1670.92L756.526,1671.57L756.63,1672.21L756.749,1672.85L756.884,1673.49L757.035,1674.13L757.201,1674.76L757.383,1675.38L757.58,1676.01L757.792,1676.62L758.019,1677.23L758.262,1677.84L758.519,1678.44L758.79,1679.03L759.076,1679.62L759.377,1680.2L759.691,1680.77L760.02,1681.33L760.362,1681.89L760.717,1682.43L761.086,1682.97L761.468,1683.5L761.863,1684.02L762.271,1684.53L762.691,1685.03L763.123,1685.52L763.567,1685.99L764.022,1686.46L764.489,1686.92L764.967,1687.36L765.456,1687.79L765.955,1688.21L766.464,1688.62L766.983,1689.01L767.511,1689.4L768.049,1689.77L768.596,1690.12L769.151,1690.46L769.715,1690.79L770.286,1691.11L770.865,1691.41L771.451,1691.69L772.044,1691.96L772.644,1692.22L773.249,1692.46L773.861,1692.69L774.477,1692.9L775.099,1693.1L775.726,1693.28L776.356,1693.45L776.991,1693.6L777.629,1693.73L778.27,1693.85L778.914,1693.96L779.56,1694.04L780.209,1694.12L780.859,1694.17L781.51,1694.21L782.161,1694.24L783.466,1694.24L784.117,1694.21L784.768,1694.17L785.418,1694.12L786.067,1694.04L786.713,1693.96L787.357,1693.85L787.998,1693.73L788.636,1693.6L789.271,1693.45L789.901,1693.28L790.528,1693.1L791.15,1692.9L791.766,1692.69L792.378,1692.46L792.983,1692.22L793.583,1691.96L794.176,1691.69L794.762,1691.41L795.341,1691.11L795.912,1690.79L796.476,1690.46L797.031,1690.12L797.578,1689.77L798.115,1689.4L798.644,1689.01L799.163,1688.62L799.672,1688.21L800.171,1687.79L800.66,1687.36L801.138,1686.92L801.605,1686.46L802.06,1685.99L802.504,1685.52L802.936,1685.03L803.356,1684.53L803.764,1684.02L804.159,1683.5L804.541,1682.97L804.91,1682.43L805.265,1681.89L805.607,1681.33L805.936,1680.77L806.25,1680.2L806.551,1679.62L806.837,1679.03L807.108,1678.44L807.365,1677.84L807.608,1677.23L807.835,1676.62L808.047,1676.01L808.244,1675.38L808.426,1674.76L808.592,1674.13L808.743,1673.49L808.878,1672.85L808.997,1672.21L809.101,1671.57L809.188,1670.92L809.26,1670.27L809.316,1669.62L809.356,1668.97L809.38,1668.32L809.388,1667.67" style="fill:none;stroke:black;stroke-width:1.25px;"/>
                </g>
                <g transform="matrix(1.15625,0,0,1.2,1758.616094,3266.507528)">
                    <path d="M4471.4,2081.06L715.491,2081.06" style="fill:none;stroke:black;stroke-width:1.25px;"/>
                </g>
                <g transform="matrix(1.15625,0,0,1.2,1758.616094,3266.507528)">
                    <path d="M4483.21,1620.43L4483.21,2069.24" style="fill:none;stroke:black;stroke-width:1.25px;"/>
                </g>
            </g>
        </g>
    </g>
</svg>
