<?xml version="1.0" encoding="UTF-8" standalone="no"?>
<!DOCTYPE svg PUBLIC "-//W3C//DTD SVG 1.1//EN" "http://www.w3.org/Graphics/SVG/1.1/DTD/svg11.dtd">
<svg width="100%" height="100%" viewBox="0 0 1210 152" version="1.1" xmlns="http://www.w3.org/2000/svg" xmlns:xlink="http://www.w3.org/1999/xlink" xml:space="preserve" xmlns:serif="http://www.serif.com/" style="fill-rule:evenodd;clip-rule:evenodd;stroke-linejoin:round;stroke-miterlimit:2;">
    <g transform="matrix(0.32,0,0,0.32,-3.7792,-1064.400935)">
        <g id="_3D-Printed-Side-B-Graphics" serif:id="3D Printed Side B Graphics" transform="matrix(0.864865,0,0,0.833333,-2212.837712,-1004.455741)">
            <rect x="2572.249" y="5196.85" width="4370.079" height="566.929" style="fill:none;"/>
            <clipPath id="_clip1">
                <rect x="2572.249" y="5196.85" width="4370.079" height="566.929"/>
            </clipPath>
            <g clip-path="url(#_clip1)">
                <g transform="matrix(1.15625,0,0,1.2,-1334.245506,4893.390206)">
                    <g transform="matrix(31.25,0,0,31.25,4953.501919,630.398745)">
                        <path d="M0.333,0.014C0.25,0.014 0.184,-0.01 0.134,-0.059C0.085,-0.107 0.06,-0.177 0.06,-0.27L0.06,-0.43C0.06,-0.523 0.085,-0.593 0.134,-0.641C0.184,-0.69 0.25,-0.714 0.333,-0.714C0.416,-0.714 0.48,-0.691 0.524,-0.645C0.568,-0.599 0.59,-0.536 0.59,-0.456L0.59,-0.451L0.507,-0.451L0.507,-0.459C0.507,-0.512 0.493,-0.555 0.464,-0.588C0.436,-0.622 0.393,-0.639 0.333,-0.639C0.274,-0.639 0.227,-0.62 0.194,-0.584C0.16,-0.548 0.144,-0.497 0.144,-0.432L0.144,-0.268C0.144,-0.203 0.16,-0.152 0.194,-0.116C0.227,-0.08 0.274,-0.061 0.333,-0.061C0.393,-0.061 0.436,-0.078 0.464,-0.112C0.493,-0.145 0.507,-0.189 0.507,-0.241L0.507,-0.257L0.59,-0.257L0.59,-0.244C0.59,-0.164 0.568,-0.101 0.524,-0.055C0.48,-0.009 0.416,0.014 0.333,0.014Z" style="fill-rule:nonzero;"/>
                    </g>
                    <g transform="matrix(31.25,0,0,31.25,4973.560354,630.398745)">
                        <path d="M0.334,0.014C0.251,0.014 0.184,-0.01 0.134,-0.059C0.085,-0.107 0.06,-0.177 0.06,-0.27L0.06,-0.43C0.06,-0.523 0.085,-0.593 0.134,-0.641C0.184,-0.69 0.251,-0.714 0.334,-0.714C0.418,-0.714 0.485,-0.69 0.535,-0.641C0.584,-0.593 0.609,-0.523 0.609,-0.43L0.609,-0.27C0.609,-0.177 0.584,-0.107 0.535,-0.059C0.485,-0.01 0.418,0.014 0.334,0.014ZM0.334,-0.061C0.395,-0.061 0.442,-0.08 0.475,-0.116C0.509,-0.152 0.525,-0.202 0.525,-0.267L0.525,-0.433C0.525,-0.498 0.509,-0.548 0.475,-0.584C0.442,-0.62 0.395,-0.639 0.334,-0.639C0.274,-0.639 0.228,-0.62 0.194,-0.584C0.16,-0.548 0.144,-0.498 0.144,-0.433L0.144,-0.267C0.144,-0.202 0.16,-0.152 0.194,-0.116C0.228,-0.08 0.274,-0.061 0.334,-0.061Z" style="fill-rule:nonzero;"/>
                    </g>
                    <g transform="matrix(31.25,0,0,31.25,4994.463473,630.398745)">
                        <path d="M0.08,-0L0.08,-0.7L0.243,-0.7L0.487,-0.053L0.5,-0.053L0.5,-0.7L0.583,-0.7L0.583,-0L0.42,-0L0.177,-0.648L0.163,-0.648L0.163,-0L0.08,-0Z" style="fill-rule:nonzero;"/>
                    </g>
                    <g transform="matrix(31.25,0,0,31.25,5015.201279,630.398745)">
                        <path d="M0.08,-0L0.08,-0.7L0.243,-0.7L0.487,-0.053L0.5,-0.053L0.5,-0.7L0.583,-0.7L0.583,-0L0.42,-0L0.177,-0.648L0.163,-0.648L0.163,-0L0.08,-0Z" style="fill-rule:nonzero;"/>
                    </g>
                    <g transform="matrix(31.25,0,0,31.25,5035.939085,630.398745)">
                        <path d="M0.08,-0L0.08,-0.7L0.511,-0.7L0.511,-0.624L0.164,-0.624L0.164,-0.39L0.483,-0.39L0.483,-0.314L0.164,-0.314L0.164,-0.076L0.516,-0.076L0.516,-0L0.08,-0Z" style="fill-rule:nonzero;"/>
                    </g>
                    <g transform="matrix(31.25,0,0,31.25,5053.540032,630.398745)">
                        <path d="M0.333,0.014C0.25,0.014 0.184,-0.01 0.134,-0.059C0.085,-0.107 0.06,-0.177 0.06,-0.27L0.06,-0.43C0.06,-0.523 0.085,-0.593 0.134,-0.641C0.184,-0.69 0.25,-0.714 0.333,-0.714C0.416,-0.714 0.48,-0.691 0.524,-0.645C0.568,-0.599 0.59,-0.536 0.59,-0.456L0.59,-0.451L0.507,-0.451L0.507,-0.459C0.507,-0.512 0.493,-0.555 0.464,-0.588C0.436,-0.622 0.393,-0.639 0.333,-0.639C0.274,-0.639 0.227,-0.62 0.194,-0.584C0.16,-0.548 0.144,-0.497 0.144,-0.432L0.144,-0.268C0.144,-0.203 0.16,-0.152 0.194,-0.116C0.227,-0.08 0.274,-0.061 0.333,-0.061C0.393,-0.061 0.436,-0.078 0.464,-0.112C0.493,-0.145 0.507,-0.189 0.507,-0.241L0.507,-0.257L0.59,-0.257L0.59,-0.244C0.59,-0.164 0.568,-0.101 0.524,-0.055C0.48,-0.009 0.416,0.014 0.333,0.014Z" style="fill-rule:nonzero;"/>
                    </g>
                    <g transform="matrix(31.25,0,0,31.25,5073.067217,630.398745)">
                        <path d="M0.252,-0L0.252,-0.624L0.027,-0.624L0.027,-0.7L0.561,-0.7L0.561,-0.624L0.336,-0.624L0.336,-0L0.252,-0Z" style="fill-rule:nonzero;"/>
                    </g>
                </g>
                <g transform="matrix(1.15625,0,0,1.2,-1581.411288,4893.390206)">
                    <g transform="matrix(31.25,0,0,31.25,4992.578944,630.398745)">
                        <path d="M0.333,0.014C0.281,0.014 0.236,0.005 0.197,-0.014C0.158,-0.033 0.128,-0.06 0.107,-0.097C0.085,-0.134 0.075,-0.18 0.075,-0.234L0.075,-0.7L0.159,-0.7L0.159,-0.233C0.159,-0.176 0.174,-0.133 0.204,-0.104C0.235,-0.076 0.278,-0.061 0.333,-0.061C0.389,-0.061 0.432,-0.076 0.462,-0.104C0.493,-0.133 0.508,-0.176 0.508,-0.233L0.508,-0.7L0.592,-0.7L0.592,-0.234C0.592,-0.18 0.581,-0.134 0.56,-0.097C0.539,-0.06 0.509,-0.033 0.47,-0.014C0.431,0.005 0.385,0.014 0.333,0.014Z" style="fill-rule:nonzero;"/>
                    </g>
                    <g transform="matrix(31.25,0,0,31.25,5013.401439,630.398745)">
                        <path d="M0.313,0.014C0.262,0.014 0.217,0.005 0.177,-0.013C0.137,-0.031 0.105,-0.059 0.082,-0.095C0.06,-0.131 0.048,-0.176 0.048,-0.231L0.048,-0.252L0.131,-0.252L0.131,-0.231C0.131,-0.173 0.148,-0.13 0.182,-0.102C0.216,-0.073 0.26,-0.059 0.313,-0.059C0.368,-0.059 0.409,-0.072 0.438,-0.096C0.467,-0.12 0.481,-0.152 0.481,-0.189C0.481,-0.215 0.474,-0.235 0.462,-0.251C0.449,-0.267 0.431,-0.279 0.407,-0.289C0.384,-0.298 0.356,-0.307 0.325,-0.314L0.273,-0.327C0.232,-0.337 0.196,-0.35 0.165,-0.366C0.133,-0.381 0.109,-0.401 0.091,-0.426C0.074,-0.451 0.065,-0.483 0.065,-0.523C0.065,-0.562 0.075,-0.596 0.095,-0.625C0.115,-0.654 0.142,-0.676 0.177,-0.691C0.213,-0.706 0.254,-0.714 0.301,-0.714C0.348,-0.714 0.391,-0.706 0.428,-0.69C0.466,-0.673 0.496,-0.649 0.518,-0.617C0.539,-0.586 0.55,-0.546 0.55,-0.498L0.55,-0.456L0.467,-0.456L0.467,-0.498C0.467,-0.532 0.46,-0.559 0.446,-0.58C0.431,-0.601 0.412,-0.616 0.387,-0.626C0.362,-0.636 0.333,-0.641 0.301,-0.641C0.255,-0.641 0.218,-0.63 0.19,-0.61C0.162,-0.59 0.148,-0.561 0.148,-0.524C0.148,-0.499 0.154,-0.479 0.166,-0.464C0.178,-0.448 0.195,-0.436 0.217,-0.427C0.239,-0.417 0.265,-0.409 0.296,-0.401L0.348,-0.388C0.389,-0.379 0.425,-0.367 0.458,-0.352C0.49,-0.337 0.516,-0.317 0.535,-0.291C0.554,-0.265 0.564,-0.232 0.564,-0.191C0.564,-0.149 0.554,-0.113 0.533,-0.083C0.512,-0.052 0.483,-0.028 0.446,-0.011C0.408,0.006 0.364,0.014 0.313,0.014Z" style="fill-rule:nonzero;"/>
                    </g>
                    <g transform="matrix(31.25,0,0,31.25,5032.560821,630.398745)">
                        <path d="M0.08,-0L0.08,-0.7L0.371,-0.7C0.412,-0.7 0.448,-0.693 0.479,-0.678C0.511,-0.664 0.535,-0.643 0.553,-0.617C0.57,-0.59 0.579,-0.56 0.579,-0.524L0.579,-0.516C0.579,-0.483 0.573,-0.457 0.561,-0.436C0.548,-0.415 0.533,-0.398 0.516,-0.386C0.498,-0.375 0.481,-0.366 0.464,-0.361L0.464,-0.347C0.481,-0.343 0.498,-0.335 0.516,-0.324C0.534,-0.312 0.55,-0.295 0.562,-0.274C0.574,-0.253 0.58,-0.226 0.58,-0.193L0.58,-0.183C0.58,-0.145 0.571,-0.112 0.553,-0.084C0.535,-0.057 0.51,-0.036 0.478,-0.022C0.447,-0.007 0.41,-0 0.37,-0L0.08,-0ZM0.164,-0.076L0.361,-0.076C0.405,-0.076 0.438,-0.086 0.462,-0.107C0.485,-0.128 0.497,-0.156 0.497,-0.191L0.497,-0.2C0.497,-0.235 0.485,-0.263 0.462,-0.284C0.439,-0.304 0.405,-0.315 0.361,-0.315L0.164,-0.315L0.164,-0.076ZM0.164,-0.391L0.363,-0.391C0.404,-0.391 0.436,-0.401 0.46,-0.421C0.484,-0.442 0.495,-0.469 0.495,-0.502L0.495,-0.512C0.495,-0.546 0.484,-0.573 0.46,-0.594C0.436,-0.614 0.404,-0.624 0.363,-0.624L0.164,-0.624L0.164,-0.391Z" style="fill-rule:nonzero;"/>
                    </g>
                </g>
                <g transform="matrix(1.15625,0,0,1.2,2565.311417,-624.427695)">
                    <rect x="6" y="4851.065" width="23.622" height="23.622"/>
                </g>
            </g>
        </g>
    </g>
</svg>
