<?xml version="1.0" encoding="UTF-8" standalone="no"?>
<!DOCTYPE svg PUBLIC "-//W3C//DTD SVG 1.1//EN" "http://www.w3.org/Graphics/SVG/1.1/DTD/svg11.dtd">
<svg width="100%" height="100%" viewBox="0 0 968 1210" version="1.1" xmlns="http://www.w3.org/2000/svg" xmlns:xlink="http://www.w3.org/1999/xlink" xml:space="preserve" xmlns:serif="http://www.serif.com/" style="fill-rule:evenodd;clip-rule:evenodd;stroke-linecap:round;stroke-linejoin:round;stroke-miterlimit:1.5;">
    <g transform="matrix(0.32,0,0,0.32,-3082.7053,0)">
        <g id="Back-Holes" serif:id="Back Holes" transform="matrix(0.861953,0,0,1.52381,9633.454063,0)">
            <rect x="0" y="0" width="3507.874" height="2480.315" style="fill:none;"/>
            <g id="Holes" transform="matrix(1,0,0,1,-109.621063,-62.007874)">
                <g transform="matrix(0.928125,0,0,0.525,-66.163161,244.156004)">
                    <circle cx="282.409" cy="307.087" r="23.622" style="fill:none;stroke:black;stroke-width:5.21px;"/>
                </g>
                <g transform="matrix(0.928125,0,0,0.525,-66.163161,1045.607776)">
                    <circle cx="282.409" cy="307.087" r="23.622" style="fill:none;stroke:black;stroke-width:5.21px;"/>
                </g>
                <g transform="matrix(0.928125,0,0,0.525,638.152169,1045.607776)">
                    <circle cx="282.409" cy="307.087" r="23.622" style="fill:none;stroke:black;stroke-width:5.21px;"/>
                </g>
                <g transform="matrix(0.928125,0,0,0.525,638.152169,244.156004)">
                    <circle cx="282.409" cy="307.087" r="23.622" style="fill:none;stroke:black;stroke-width:5.21px;"/>
                </g>
                <g transform="matrix(0.928125,0,0,0.525,810.803899,244.156004)">
                    <circle cx="282.409" cy="307.087" r="23.622" style="fill:none;stroke:black;stroke-width:5.21px;"/>
                </g>
                <g transform="matrix(0.928125,0,0,0.525,810.803899,1045.607776)">
                    <circle cx="282.409" cy="307.087" r="23.622" style="fill:none;stroke:black;stroke-width:5.21px;"/>
                </g>
                <g transform="matrix(0.928125,0,0,0.525,1515.119229,1045.607776)">
                    <circle cx="282.409" cy="307.087" r="23.622" style="fill:none;stroke:black;stroke-width:5.21px;"/>
                </g>
                <g transform="matrix(0.928125,0,0,0.525,1515.119229,244.156004)">
                    <circle cx="282.409" cy="307.087" r="23.622" style="fill:none;stroke:black;stroke-width:5.21px;"/>
                </g>
                <g transform="matrix(0.928125,0,0,0.525,-66.163161,1236.281988)">
                    <circle cx="282.409" cy="307.087" r="23.622" style="fill:none;stroke:black;stroke-width:5.21px;"/>
                </g>
                <g transform="matrix(0.928125,0,0,0.525,-66.163161,2037.73376)">
                    <circle cx="282.409" cy="307.087" r="23.622" style="fill:none;stroke:black;stroke-width:5.21px;"/>
                </g>
                <g transform="matrix(0.928125,0,0,0.525,638.152169,2037.73376)">
                    <circle cx="282.409" cy="307.087" r="23.622" style="fill:none;stroke:black;stroke-width:5.21px;"/>
                </g>
                <g transform="matrix(0.928125,0,0,0.525,638.152169,1236.281988)">
                    <circle cx="282.409" cy="307.087" r="23.622" style="fill:none;stroke:black;stroke-width:5.21px;"/>
                </g>
                <g transform="matrix(0.928125,0,0,0.525,810.805343,1236.281988)">
                    <circle cx="282.409" cy="307.087" r="23.622" style="fill:none;stroke:black;stroke-width:5.21px;"/>
                </g>
                <g transform="matrix(0.928125,0,0,0.525,810.805343,2037.73376)">
                    <circle cx="282.409" cy="307.087" r="23.622" style="fill:none;stroke:black;stroke-width:5.21px;"/>
                </g>
                <g transform="matrix(0.928125,0,0,0.525,1515.120673,2037.73376)">
                    <circle cx="282.409" cy="307.087" r="23.622" style="fill:none;stroke:black;stroke-width:5.21px;"/>
                </g>
                <g transform="matrix(0.928125,0,0,0.525,1515.120673,1236.281988)">
                    <circle cx="282.409" cy="307.087" r="23.622" style="fill:none;stroke:black;stroke-width:5.21px;"/>
                </g>
                <g transform="matrix(0.928125,0,0,0.525,1687.773847,244.156004)">
                    <circle cx="282.409" cy="307.087" r="23.622" style="fill:none;stroke:black;stroke-width:5.21px;"/>
                </g>
                <g transform="matrix(0.928125,0,0,0.525,1687.773847,1045.607776)">
                    <circle cx="282.409" cy="307.087" r="23.622" style="fill:none;stroke:black;stroke-width:5.21px;"/>
                </g>
                <g transform="matrix(0.928125,0,0,0.525,2392.089176,1045.607776)">
                    <circle cx="282.409" cy="307.087" r="23.622" style="fill:none;stroke:black;stroke-width:5.21px;"/>
                </g>
                <g transform="matrix(0.928125,0,0,0.525,2392.089176,244.156004)">
                    <circle cx="282.409" cy="307.087" r="23.622" style="fill:none;stroke:black;stroke-width:5.21px;"/>
                </g>
                <g transform="matrix(0.928125,0,0,0.525,1687.773847,1236.281988)">
                    <circle cx="282.409" cy="307.087" r="23.622" style="fill:none;stroke:black;stroke-width:5.21px;"/>
                </g>
                <g transform="matrix(0.928125,0,0,0.525,1687.773847,2037.73376)">
                    <circle cx="282.409" cy="307.087" r="23.622" style="fill:none;stroke:black;stroke-width:5.21px;"/>
                </g>
                <g transform="matrix(0.928125,0,0,0.525,2392.089176,2037.73376)">
                    <circle cx="282.409" cy="307.087" r="23.622" style="fill:none;stroke:black;stroke-width:5.21px;"/>
                </g>
                <g transform="matrix(0.928125,0,0,0.525,2392.089176,1236.281988)">
                    <circle cx="282.409" cy="307.087" r="23.622" style="fill:none;stroke:black;stroke-width:5.21px;"/>
                </g>
                <g transform="matrix(0.928125,0,0,0.525,2564.742351,244.156004)">
                    <circle cx="282.409" cy="307.087" r="23.622" style="fill:none;stroke:black;stroke-width:5.21px;"/>
                </g>
                <g transform="matrix(0.928125,0,0,0.525,2564.742351,1045.607776)">
                    <circle cx="282.409" cy="307.087" r="23.622" style="fill:none;stroke:black;stroke-width:5.21px;"/>
                </g>
                <g transform="matrix(0.928125,0,0,0.525,3269.05768,1045.607776)">
                    <circle cx="282.409" cy="307.087" r="23.622" style="fill:none;stroke:black;stroke-width:5.21px;"/>
                </g>
                <g transform="matrix(0.928125,0,0,0.525,3269.05768,244.156004)">
                    <circle cx="282.409" cy="307.087" r="23.622" style="fill:none;stroke:black;stroke-width:5.21px;"/>
                </g>
                <g transform="matrix(0.928125,0,0,0.525,2564.742351,1236.281988)">
                    <circle cx="282.409" cy="307.087" r="23.622" style="fill:none;stroke:black;stroke-width:5.21px;"/>
                </g>
                <g transform="matrix(0.928125,0,0,0.525,2564.742351,2037.73376)">
                    <circle cx="282.409" cy="307.087" r="23.622" style="fill:none;stroke:black;stroke-width:5.21px;"/>
                </g>
                <g transform="matrix(0.928125,0,0,0.525,3269.05768,2037.73376)">
                    <circle cx="282.409" cy="307.087" r="23.622" style="fill:none;stroke:black;stroke-width:5.21px;"/>
                </g>
                <g transform="matrix(0.928125,0,0,0.525,3269.05768,1236.281988)">
                    <circle cx="282.409" cy="307.087" r="23.622" style="fill:none;stroke:black;stroke-width:5.21px;"/>
                </g>
                <g transform="matrix(0.928125,0,0,0.525,3269.05768,1140.944882)">
                    <circle cx="282.409" cy="307.087" r="23.622" style="fill:none;stroke:black;stroke-width:5.21px;"/>
                </g>
                <g transform="matrix(0.928125,0,0,0.525,1601.44726,1140.944882)">
                    <circle cx="282.409" cy="307.087" r="23.622" style="fill:none;stroke:black;stroke-width:5.21px;"/>
                </g>
                <g transform="matrix(0.928125,0,0,0.525,-66.163161,1140.944882)">
                    <circle cx="282.409" cy="307.087" r="23.622" style="fill:none;stroke:black;stroke-width:5.21px;"/>
                </g>
                <g transform="matrix(0.928125,0,0,0.525,66.752378,24.80315)">
                    <circle cx="282.409" cy="307.087" r="23.622" style="fill:none;stroke:black;stroke-width:5.21px;"/>
                </g>
                <g transform="matrix(0.928125,0,0,0.525,66.752378,2257.086614)">
                    <circle cx="282.409" cy="307.087" r="23.622" style="fill:none;stroke:black;stroke-width:5.21px;"/>
                </g>
                <g transform="matrix(0.928125,0,0,0.525,3136.142142,24.80315)">
                    <circle cx="282.409" cy="307.087" r="23.622" style="fill:none;stroke:black;stroke-width:5.21px;"/>
                </g>
                <g transform="matrix(0.928125,0,0,0.525,3136.142142,2257.086614)">
                    <circle cx="282.409" cy="307.087" r="23.622" style="fill:none;stroke:black;stroke-width:5.21px;"/>
                </g>
            </g>
            <g transform="matrix(1.160156,0,0,0.65625,0,0)">
                <g id="Bounds">
                    <rect x="0" y="0" width="23.622" height="23.622"/>
                </g>
            </g>
        </g>
    </g>
</svg>
