<?xml version="1.0" encoding="UTF-8" standalone="no"?>
<!DOCTYPE svg PUBLIC "-//W3C//DTD SVG 1.1//EN" "http://www.w3.org/Graphics/SVG/1.1/DTD/svg11.dtd">
<svg width="100%" height="100%" viewBox="0 0 968 1210" version="1.1" xmlns="http://www.w3.org/2000/svg" xmlns:xlink="http://www.w3.org/1999/xlink" xml:space="preserve" xmlns:serif="http://www.serif.com/" style="fill-rule:evenodd;clip-rule:evenodd;stroke-linecap:round;stroke-linejoin:round;stroke-miterlimit:1.5;">
    <g transform="matrix(0.32,0,0,0.32,-3082.7053,0)">
        <g id="Back-Holes" serif:id="Back Holes" transform="matrix(0.861953,0,0,1.52381,9633.454063,0)">
            <rect x="0" y="0" width="3507.874" height="2480.315" style="fill:none;"/>
            <g transform="matrix(0.928125,0,0,0.525,-175.784224,182.14813)">
                <circle cx="282.409" cy="307.087" r="23.622" style="fill:none;stroke:black;stroke-width:1.56px;"/>
            </g>
            <g transform="matrix(0.928125,0,0,0.525,-175.784224,983.599902)">
                <circle cx="282.409" cy="307.087" r="23.622" style="fill:none;stroke:black;stroke-width:1.56px;"/>
            </g>
            <g transform="matrix(0.928125,0,0,0.525,528.531106,983.599902)">
                <circle cx="282.409" cy="307.087" r="23.622" style="fill:none;stroke:black;stroke-width:1.56px;"/>
            </g>
            <g transform="matrix(0.928125,0,0,0.525,528.531106,182.14813)">
                <circle cx="282.409" cy="307.087" r="23.622" style="fill:none;stroke:black;stroke-width:1.56px;"/>
            </g>
            <g transform="matrix(0.928125,0,0,0.525,701.182836,182.14813)">
                <circle cx="282.409" cy="307.087" r="23.622" style="fill:none;stroke:black;stroke-width:1.56px;"/>
            </g>
            <g transform="matrix(0.928125,0,0,0.525,701.182836,983.599902)">
                <circle cx="282.409" cy="307.087" r="23.622" style="fill:none;stroke:black;stroke-width:1.56px;"/>
            </g>
            <g transform="matrix(0.928125,0,0,0.525,1405.498166,983.599902)">
                <circle cx="282.409" cy="307.087" r="23.622" style="fill:none;stroke:black;stroke-width:1.56px;"/>
            </g>
            <g transform="matrix(0.928125,0,0,0.525,1405.498166,182.14813)">
                <circle cx="282.409" cy="307.087" r="23.622" style="fill:none;stroke:black;stroke-width:1.56px;"/>
            </g>
            <g transform="matrix(0.928125,0,0,0.525,-175.784224,1174.274114)">
                <circle cx="282.409" cy="307.087" r="23.622" style="fill:none;stroke:black;stroke-width:1.56px;"/>
            </g>
            <g transform="matrix(0.928125,0,0,0.525,-175.784224,1975.725886)">
                <circle cx="282.409" cy="307.087" r="23.622" style="fill:none;stroke:black;stroke-width:1.56px;"/>
            </g>
            <g transform="matrix(0.928125,0,0,0.525,528.531106,1975.725886)">
                <circle cx="282.409" cy="307.087" r="23.622" style="fill:none;stroke:black;stroke-width:1.56px;"/>
            </g>
            <g transform="matrix(0.928125,0,0,0.525,528.531106,1174.274114)">
                <circle cx="282.409" cy="307.087" r="23.622" style="fill:none;stroke:black;stroke-width:1.56px;"/>
            </g>
            <g transform="matrix(0.928125,0,0,0.525,701.18428,1174.274114)">
                <circle cx="282.409" cy="307.087" r="23.622" style="fill:none;stroke:black;stroke-width:1.56px;"/>
            </g>
            <g transform="matrix(0.928125,0,0,0.525,701.18428,1975.725886)">
                <circle cx="282.409" cy="307.087" r="23.622" style="fill:none;stroke:black;stroke-width:1.56px;"/>
            </g>
            <g transform="matrix(0.928125,0,0,0.525,1405.49961,1975.725886)">
                <circle cx="282.409" cy="307.087" r="23.622" style="fill:none;stroke:black;stroke-width:1.56px;"/>
            </g>
            <g transform="matrix(0.928125,0,0,0.525,1405.49961,1174.274114)">
                <circle cx="282.409" cy="307.087" r="23.622" style="fill:none;stroke:black;stroke-width:1.56px;"/>
            </g>
            <g transform="matrix(0.928125,0,0,0.525,1578.152784,182.14813)">
                <circle cx="282.409" cy="307.087" r="23.622" style="fill:none;stroke:black;stroke-width:1.56px;"/>
            </g>
            <g transform="matrix(0.928125,0,0,0.525,1578.152784,983.599902)">
                <circle cx="282.409" cy="307.087" r="23.622" style="fill:none;stroke:black;stroke-width:1.56px;"/>
            </g>
            <g transform="matrix(0.928125,0,0,0.525,2282.468113,983.599902)">
                <circle cx="282.409" cy="307.087" r="23.622" style="fill:none;stroke:black;stroke-width:1.56px;"/>
            </g>
            <g transform="matrix(0.928125,0,0,0.525,2282.468113,182.14813)">
                <circle cx="282.409" cy="307.087" r="23.622" style="fill:none;stroke:black;stroke-width:1.56px;"/>
            </g>
            <g transform="matrix(0.928125,0,0,0.525,1578.152784,1174.274114)">
                <circle cx="282.409" cy="307.087" r="23.622" style="fill:none;stroke:black;stroke-width:1.56px;"/>
            </g>
            <g transform="matrix(0.928125,0,0,0.525,1578.152784,1975.725886)">
                <circle cx="282.409" cy="307.087" r="23.622" style="fill:none;stroke:black;stroke-width:1.56px;"/>
            </g>
            <g transform="matrix(0.928125,0,0,0.525,2282.468113,1975.725886)">
                <circle cx="282.409" cy="307.087" r="23.622" style="fill:none;stroke:black;stroke-width:1.56px;"/>
            </g>
            <g transform="matrix(0.928125,0,0,0.525,2282.468113,1174.274114)">
                <circle cx="282.409" cy="307.087" r="23.622" style="fill:none;stroke:black;stroke-width:1.56px;"/>
            </g>
            <g transform="matrix(0.928125,0,0,0.525,2455.121288,182.14813)">
                <circle cx="282.409" cy="307.087" r="23.622" style="fill:none;stroke:black;stroke-width:1.56px;"/>
            </g>
            <g transform="matrix(0.928125,0,0,0.525,2455.121288,983.599902)">
                <circle cx="282.409" cy="307.087" r="23.622" style="fill:none;stroke:black;stroke-width:1.56px;"/>
            </g>
            <g transform="matrix(0.928125,0,0,0.525,3159.436617,983.599902)">
                <circle cx="282.409" cy="307.087" r="23.622" style="fill:none;stroke:black;stroke-width:1.56px;"/>
            </g>
            <g transform="matrix(0.928125,0,0,0.525,3159.436617,182.14813)">
                <circle cx="282.409" cy="307.087" r="23.622" style="fill:none;stroke:black;stroke-width:1.56px;"/>
            </g>
            <g transform="matrix(0.928125,0,0,0.525,2455.121288,1174.274114)">
                <circle cx="282.409" cy="307.087" r="23.622" style="fill:none;stroke:black;stroke-width:1.56px;"/>
            </g>
            <g transform="matrix(0.928125,0,0,0.525,2455.121288,1975.725886)">
                <circle cx="282.409" cy="307.087" r="23.622" style="fill:none;stroke:black;stroke-width:1.56px;"/>
            </g>
            <g transform="matrix(0.928125,0,0,0.525,3159.436617,1975.725886)">
                <circle cx="282.409" cy="307.087" r="23.622" style="fill:none;stroke:black;stroke-width:1.56px;"/>
            </g>
            <g transform="matrix(0.928125,0,0,0.525,3159.436617,1174.274114)">
                <circle cx="282.409" cy="307.087" r="23.622" style="fill:none;stroke:black;stroke-width:1.56px;"/>
            </g>
            <g transform="matrix(0.928125,0,0,0.525,3159.436617,1078.937008)">
                <circle cx="282.409" cy="307.087" r="23.622" style="fill:none;stroke:black;stroke-width:1.56px;"/>
            </g>
            <g transform="matrix(0.928125,0,0,0.525,1491.826197,1078.937008)">
                <circle cx="282.409" cy="307.087" r="23.622" style="fill:none;stroke:black;stroke-width:1.56px;"/>
            </g>
            <g transform="matrix(0.928125,0,0,0.525,-175.784224,1078.937008)">
                <circle cx="282.409" cy="307.087" r="23.622" style="fill:none;stroke:black;stroke-width:1.56px;"/>
            </g>
            <g transform="matrix(0.928125,0,0,0.525,-42.868685,-37.204724)">
                <circle cx="282.409" cy="307.087" r="23.622" style="fill:none;stroke:black;stroke-width:1.56px;"/>
            </g>
            <g transform="matrix(0.928125,0,0,0.525,-42.868685,2195.07874)">
                <circle cx="282.409" cy="307.087" r="23.622" style="fill:none;stroke:black;stroke-width:1.56px;"/>
            </g>
            <g transform="matrix(0.928125,0,0,0.525,3026.521079,-37.204724)">
                <circle cx="282.409" cy="307.087" r="23.622" style="fill:none;stroke:black;stroke-width:1.56px;"/>
            </g>
            <g transform="matrix(0.928125,0,0,0.525,3026.521079,2195.07874)">
                <circle cx="282.409" cy="307.087" r="23.622" style="fill:none;stroke:black;stroke-width:1.56px;"/>
            </g>
            <g transform="matrix(1.160156,0,0,0.65625,0,0)">
                <g id="Bounds">
                    <rect x="0" y="0" width="23.622" height="23.622"/>
                </g>
            </g>
        </g>
    </g>
</svg>
