<?xml version="1.0" encoding="UTF-8" standalone="no"?>
<!DOCTYPE svg PUBLIC "-//W3C//DTD SVG 1.1//EN" "http://www.w3.org/Graphics/SVG/1.1/DTD/svg11.dtd">
<svg width="100%" height="100%" viewBox="0 0 968 1210" version="1.1" xmlns="http://www.w3.org/2000/svg" xmlns:xlink="http://www.w3.org/1999/xlink" xml:space="preserve" xmlns:serif="http://www.serif.com/" style="fill-rule:evenodd;clip-rule:evenodd;stroke-linecap:round;stroke-linejoin:round;stroke-miterlimit:1.5;">
    <g transform="matrix(0.32,0,0,0.32,-2058.111845,0)">
        <g id="FR4-Holes" serif:id="FR4 Holes" transform="matrix(0.861953,0,0,1.52381,6431.599515,0)">
            <rect x="0" y="0" width="3507.874" height="2480.315" style="fill:none;"/>
            <clipPath id="_clip1">
                <rect x="0" y="0" width="3507.874" height="2480.315"/>
            </clipPath>
            <g clip-path="url(#_clip1)">
                <g transform="matrix(0.928125,0,0,0.525,-175.784224,182.14813)">
                    <circle cx="282.409" cy="307.087" r="23.622" style="fill:none;stroke:black;stroke-width:5.21px;"/>
                </g>
                <g transform="matrix(0.928125,0,0,0.525,-175.784224,983.599902)">
                    <circle cx="282.409" cy="307.087" r="23.622" style="fill:none;stroke:black;stroke-width:5.21px;"/>
                </g>
                <g transform="matrix(0.928125,0,0,0.525,528.531106,983.599902)">
                    <circle cx="282.409" cy="307.087" r="23.622" style="fill:none;stroke:black;stroke-width:5.21px;"/>
                </g>
                <g transform="matrix(0.928125,0,0,0.525,528.531106,182.14813)">
                    <circle cx="282.409" cy="307.087" r="23.622" style="fill:none;stroke:black;stroke-width:5.21px;"/>
                </g>
                <g transform="matrix(0.928125,0,0,0.525,701.182836,182.14813)">
                    <circle cx="282.409" cy="307.087" r="23.622" style="fill:none;stroke:black;stroke-width:5.21px;"/>
                </g>
                <g transform="matrix(0.928125,0,0,0.525,701.182836,983.599902)">
                    <circle cx="282.409" cy="307.087" r="23.622" style="fill:none;stroke:black;stroke-width:5.21px;"/>
                </g>
                <g transform="matrix(0.928125,0,0,0.525,1405.498166,983.599902)">
                    <circle cx="282.409" cy="307.087" r="23.622" style="fill:none;stroke:black;stroke-width:5.21px;"/>
                </g>
                <g transform="matrix(0.928125,0,0,0.525,1405.498166,182.14813)">
                    <circle cx="282.409" cy="307.087" r="23.622" style="fill:none;stroke:black;stroke-width:5.21px;"/>
                </g>
                <g transform="matrix(0.928125,0,0,0.525,-175.784224,1174.274114)">
                    <circle cx="282.409" cy="307.087" r="23.622" style="fill:none;stroke:black;stroke-width:5.21px;"/>
                </g>
                <g transform="matrix(0.928125,0,0,0.525,-175.784224,1975.725886)">
                    <circle cx="282.409" cy="307.087" r="23.622" style="fill:none;stroke:black;stroke-width:5.21px;"/>
                </g>
                <g transform="matrix(0.928125,0,0,0.525,528.531106,1975.725886)">
                    <circle cx="282.409" cy="307.087" r="23.622" style="fill:none;stroke:black;stroke-width:5.21px;"/>
                </g>
                <g transform="matrix(0.928125,0,0,0.525,528.531106,1174.274114)">
                    <circle cx="282.409" cy="307.087" r="23.622" style="fill:none;stroke:black;stroke-width:5.21px;"/>
                </g>
                <g transform="matrix(0.928125,0,0,0.525,450.426098,1171.948819)">
                    <circle cx="282.409" cy="307.087" r="23.622" style="fill:none;stroke:black;stroke-width:5.21px;"/>
                </g>
                <g transform="matrix(0.928125,0,0,0.525,1327.394602,1171.948819)">
                    <circle cx="282.409" cy="307.087" r="23.622" style="fill:none;stroke:black;stroke-width:5.21px;"/>
                </g>
                <g transform="matrix(0.928125,0,0,0.525,701.18428,1174.274114)">
                    <circle cx="282.409" cy="307.087" r="23.622" style="fill:none;stroke:black;stroke-width:5.21px;"/>
                </g>
                <g transform="matrix(0.928125,0,0,0.525,701.18428,1975.725886)">
                    <circle cx="282.409" cy="307.087" r="23.622" style="fill:none;stroke:black;stroke-width:5.21px;"/>
                </g>
                <g transform="matrix(0.928125,0,0,0.525,1405.49961,1975.725886)">
                    <circle cx="282.409" cy="307.087" r="23.622" style="fill:none;stroke:black;stroke-width:5.21px;"/>
                </g>
                <g transform="matrix(0.928125,0,0,0.525,1405.49961,1174.274114)">
                    <circle cx="282.409" cy="307.087" r="23.622" style="fill:none;stroke:black;stroke-width:5.21px;"/>
                </g>
                <g transform="matrix(0.928125,0,0,0.525,1578.152784,182.14813)">
                    <circle cx="282.409" cy="307.087" r="23.622" style="fill:none;stroke:black;stroke-width:5.21px;"/>
                </g>
                <g transform="matrix(0.928125,0,0,0.525,1578.152784,983.599902)">
                    <circle cx="282.409" cy="307.087" r="23.622" style="fill:none;stroke:black;stroke-width:5.21px;"/>
                </g>
                <g transform="matrix(0.928125,0,0,0.525,2282.468113,983.599902)">
                    <circle cx="282.409" cy="307.087" r="23.622" style="fill:none;stroke:black;stroke-width:5.21px;"/>
                </g>
                <g transform="matrix(0.928125,0,0,0.525,2282.468113,182.14813)">
                    <circle cx="282.409" cy="307.087" r="23.622" style="fill:none;stroke:black;stroke-width:5.21px;"/>
                </g>
                <g transform="matrix(0.928125,0,0,0.525,1578.152784,1174.274114)">
                    <circle cx="282.409" cy="307.087" r="23.622" style="fill:none;stroke:black;stroke-width:5.21px;"/>
                </g>
                <g transform="matrix(0.928125,0,0,0.525,1578.152784,1975.725886)">
                    <circle cx="282.409" cy="307.087" r="23.622" style="fill:none;stroke:black;stroke-width:5.21px;"/>
                </g>
                <g transform="matrix(0.928125,0,0,0.525,2282.468113,1975.725886)">
                    <circle cx="282.409" cy="307.087" r="23.622" style="fill:none;stroke:black;stroke-width:5.21px;"/>
                </g>
                <g transform="matrix(0.928125,0,0,0.525,2282.468113,1174.274114)">
                    <circle cx="282.409" cy="307.087" r="23.622" style="fill:none;stroke:black;stroke-width:5.21px;"/>
                </g>
                <g transform="matrix(0.928125,0,0,0.525,2455.121288,182.14813)">
                    <circle cx="282.409" cy="307.087" r="23.622" style="fill:none;stroke:black;stroke-width:5.21px;"/>
                </g>
                <g transform="matrix(0.928125,0,0,0.525,2455.121288,983.599902)">
                    <circle cx="282.409" cy="307.087" r="23.622" style="fill:none;stroke:black;stroke-width:5.21px;"/>
                </g>
                <g transform="matrix(0.928125,0,0,0.525,3159.436617,983.599902)">
                    <circle cx="282.409" cy="307.087" r="23.622" style="fill:none;stroke:black;stroke-width:5.21px;"/>
                </g>
                <g transform="matrix(0.928125,0,0,0.525,3159.436617,182.14813)">
                    <circle cx="282.409" cy="307.087" r="23.622" style="fill:none;stroke:black;stroke-width:5.21px;"/>
                </g>
                <g transform="matrix(0.928125,0,0,0.525,2455.121288,1174.274114)">
                    <circle cx="282.409" cy="307.087" r="23.622" style="fill:none;stroke:black;stroke-width:5.21px;"/>
                </g>
                <g transform="matrix(0.928125,0,0,0.525,2455.121288,1975.725886)">
                    <circle cx="282.409" cy="307.087" r="23.622" style="fill:none;stroke:black;stroke-width:5.21px;"/>
                </g>
                <g transform="matrix(0.928125,0,0,0.525,3159.436617,1975.725886)">
                    <circle cx="282.409" cy="307.087" r="23.622" style="fill:none;stroke:black;stroke-width:5.21px;"/>
                </g>
                <g transform="matrix(0.928125,0,0,0.525,3159.436617,1174.274114)">
                    <circle cx="282.409" cy="307.087" r="23.622" style="fill:none;stroke:black;stroke-width:5.21px;"/>
                </g>
                <g transform="matrix(0.928125,0,0,0.525,3159.436617,1078.937008)">
                    <circle cx="282.409" cy="307.087" r="23.622" style="fill:none;stroke:black;stroke-width:5.21px;"/>
                </g>
                <g transform="matrix(0.928125,0,0,0.525,1491.826197,1078.937008)">
                    <circle cx="282.409" cy="307.087" r="23.622" style="fill:none;stroke:black;stroke-width:5.21px;"/>
                </g>
                <g transform="matrix(0.928125,0,0,0.525,-175.784224,1078.937008)">
                    <circle cx="282.409" cy="307.087" r="23.622" style="fill:none;stroke:black;stroke-width:5.21px;"/>
                </g>
                <g transform="matrix(0.928125,0,0,0.525,-42.868685,-37.204724)">
                    <circle cx="282.409" cy="307.087" r="23.622" style="fill:none;stroke:black;stroke-width:5.21px;"/>
                </g>
                <g transform="matrix(2.900391,0,0,1.640625,-545.043628,-100.762795)">
                    <circle cx="282.409" cy="307.087" r="23.622" style="fill:none;stroke:black;stroke-width:1.67px;"/>
                </g>
                <g transform="matrix(2.900391,0,0,1.640625,331.923433,-100.762795)">
                    <circle cx="282.409" cy="307.087" r="23.622" style="fill:none;stroke:black;stroke-width:1.67px;"/>
                </g>
                <g transform="matrix(2.900391,0,0,1.640625,-599.854159,116.264764)">
                    <circle cx="282.409" cy="307.087" r="23.622" style="fill:none;stroke:black;stroke-width:1.67px;"/>
                </g>
                <g transform="matrix(2.900391,0,0,1.640625,277.112901,116.264764)">
                    <circle cx="282.409" cy="307.087" r="23.622" style="fill:none;stroke:black;stroke-width:1.67px;"/>
                </g>
                <g transform="matrix(2.900391,0,0,1.640625,-380.612033,116.264764)">
                    <circle cx="282.409" cy="307.087" r="23.622" style="fill:none;stroke:black;stroke-width:1.67px;"/>
                </g>
                <g transform="matrix(2.900391,0,0,1.640625,496.355027,116.264764)">
                    <circle cx="282.409" cy="307.087" r="23.622" style="fill:none;stroke:black;stroke-width:1.67px;"/>
                </g>
                <g transform="matrix(2.900391,0,0,1.640625,-599.854159,922.367126)">
                    <circle cx="282.409" cy="307.087" r="23.622" style="fill:none;stroke:black;stroke-width:1.67px;"/>
                </g>
                <g transform="matrix(2.900391,0,0,1.640625,277.114345,922.367126)">
                    <circle cx="282.409" cy="307.087" r="23.622" style="fill:none;stroke:black;stroke-width:1.67px;"/>
                </g>
                <g transform="matrix(2.900391,0,0,1.640625,-380.612033,922.367126)">
                    <circle cx="282.409" cy="307.087" r="23.622" style="fill:none;stroke:black;stroke-width:1.67px;"/>
                </g>
                <g transform="matrix(2.900391,0,0,1.640625,496.356471,922.367126)">
                    <circle cx="282.409" cy="307.087" r="23.622" style="fill:none;stroke:black;stroke-width:1.67px;"/>
                </g>
                <g transform="matrix(2.900391,0,0,1.640625,-599.854159,1108.390748)">
                    <circle cx="282.409" cy="307.087" r="23.622" style="fill:none;stroke:black;stroke-width:1.67px;"/>
                </g>
                <g transform="matrix(2.900391,0,0,1.640625,277.114345,1108.390748)">
                    <circle cx="282.409" cy="307.087" r="23.622" style="fill:none;stroke:black;stroke-width:1.67px;"/>
                </g>
                <g transform="matrix(2.900391,0,0,1.640625,1373.324975,1108.390748)">
                    <circle cx="282.409" cy="307.087" r="23.622" style="fill:none;stroke:black;stroke-width:1.67px;"/>
                </g>
                <g transform="matrix(2.900391,0,0,1.640625,1592.567101,1108.390748)">
                    <circle cx="282.409" cy="307.087" r="23.622" style="fill:none;stroke:black;stroke-width:1.67px;"/>
                </g>
                <g transform="matrix(2.900391,0,0,1.640625,1592.567101,922.367126)">
                    <circle cx="282.409" cy="307.087" r="23.622" style="fill:none;stroke:black;stroke-width:1.67px;"/>
                </g>
                <g transform="matrix(2.900391,0,0,1.640625,2031.051353,922.367126)">
                    <circle cx="282.409" cy="307.087" r="23.622" style="fill:none;stroke:black;stroke-width:1.67px;"/>
                </g>
                <g transform="matrix(2.900391,0,0,1.640625,2250.293479,922.367126)">
                    <circle cx="282.409" cy="307.087" r="23.622" style="fill:none;stroke:black;stroke-width:1.67px;"/>
                </g>
                <g transform="matrix(2.900391,0,0,1.640625,2469.535605,922.367126)">
                    <circle cx="282.409" cy="307.087" r="23.622" style="fill:none;stroke:black;stroke-width:1.67px;"/>
                </g>
                <g transform="matrix(2.900391,0,0,1.640625,1373.324975,922.367126)">
                    <circle cx="282.409" cy="307.087" r="23.622" style="fill:none;stroke:black;stroke-width:1.67px;"/>
                </g>
                <g transform="matrix(2.900391,0,0,1.640625,1154.082849,922.367126)">
                    <circle cx="282.409" cy="307.087" r="23.622" style="fill:none;stroke:black;stroke-width:1.67px;"/>
                </g>
                <g transform="matrix(2.900391,0,0,1.640625,1154.082849,-69.758858)">
                    <circle cx="282.409" cy="307.087" r="23.622" style="fill:none;stroke:black;stroke-width:1.67px;"/>
                </g>
                <g transform="matrix(2.900391,0,0,1.640625,1373.324975,116.264764)">
                    <circle cx="282.409" cy="307.087" r="23.622" style="fill:none;stroke:black;stroke-width:1.67px;"/>
                </g>
                <g transform="matrix(2.900391,0,0,1.640625,2469.535605,116.264764)">
                    <circle cx="282.409" cy="307.087" r="23.622" style="fill:none;stroke:black;stroke-width:1.67px;"/>
                </g>
                <g transform="matrix(2.900391,0,0,1.640625,1373.324975,-69.758858)">
                    <circle cx="282.409" cy="307.087" r="23.622" style="fill:none;stroke:black;stroke-width:1.67px;"/>
                </g>
                <g transform="matrix(2.900391,0,0,1.640625,2250.293479,116.264764)">
                    <circle cx="282.409" cy="307.087" r="23.622" style="fill:none;stroke:black;stroke-width:1.67px;"/>
                </g>
                <g transform="matrix(2.900391,0,0,1.640625,1592.567101,-69.758858)">
                    <circle cx="282.409" cy="307.087" r="23.622" style="fill:none;stroke:black;stroke-width:1.67px;"/>
                </g>
                <g transform="matrix(2.900391,0,0,1.640625,2031.051353,-69.758858)">
                    <circle cx="282.409" cy="307.087" r="23.622" style="fill:none;stroke:black;stroke-width:1.67px;"/>
                </g>
                <g transform="matrix(2.900391,0,0,1.640625,2414.725073,-100.762795)">
                    <circle cx="282.409" cy="307.087" r="23.622" style="fill:none;stroke:black;stroke-width:1.67px;"/>
                </g>
                <g transform="matrix(2.030273,0,0,1.148437,-354.125274,701.464075)">
                    <circle cx="282.409" cy="307.087" r="23.622" style="fill:none;stroke:black;stroke-width:2.38px;"/>
                </g>
                <g transform="matrix(2.030273,0,0,1.148437,522.841787,701.464075)">
                    <circle cx="282.409" cy="307.087" r="23.622" style="fill:none;stroke:black;stroke-width:2.38px;"/>
                </g>
                <g transform="matrix(2.030273,0,0,1.148437,1399.811734,1693.590059)">
                    <circle cx="282.409" cy="307.087" r="23.622" style="fill:none;stroke:black;stroke-width:2.38px;"/>
                </g>
                <g transform="matrix(2.030273,0,0,1.148437,2274.670438,1693.590059)">
                    <circle cx="282.409" cy="307.087" r="23.622" style="fill:none;stroke:black;stroke-width:2.38px;"/>
                </g>
                <g transform="matrix(2.030273,0,0,1.148437,-354.125274,515.440453)">
                    <circle cx="282.409" cy="307.087" r="23.622" style="fill:none;stroke:black;stroke-width:2.38px;"/>
                </g>
                <g transform="matrix(2.030273,0,0,1.148437,522.841787,515.440453)">
                    <circle cx="282.409" cy="307.087" r="23.622" style="fill:none;stroke:black;stroke-width:2.38px;"/>
                </g>
                <g transform="matrix(2.030273,0,0,1.148437,1399.811734,1507.566437)">
                    <circle cx="282.409" cy="307.087" r="23.622" style="fill:none;stroke:black;stroke-width:2.38px;"/>
                </g>
                <g transform="matrix(2.030273,0,0,1.148437,2274.670438,1507.566437)">
                    <circle cx="282.409" cy="307.087" r="23.622" style="fill:none;stroke:black;stroke-width:2.38px;"/>
                </g>
                <g transform="matrix(2.030273,0,0,1.148437,1399.811734,701.464075)">
                    <circle cx="282.409" cy="307.087" r="23.622" style="fill:none;stroke:black;stroke-width:2.38px;"/>
                </g>
                <g transform="matrix(2.030273,0,0,1.148437,1399.811734,267.408957)">
                    <circle cx="282.409" cy="307.087" r="23.622" style="fill:none;stroke:black;stroke-width:2.38px;"/>
                </g>
                <g transform="matrix(2.030273,0,0,1.148437,1838.295986,267.408957)">
                    <circle cx="282.409" cy="307.087" r="23.622" style="fill:none;stroke:black;stroke-width:2.38px;"/>
                </g>
                <g transform="matrix(2.030273,0,0,1.148437,-134.883148,701.464075)">
                    <circle cx="282.409" cy="307.087" r="23.622" style="fill:none;stroke:black;stroke-width:2.38px;"/>
                </g>
                <g transform="matrix(2.030273,0,0,1.148437,742.083913,701.464075)">
                    <circle cx="282.409" cy="307.087" r="23.622" style="fill:none;stroke:black;stroke-width:2.38px;"/>
                </g>
                <g transform="matrix(2.030273,0,0,1.148437,1619.05386,1693.590059)">
                    <circle cx="282.409" cy="307.087" r="23.622" style="fill:none;stroke:black;stroke-width:2.38px;"/>
                </g>
                <g transform="matrix(2.030273,0,0,1.148437,2493.912564,1693.590059)">
                    <circle cx="282.409" cy="307.087" r="23.622" style="fill:none;stroke:black;stroke-width:2.38px;"/>
                </g>
                <g transform="matrix(2.030273,0,0,1.148437,-134.883148,515.440453)">
                    <circle cx="282.409" cy="307.087" r="23.622" style="fill:none;stroke:black;stroke-width:2.38px;"/>
                </g>
                <g transform="matrix(2.030273,0,0,1.148437,742.083913,515.440453)">
                    <circle cx="282.409" cy="307.087" r="23.622" style="fill:none;stroke:black;stroke-width:2.38px;"/>
                </g>
                <g transform="matrix(2.030273,0,0,1.148437,1619.05386,1507.566437)">
                    <circle cx="282.409" cy="307.087" r="23.622" style="fill:none;stroke:black;stroke-width:2.38px;"/>
                </g>
                <g transform="matrix(2.030273,0,0,1.148437,2496.022364,1507.566437)">
                    <circle cx="282.409" cy="307.087" r="23.622" style="fill:none;stroke:black;stroke-width:2.38px;"/>
                </g>
                <g transform="matrix(2.030273,0,0,1.148437,1399.811734,1259.534941)">
                    <circle cx="282.409" cy="307.087" r="23.622" style="fill:none;stroke:black;stroke-width:2.38px;"/>
                </g>
                <g transform="matrix(2.030273,0,0,1.148437,2715.26449,1259.534941)">
                    <circle cx="282.409" cy="307.087" r="23.622" style="fill:none;stroke:black;stroke-width:2.38px;"/>
                </g>
                <g transform="matrix(0.928125,0,0,0.525,1985.12098,1171.948819)">
                    <circle cx="282.409" cy="307.087" r="23.622" style="fill:none;stroke:black;stroke-width:5.21px;"/>
                </g>
                <g transform="matrix(0.928125,0,0,0.525,2204.363106,1171.948819)">
                    <circle cx="282.409" cy="307.087" r="23.622" style="fill:none;stroke:black;stroke-width:5.21px;"/>
                </g>
                <g transform="matrix(2.909593,0,0,1.645831,2247.694545,1106.792182)">
                    <circle cx="282.409" cy="307.087" r="23.622" style="fill:none;stroke:black;stroke-width:1.66px;"/>
                </g>
                <g transform="matrix(2.909593,0,0,1.645831,2028.452419,1106.792182)">
                    <circle cx="282.409" cy="307.087" r="23.622" style="fill:none;stroke:black;stroke-width:1.66px;"/>
                </g>
                <g transform="matrix(2.030273,0,0,1.148437,1619.05386,701.464075)">
                    <circle cx="282.409" cy="307.087" r="23.622" style="fill:none;stroke:black;stroke-width:2.38px;"/>
                </g>
                <g transform="matrix(0.802882,0,0,0.359741,1445.451035,-92.606759)">
                    <path d="M657.294,2239.661C663.63,2239.661 669.707,2242.839 674.188,2248.495C678.668,2254.152 681.186,2261.823 681.186,2269.823C681.186,2383.494 681.186,2785.3 681.186,2898.972C681.186,2906.971 678.668,2914.643 674.188,2920.3C669.707,2925.956 663.63,2929.134 657.294,2929.134L657.29,2929.134C650.954,2929.134 644.877,2925.956 640.396,2920.3C635.916,2914.643 633.398,2906.971 633.398,2898.972L633.398,2269.823C633.398,2261.823 635.916,2254.152 640.396,2248.495C644.877,2242.839 650.954,2239.661 657.29,2239.661L657.294,2239.661Z" style="fill:none;stroke:black;stroke-width:6.67px;"/>
                </g>
                <g transform="matrix(0.802882,0,0,0.359741,1664.693161,-92.606759)">
                    <path d="M657.294,2239.661C663.63,2239.661 669.707,2242.839 674.188,2248.495C678.668,2254.152 681.186,2261.823 681.186,2269.823L681.186,2898.972C681.186,2906.971 678.668,2914.643 674.188,2920.3C669.707,2925.956 663.63,2929.134 657.294,2929.134L657.29,2929.134C650.954,2929.134 644.877,2925.956 640.396,2920.3C635.916,2914.643 633.398,2906.971 633.398,2898.972C633.398,2785.3 633.398,2383.494 633.398,2269.823C633.398,2261.823 635.916,2254.152 640.396,2248.495C644.877,2242.839 650.954,2239.661 657.29,2239.661C657.291,2239.661 657.293,2239.661 657.294,2239.661Z" style="fill:none;stroke:black;stroke-width:6.67px;"/>
                </g>
                <g transform="matrix(0.802882,0,0,0.359741,1883.935287,-92.606759)">
                    <path d="M657.294,2239.661C663.63,2239.661 669.707,2242.839 674.188,2248.495C678.668,2254.152 681.186,2261.823 681.186,2269.823L681.186,2898.972C681.186,2906.971 678.668,2914.643 674.188,2920.3C669.707,2925.956 663.63,2929.134 657.294,2929.134L657.29,2929.134C650.954,2929.134 644.877,2925.956 640.396,2920.3C635.916,2914.643 633.398,2906.971 633.398,2898.972L633.398,2269.823C633.398,2261.823 635.916,2254.152 640.396,2248.495C644.877,2242.839 650.954,2239.661 657.29,2239.661L657.294,2239.661Z" style="fill:none;stroke:black;stroke-width:6.67px;"/>
                </g>
                <g transform="matrix(2.030273,0,0,1.148437,84.358978,701.464075)">
                    <circle cx="282.409" cy="307.087" r="23.622" style="fill:none;stroke:black;stroke-width:2.38px;"/>
                </g>
                <g transform="matrix(2.030273,0,0,1.148437,961.326039,701.464075)">
                    <circle cx="282.409" cy="307.087" r="23.622" style="fill:none;stroke:black;stroke-width:2.38px;"/>
                </g>
                <g transform="matrix(2.030273,0,0,1.148437,1838.295986,1693.590059)">
                    <circle cx="282.409" cy="307.087" r="23.622" style="fill:none;stroke:black;stroke-width:2.38px;"/>
                </g>
                <g transform="matrix(2.030273,0,0,1.148437,2713.15469,1693.590059)">
                    <circle cx="282.409" cy="307.087" r="23.622" style="fill:none;stroke:black;stroke-width:2.38px;"/>
                </g>
                <g transform="matrix(2.030273,0,0,1.148437,84.358978,515.440453)">
                    <circle cx="282.409" cy="307.087" r="23.622" style="fill:none;stroke:black;stroke-width:2.38px;"/>
                </g>
                <g transform="matrix(2.030273,0,0,1.148437,961.326039,515.440453)">
                    <circle cx="282.409" cy="307.087" r="23.622" style="fill:none;stroke:black;stroke-width:2.38px;"/>
                </g>
                <g transform="matrix(2.030273,0,0,1.148437,1838.295986,1507.566437)">
                    <circle cx="282.409" cy="307.087" r="23.622" style="fill:none;stroke:black;stroke-width:2.38px;"/>
                </g>
                <g transform="matrix(2.030273,0,0,1.148437,2715.26449,1507.566437)">
                    <circle cx="282.409" cy="307.087" r="23.622" style="fill:none;stroke:black;stroke-width:2.38px;"/>
                </g>
                <g transform="matrix(2.030273,0,0,1.148437,2496.022364,515.440453)">
                    <circle cx="282.409" cy="307.087" r="23.622" style="fill:none;stroke:black;stroke-width:2.38px;"/>
                </g>
                <g transform="matrix(2.030273,0,0,1.148437,2276.780238,515.440453)">
                    <circle cx="282.409" cy="307.087" r="23.622" style="fill:none;stroke:black;stroke-width:2.38px;"/>
                </g>
                <g transform="matrix(2.030273,0,0,1.148437,2715.26449,515.440453)">
                    <circle cx="282.409" cy="307.087" r="23.622" style="fill:none;stroke:black;stroke-width:2.38px;"/>
                </g>
                <g transform="matrix(2.030273,0,0,1.148437,1838.295986,701.417877)">
                    <circle cx="282.409" cy="307.087" r="23.622" style="fill:none;stroke:black;stroke-width:2.38px;"/>
                </g>
                <g transform="matrix(2.030273,0,0,1.148437,2276.780238,701.417877)">
                    <circle cx="282.409" cy="307.087" r="23.622" style="fill:none;stroke:black;stroke-width:2.38px;"/>
                </g>
                <g transform="matrix(2.030273,0,0,1.148437,2715.26449,701.417877)">
                    <circle cx="282.409" cy="307.087" r="23.622" style="fill:none;stroke:black;stroke-width:2.38px;"/>
                </g>
                <g transform="matrix(2.900391,0,0,1.640625,-161.369907,116.264764)">
                    <circle cx="282.409" cy="307.087" r="23.622" style="fill:none;stroke:black;stroke-width:1.67px;"/>
                </g>
                <g transform="matrix(2.900391,0,0,1.640625,715.597153,116.264764)">
                    <circle cx="282.409" cy="307.087" r="23.622" style="fill:none;stroke:black;stroke-width:1.67px;"/>
                </g>
                <g transform="matrix(0.928125,0,0,0.525,-42.868685,2195.07874)">
                    <circle cx="282.409" cy="307.087" r="23.622" style="fill:none;stroke:black;stroke-width:5.21px;"/>
                </g>
                <g transform="matrix(0.928125,0,0,0.525,3026.521079,-37.204724)">
                    <circle cx="282.409" cy="307.087" r="23.622" style="fill:none;stroke:black;stroke-width:5.21px;"/>
                </g>
                <g transform="matrix(0.928125,0,0,0.525,3026.521079,2195.07874)">
                    <circle cx="282.409" cy="307.087" r="23.622" style="fill:none;stroke:black;stroke-width:5.21px;"/>
                </g>
                <g transform="matrix(0.928125,0,0,0.525,2807.278953,2195.07874)">
                    <circle cx="282.409" cy="307.087" r="23.622" style="fill:none;stroke:black;stroke-width:5.21px;"/>
                </g>
                <g transform="matrix(2.030273,0,0,1.148437,-354.125274,1693.590059)">
                    <circle cx="282.409" cy="307.087" r="23.622" style="fill:none;stroke:black;stroke-width:2.38px;"/>
                </g>
                <g transform="matrix(2.030273,0,0,1.148437,522.84323,1693.590059)">
                    <circle cx="282.409" cy="307.087" r="23.622" style="fill:none;stroke:black;stroke-width:2.38px;"/>
                </g>
                <g transform="matrix(2.030273,0,0,1.148437,-354.125274,1507.566437)">
                    <circle cx="282.409" cy="307.087" r="23.622" style="fill:none;stroke:black;stroke-width:2.38px;"/>
                </g>
                <g transform="matrix(2.030273,0,0,1.148437,522.84323,1507.566437)">
                    <circle cx="282.409" cy="307.087" r="23.622" style="fill:none;stroke:black;stroke-width:2.38px;"/>
                </g>
                <g transform="matrix(2.030273,0,0,1.148437,-134.883148,1693.590059)">
                    <circle cx="282.409" cy="307.087" r="23.622" style="fill:none;stroke:black;stroke-width:2.38px;"/>
                </g>
                <g transform="matrix(3.19043,0,0,1.804687,-462.521662,1802.103839)">
                    <circle cx="282.409" cy="307.087" r="23.622" style="fill:none;stroke:black;stroke-width:1.52px;"/>
                </g>
                <g transform="matrix(3.19043,0,0,1.804687,-243.279536,1802.103839)">
                    <circle cx="282.409" cy="307.087" r="23.622" style="fill:none;stroke:black;stroke-width:1.52px;"/>
                </g>
                <g transform="matrix(2.030273,0,0,1.148437,742.085356,1693.590059)">
                    <circle cx="282.409" cy="307.087" r="23.622" style="fill:none;stroke:black;stroke-width:2.38px;"/>
                </g>
                <g transform="matrix(2.030273,0,0,1.148437,-134.883148,1507.566437)">
                    <circle cx="282.409" cy="307.087" r="23.622" style="fill:none;stroke:black;stroke-width:2.38px;"/>
                </g>
                <g transform="matrix(2.030273,0,0,1.148437,742.085356,1507.566437)">
                    <circle cx="282.409" cy="307.087" r="23.622" style="fill:none;stroke:black;stroke-width:2.38px;"/>
                </g>
                <g transform="matrix(2.030273,0,0,1.148437,84.358978,1693.590059)">
                    <circle cx="282.409" cy="307.087" r="23.622" style="fill:none;stroke:black;stroke-width:2.38px;"/>
                </g>
                <g transform="matrix(2.030273,0,0,1.148437,961.327482,1693.590059)">
                    <circle cx="282.409" cy="307.087" r="23.622" style="fill:none;stroke:black;stroke-width:2.38px;"/>
                </g>
                <g transform="matrix(0.802882,0,0,0.586827,129.99828,73.132444)">
                    <path d="M657.294,2239.661C663.63,2239.661 669.707,2241.609 674.188,2245.077C678.668,2248.544 681.186,2253.247 681.186,2258.151C681.186,2356.016 681.186,2812.779 681.186,2910.644C681.186,2915.548 678.668,2920.251 674.188,2923.718C669.707,2927.186 663.63,2929.134 657.294,2929.134C657.293,2929.134 657.291,2929.134 657.29,2929.134C650.954,2929.134 644.877,2927.186 640.396,2923.718C635.916,2920.251 633.398,2915.548 633.398,2910.644C633.398,2812.779 633.398,2356.016 633.398,2258.151C633.398,2253.247 635.916,2248.544 640.396,2245.077C644.877,2241.609 650.954,2239.661 657.29,2239.661L657.294,2239.661Z" style="fill:none;stroke:black;stroke-width:5.21px;"/>
                </g>
                <g transform="matrix(0.860231,0,0,0.586827,969.271919,73.132444)">
                    <path d="M657.293,2239.661C663.629,2239.661 669.707,2241.748 674.187,2245.464C678.668,2249.179 681.186,2254.218 681.186,2259.473C681.186,2359.609 681.186,2809.186 681.186,2909.322C681.186,2914.576 678.668,2919.616 674.187,2923.331C669.707,2927.047 663.629,2929.134 657.293,2929.134C657.292,2929.134 657.292,2929.134 657.291,2929.134C650.954,2929.134 644.877,2927.047 640.396,2923.331C635.916,2919.616 633.398,2914.576 633.398,2909.322C633.398,2809.186 633.398,2359.609 633.398,2259.473C633.398,2254.218 635.916,2249.179 640.396,2245.464C644.877,2241.748 650.954,2239.661 657.291,2239.661C657.292,2239.661 657.292,2239.661 657.293,2239.661Z" style="fill:none;stroke:black;stroke-width:5.07px;"/>
                </g>
                <g transform="matrix(0.928125,0,0,0.525,-3125.813785,291.437008)">
                    <circle cx="6379.691" cy="2811.024" r="23.622" style="fill:none;stroke:black;stroke-width:5.21px;"/>
                </g>
                <g transform="matrix(0.928125,0,0,0.525,-3016.192722,291.437008)">
                    <circle cx="6379.691" cy="2811.024" r="23.622" style="fill:none;stroke:black;stroke-width:5.21px;"/>
                </g>
                <g transform="matrix(0.928125,0,0,0.525,-2906.571659,291.437008)">
                    <circle cx="6379.691" cy="2811.024" r="23.622" style="fill:none;stroke:black;stroke-width:5.21px;"/>
                </g>
                <g transform="matrix(0.928125,0,0,0.525,-2796.950596,291.324999)">
                    <circle cx="6379.691" cy="2811.024" r="23.622" style="fill:none;stroke:black;stroke-width:5.21px;"/>
                </g>
                <g transform="matrix(0.928125,0,0,0.525,-2687.329533,290.344298)">
                    <circle cx="6379.691" cy="2811.024" r="23.622" style="fill:none;stroke:black;stroke-width:5.21px;"/>
                </g>
                <g transform="matrix(0.928125,0,0,0.525,-2577.70847,290.344298)">
                    <circle cx="6379.691" cy="2811.024" r="23.622" style="fill:none;stroke:black;stroke-width:5.21px;"/>
                </g>
                <g transform="matrix(1.160156,0,0,0.65625,0,0)">
                    <rect x="0" y="0" width="23.622" height="23.622"/>
                </g>
                <g transform="matrix(1.160156,0,0,0.65625,0,2464.812992)">
                    <rect x="0" y="0" width="23.622" height="23.622"/>
                </g>
                <g transform="matrix(1.160156,0,0,0.65625,3480.46875,0)">
                    <rect x="0" y="0" width="23.622" height="23.622"/>
                </g>
                <g transform="matrix(1.160156,0,0,0.65625,3480.46875,2464.812992)">
                    <rect x="0" y="0" width="23.622" height="23.622"/>
                </g>
            </g>
        </g>
    </g>
</svg>
