<svg width="6463" height="900" viewBox="0 0 6463 900" fill="none" xmlns="http://www.w3.org/2000/svg">
<g clip-path="url(#clip0_18_2)">
<path d="M1737.51 0H1962.53V112.5H1737.51V0Z" fill="black"/>
<path d="M1737.51 337.5H1625V112.5H1737.51V337.5Z" fill="black"/>
<path d="M1850.02 450H1737.51V337.5H1850.02V450Z" fill="black"/>
<path d="M1962.53 562.5H1850.02V450H1962.53V562.5Z" fill="black"/>
<path d="M1962.53 787.5V562.5H2075.05V787.5H1962.53Z" fill="black"/>
<path d="M1737.51 787.5H1962.53V900H1737.51V787.5Z" fill="black"/>
<path d="M1737.51 787.5H1625V675H1737.51V787.5Z" fill="black"/>
<path d="M1962.53 112.5H2075.05V225H1962.53V112.5Z" fill="black"/>
<path fill-rule="evenodd" clip-rule="evenodd" d="M3537.7 225H3425.19V675H3537.7V787.5H3425.19V900H3537.7V787.5H3650.21V900H4100.26V787.5H4212.77V675H4325.28V225H4212.77V112.5H4325.28V0H4212.77V112.5H4100.26V0H3650.21V112.5H3537.7V225ZM3537.7 225H3650.21V112.5H4100.26V225H3987.74V337.5H3875.23V450H3762.72V562.5H3650.21V675H3537.7V225ZM3650.21 675H3762.72V562.5H3875.23V450H3987.74V337.5H4100.26V225H4212.77V675H4100.26V787.5H3650.21V675Z" fill="black"/>
<path d="M5225.37 112.5H5337.88V225H5225.37V112.5Z" fill="black"/>
<path d="M5112.86 337.5H5000.35V112.5H5225.37V0H4887.84V900H5000.35V450H5112.86V562.5H5225.37V900H5337.88V562.5H5225.37V450H5112.86V337.5Z" fill="black"/>
<path d="M5112.86 337.5H5225.37V225H5112.86V337.5Z" fill="black"/>
<path d="M2975.14 112.5H2862.63V0H2750.12V900H2862.63V225H2975.14V450H3087.65V225H3200.16V900H3312.67V0H3200.16V112.5H3087.65V225H2975.14V112.5Z" fill="black"/>
<path d="M2300.07 0H2187.56V900H2300.07V450H2525.09V900H2637.6V0H2525.09V337.5H2300.07V0Z" fill="black"/>
<path d="M4437.79 0V900H4775.33V787.5H4550.3V450H4775.33V337.5H4550.3V112.5H4775.33V0H4437.79Z" fill="black"/>
<path d="M5562.91 112.5H5450.4V787.5H5562.91V900H5900.44V337.5H5675.42V450H5787.93V787.5H5562.91V112.5Z" fill="black"/>
<path d="M5562.91 112.5H5900.44V0H5562.91V112.5Z" fill="black"/>
<path d="M6125.46 0H6012.95V900H6125.46V450H6350.49V900H6463V0H6350.49V337.5H6125.46V0Z" fill="black"/>
<path d="M379.051 0V47.3013H284.235V94.6029H236.933V236.719H189.631V189.418H94.8157V142.116H0V284.232H94.8157V426.349H47.5139V473.65H0V615.766H94.8157V663.068H379.051V899.787H426.352V852.485H473.654V757.671H520.956V710.369H710.375V663.068H852.493V710.369H899.794V899.787H947.096V852.485H994.398V805.184H1041.7V663.068H1089V236.719H1136.3V189.418H1183.6V142.116H1230.91V94.8149H1183.6V47.5136H1136.3V94.8149V142.116H1089V189.418H1041.7V142.116H994.398V94.8149H947.096V47.5136H899.794H852.493V0.211997H379.051V0ZM236.933 426.349H284.235V473.65H236.933V426.349ZM189.631 426.349V473.65H142.118V426.349H189.631Z" fill="black"/>
<path d="M1089.43 47.5156H1042.12V94.8169H1089.43V47.5156Z" fill="black"/>
<path d="M1136.73 0H1089.43V47.3013H1136.73V0Z" fill="black"/>
<path d="M710.587 805.185H663.285V852.698V900H710.587V852.698H757.889V805.185H805.191V757.883V710.582H757.889H710.587V757.883V805.185Z" fill="black"/>
<path d="M236.933 710.582V757.883V805.185H189.632V852.698V900H236.933H284.235V852.698V805.185H331.537V757.883V710.582H284.235H236.933Z" fill="black"/>
</g>
<defs>
<clipPath id="clip0_18_2">
<rect width="6463" height="900" fill="white"/>
</clipPath>
</defs>
</svg>
